<?xml version="1.0" standalone="no"?>
<!DOCTYPE svg PUBLIC "-//W3C//DTD SVG 1.1//EN" "http://www.w3.org/Graphics/SVG/1.1/DTD/svg11.dtd" >
<svg>
<metadata>
Created by FontForge 20090914 at Fri Nov  1 23:37:28 2013
 By www-data
Converted by ALLTYPE
</metadata>
<defs>
<font id="Cooper" horiz-adv-x="278" >
  <font-face 
    font-family="Cooper"
    font-weight="5"
    font-stretch="normal"
    units-per-em="1000"
    panose-1="0 0 0 0 0 0 0 0 0 0"
    ascent="800"
    descent="-200"
    x-height="481.997"
    cap-height="676"
    bbox="-168 -250 1236 918.001"
    underline-thickness="50"
    underline-position="-55"
    unicode-range="U+0020-U+F002"
  />
<missing-glyph horiz-adv-x="369" 
d="M303 445l0.00390625 -432.998c0 -44.667 -3.33301 -78.834 -10 -102.501s-18.334 -42.167 -35.001 -55.5c-16 -12.667 -35.5 -23 -58.5 -31s-46.5 -13 -70.5 -15c-3.33301 -0.666992 -6.66602 -1 -9.99902 -1h-10c-31.333 0 -57.666 6.33301 -78.999 19s-32 28 -32 46
c0 8.66699 2.83301 16.334 8.5 23.001s12.5 10 20.5 10c1.33301 0 2.66602 -0.166992 3.99902 -0.5s2.66602 -0.5 3.99902 -0.5s2.66602 -0.166992 3.99902 -0.5s2.66602 -0.5 3.99902 -0.5c3.33301 -0.666992 5.66602 -1 6.99902 -1h2c8 0 14.5 2.66699 19.5 8
s7.5 12 7.5 20c0 4 -0.333008 7.83301 -1 11.5s-1 7.5 -1 11.5c-0.666992 3.33301 -1.33398 7 -2.00098 11s-1 8 -1 12v310c0 15.333 -3.16699 26.666 -9.5 33.999s-13.5 13 -21.5 17c-1.33301 0.666992 -2.5 1.16699 -3.5 1.5s-1.83301 0.833008 -2.5 1.5
c-6.66699 3.33301 -12.5 7.33301 -17.5 12s-7.5 11.667 -7.5 21c0 23.333 14.333 42.5 43 57.5s60.334 26.833 95.001 35.5c24.667 6 48.167 10.333 70.5 13s39.5 4 51.5 4c11.333 0 19.333 -2.83301 24 -8.5s7 -15.834 7 -30.501v1zM196.004 667.002
c4.66699 -0.666992 9.83301 -1.16602 15.5 -1.49902s11.167 -0.833008 16.5 -1.5c16 -2.66699 30.667 -8.33398 44 -17.001s20 -22 20 -40c0 -26.667 -17.333 -49 -52 -67s-77.667 -27 -129 -27c-25.333 0 -46 5.5 -62 16.5s-24 25.5 -24 43.5c0 24.667 16.5 46 49.5 64
s73.5 27.667 121.5 29v1z" />
    <glyph glyph-name=".notdef" horiz-adv-x="369" 
d="M303 445l0.00390625 -432.998c0 -44.667 -3.33301 -78.834 -10 -102.501s-18.334 -42.167 -35.001 -55.5c-16 -12.667 -35.5 -23 -58.5 -31s-46.5 -13 -70.5 -15c-3.33301 -0.666992 -6.66602 -1 -9.99902 -1h-10c-31.333 0 -57.666 6.33301 -78.999 19s-32 28 -32 46
c0 8.66699 2.83301 16.334 8.5 23.001s12.5 10 20.5 10c1.33301 0 2.66602 -0.166992 3.99902 -0.5s2.66602 -0.5 3.99902 -0.5s2.66602 -0.166992 3.99902 -0.5s2.66602 -0.5 3.99902 -0.5c3.33301 -0.666992 5.66602 -1 6.99902 -1h2c8 0 14.5 2.66699 19.5 8
s7.5 12 7.5 20c0 4 -0.333008 7.83301 -1 11.5s-1 7.5 -1 11.5c-0.666992 3.33301 -1.33398 7 -2.00098 11s-1 8 -1 12v310c0 15.333 -3.16699 26.666 -9.5 33.999s-13.5 13 -21.5 17c-1.33301 0.666992 -2.5 1.16699 -3.5 1.5s-1.83301 0.833008 -2.5 1.5
c-6.66699 3.33301 -12.5 7.33301 -17.5 12s-7.5 11.667 -7.5 21c0 23.333 14.333 42.5 43 57.5s60.334 26.833 95.001 35.5c24.667 6 48.167 10.333 70.5 13s39.5 4 51.5 4c11.333 0 19.333 -2.83301 24 -8.5s7 -15.834 7 -30.501v1zM196.004 667.002
c4.66699 -0.666992 9.83301 -1.16602 15.5 -1.49902s11.167 -0.833008 16.5 -1.5c16 -2.66699 30.667 -8.33398 44 -17.001s20 -22 20 -40c0 -26.667 -17.333 -49 -52 -67s-77.667 -27 -129 -27c-25.333 0 -46 5.5 -62 16.5s-24 25.5 -24 43.5c0 24.667 16.5 46 49.5 64
s73.5 27.667 121.5 29v1z" />
    <glyph glyph-name="space" unicode=" " 
 />
    <glyph glyph-name="space" unicode="&#xa0;" 
 />
    <glyph glyph-name="exclam" unicode="!" horiz-adv-x="308" 
d="M152 198c30.667 -0.666992 56.333 -11.001 77 -31.001s31 -45 31 -75c0 -29.333 -10.5 -54.166 -31.5 -74.499s-46.5 -30.5 -76.5 -30.5c-27.333 0 -51.333 10.167 -72 30.5s-31 43.833 -31 70.5c0 30.667 10 56.5 30 77.5s44.333 31.5 73 31.5v1zM152.999 659.999
c33.333 -0.666992 60.832 -14.335 82.499 -41.002s32.5 -60.667 32.5 -102c0 -9.33301 -0.333008 -18.666 -1 -27.999s-1.66699 -19 -3 -29c-5.33301 -34 -15 -67.5 -29 -100.5s-31.333 -62.167 -52 -87.5c-5.33301 -6.66699 -10.666 -11.667 -15.999 -15s-10.333 -5 -15 -5
c-8 0 -18 7.83301 -30 23.5s-24.667 37.834 -38 66.501c-4.66699 10 -9 20 -13 30s-7.66699 20.333 -11 31c-6.66699 20 -11.667 40 -15 60s-5 38.667 -5 56c0 42 10.333 75.833 31 101.5s48 38.5 82 38.5v1z" />
    <glyph glyph-name="quotedbl" unicode="&#x22;" horiz-adv-x="506" 
d="M162 388h-24c-14.667 -0.666992 -24 0.5 -28 3.5s-6.66699 12.167 -8 27.5v1.5v1.5l-20 210c-0.666992 4 -1 7.5 -1 10.5v5.5c0 7.33301 2 12 6 14s12.333 3 25 3l76 1c13.333 -0.666992 21.833 -2 25.5 -4s5.5 -6.66699 5.5 -14v-5.5c0 -3 -0.333008 -6.83301 -1 -11.5
l-20 -208v-2.5v-1.5c-1.33301 -15.333 -4 -24.5 -8 -27.5s-13.333 -4.5 -28 -4.5v1zM368 388h-24c-14.667 -0.666992 -24 0.5 -28 3.5s-6.66699 12.167 -8 27.5v1.5v1.5l-20 210c-0.666992 4 -1 7.5 -1 10.5v5.5c0 7.33301 1.83301 12 5.5 14s12.167 3 25.5 3l76 1
c13.333 -0.666992 21.833 -2 25.5 -4s5.5 -6.66699 5.5 -14v-5.5c0 -3 -0.333008 -6.83301 -1 -11.5l-20 -208v-2.5v-1.5c-1.33301 -15.333 -4 -24.5 -8 -27.5s-13.333 -4.5 -28 -4.5v1z" />
    <glyph glyph-name="numbersign" unicode="#" horiz-adv-x="600" 
d="M118 302l13.998 -0.991211c6.66699 -0.666992 11.667 2.83301 15 10.5s6 16.167 8 25.5c0.666992 6 1.16699 11.667 1.5 17s0.5 9.66602 0.5 12.999c0 4 -1.5 6.66699 -4.5 8s-9.16699 2 -18.5 2l-25 1c-12 -0.666992 -20.833 1.16602 -26.5 5.49902
s-8.5 11.166 -8.5 20.499v44c0 10.667 3.16699 18.167 9.5 22.5s17.5 6.5 33.5 6.5l29 1c12.667 -0.666992 20.667 0 24 2s6 8.66699 8 20c0 1.33301 0.166992 2.33301 0.5 3s0.5 1.66699 0.5 3l20 126c2 10.667 5.66699 19 11 25s12.333 9 21 9l56 1
c7.33301 -0.666992 13 -2.83398 17 -6.50098s6 -9.16699 6 -16.5v-3v-3c0 -1.33301 -0.166992 -2.5 -0.5 -3.5s-0.5 -2.16699 -0.5 -3.5l-21 -134l-1.5 -7.5c-0.333008 -1.66699 -0.5 -2.83398 -0.5 -3.50098c0 -4 1.33301 -6.5 4 -7.5s7.33398 -1.5 14.001 -1.5l38 1
c8.66699 -0.666992 14.167 -0.166992 16.5 1.5s4.16602 6.16699 5.49902 13.5c0.666992 0.666992 1 1.16699 1 1.5v1.5l21 136c2 10.667 5.66699 19 11 25s12.666 9 21.999 9l56 1c7.33301 -0.666992 12.833 -2.83398 16.5 -6.50098s5.5 -9.16699 5.5 -16.5v-3v-3
c0 -1.33301 -0.166992 -2.5 -0.5 -3.5s-0.5 -2.16699 -0.5 -3.5l-20 -124c-0.666992 -5.33301 -1.16699 -9.5 -1.5 -12.5s-0.5 -5.16699 -0.5 -6.5c0 -4.66699 1 -7.66699 3 -9s6.33301 -2 13 -2l18 1c18.667 -0.666992 31 -3.5 37 -8.5s9 -14.5 9 -28.5v-36
c0 -11.333 -2.66699 -18.833 -8 -22.5s-17.333 -5.5 -36 -5.5l-27 1c-12 -0.666992 -19.5 -1.66699 -22.5 -3s-5.16699 -5.66602 -6.5 -12.999c-0.666992 -0.666992 -1 -1.33398 -1 -2.00098v-2c-0.666992 -2.66699 -1.16699 -5.5 -1.5 -8.5s-0.833008 -6.16699 -1.5 -9.5
c-1.33301 -4.66699 -2.33301 -9.5 -3 -14.5s-1 -10.167 -1 -15.5c0 -4 1 -6.5 3 -7.5s6.33301 -1.5 13 -1.5l18 1c18.667 -0.666992 31.167 -3.5 37.5 -8.5s9.5 -14.5 9.5 -28.5v-36c0 -11.333 -2.83301 -18.833 -8.5 -22.5s-17.834 -5.5 -36.501 -5.5l-27 1
c-12 -0.666992 -19.5 -1.83398 -22.5 -3.50098s-5.16699 -6.5 -6.5 -14.5c-0.666992 -0.666992 -1 -1.33398 -1 -2.00098v-2l-24 -145c-1.33301 -12.667 -4.66602 -21.667 -9.99902 -27s-12.666 -8 -21.999 -8h-56c-7.33301 0 -13 1.83301 -17 5.5s-6 9.16699 -6 16.5v2.5
c0 1 0.333008 1.83301 1 2.5v3.5v3.5l24 147v3c0 1.33301 0.333008 2.33301 1 3v3v1c0 4 -1 6.66699 -3 8s-6.66699 2 -14 2l-39 1c-7.33301 -0.666992 -12.333 -1.66699 -15 -3s-4.66699 -5.33301 -6 -12c-0.666992 -0.666992 -1.16699 -1.66699 -1.5 -3
s-0.5 -2.66602 -0.5 -3.99902l-23 -145c-1.33301 -12.667 -4.66602 -21.667 -9.99902 -27s-12.666 -8 -21.999 -8h-56c-7.33301 0 -13 1.83301 -17 5.5s-6 9.16699 -6 16.5v2.5c0 1 0.333008 1.83301 1 2.5v3.5v3.5l23 147c0.666992 2 1.16699 4 1.5 6s0.5 3.33301 0.5 4
c0 4 -1.5 6.66699 -4.5 8s-9.16699 2 -18.5 2l-25 1c-12 -0.666992 -20.833 1.16602 -26.5 5.49902s-8.5 11.166 -8.5 20.499v44c0 10.667 3.16699 18.167 9.5 22.5s17.5 6.5 33.5 6.5l29 1v0zM265.998 359.009l-1.99902 -9.99902l-2 -10v-2.5
c0 -1 -0.333008 -1.83301 -1 -2.5l-2 -12c-0.666992 -4 -1 -8 -1 -12s1.16699 -6.5 3.5 -7.5s7.16602 -1.5 14.499 -1.5l38 1c8.66699 -0.666992 14.167 -0.333984 16.5 0.999023s4.16602 5.33301 5.49902 12c0 0.666992 0.166992 1.5 0.5 2.5s0.5 1.83301 0.5 2.5
c0.666992 2.66699 1.16699 5.5 1.5 8.5s0.833008 5.83301 1.5 8.5c1.33301 5.33301 2.33301 10.5 3 15.5s1 9.83301 1 14.5c0 4 -1 6.66699 -3 8s-6.66699 2 -14 2l-39 1c-8 -0.666992 -13.167 -1.66699 -15.5 -3s-4.16602 -5.33301 -5.49902 -12
c0 -0.666992 -0.166992 -1.5 -0.5 -2.5s-0.5 -1.83301 -0.5 -2.5v1z" />
    <glyph glyph-name="dollar" unicode="$" horiz-adv-x="600" 
d="M237 593l-0.00390625 22.9922c0 12.667 2.16699 21 6.5 25s12.833 6 25.5 6l41 1c13.333 -0.666992 22 -3 26 -7s6 -12.667 6 -26v-22c0 -5.33301 0.166992 -9 0.5 -11s1.16602 -3.66699 2.49902 -5l3.5 -3.5l3.5 -3.5c2 -0.666992 5.33301 -1.66699 10 -3
s10 -2.66602 16 -3.99902c1.33301 0 2.66602 -0.166992 3.99902 -0.5s3 -0.833008 5 -1.5l21.5 -4c7 -1.33301 11.5 -2 13.5 -2s4.16699 0.166992 6.5 0.5s4.5 1.16602 6.5 2.49902c0.666992 0 1.66699 0.166992 3 0.5s2.33301 0.833008 3 1.5
c3.33301 1.33301 6.66602 2.5 9.99902 3.5s6.66602 1.5 9.99902 1.5c15.333 0 30.333 -8 45 -24s26.334 -33.667 35.001 -53c4 -9.33301 7.33301 -18.666 10 -27.999s4 -17.666 4 -24.999c0 -18.667 -4.66699 -33.167 -14 -43.5s-21.666 -15.5 -36.999 -15.5
c-5.33301 0 -10.5 0.833008 -15.5 2.5s-9.83301 4.16699 -14.5 7.5c-8 4.66699 -15.667 10.334 -23 17.001l-24 21c-13.333 11.333 -28 22 -44 32s-34.333 15 -55 15c-16 0 -28.667 -3.83301 -38 -11.5s-14 -18.167 -14 -31.5c0 -8 1 -14.667 3 -20s7 -10.333 15 -15
c8 -5.33301 20 -10.666 36 -15.999s38 -12 66 -20c59.333 -18 102.666 -41.5 129.999 -70.5s41 -66.167 41 -111.5c0 -52.667 -21.167 -98.167 -63.5 -136.5s-89.166 -59.166 -140.499 -62.499c-9.33301 -1.33301 -15.166 -3.16602 -17.499 -5.49902
s-3.5 -8.16602 -3.5 -17.499v-23c0 -13.333 -2 -22 -6 -26s-12.667 -6 -26 -6h-41c-12.667 0 -21.167 2 -25.5 6s-6.5 12.667 -6.5 26v23c0 8.66699 -0.833008 14.334 -2.5 17.001s-5.5 4.33398 -11.5 5.00098c-27.333 3.33301 -53 8.5 -77 15.5s-42.667 14.5 -56 22.5
c-3.33301 2 -6.16602 3.83301 -8.49902 5.5s-4.16602 3.5 -5.49902 5.5c-7.33301 9.33301 -14.333 22 -21 38s-12 32.667 -16 50c-2 8.66699 -3.5 17.334 -4.5 26.001s-1.5 16.667 -1.5 24c0 13.333 3 24.166 9 32.499s13.667 12.5 23 12.5c10 0 18.5 -2.83301 25.5 -8.5
s13.833 -12.834 20.5 -21.501c4.66699 -5.33301 9 -11.166 13 -17.499s8.66699 -12.5 14 -18.5c12.667 -16.667 28.834 -32 48.501 -46s47.167 -21 82.5 -21c19.333 0 35.5 4.16699 48.5 12.5s19.5 18.5 19.5 30.5c0 5.33301 -0.5 10 -1.5 14s-3.83301 8 -8.5 12
c-6 4.66699 -16.667 10.167 -32 16.5s-38.666 14.833 -69.999 25.5c-57.333 20.667 -101.166 47.5 -131.499 80.5s-45.5 70.833 -45.5 113.5c0 41.333 9.66699 74.5 29 99.5s40.666 44.167 63.999 57.5c22.667 13.333 43.334 22.666 62.001 27.999s29 9 31 11l0.5 0.5
l0.5 0.5c0.666992 1.33301 1.16699 3 1.5 5s0.5 5.66699 0.5 11v1z" />
    <glyph glyph-name="percent" unicode="%" horiz-adv-x="811" 
d="M309 243l148 249.996l44.5 77c13.667 24.667 25.167 47 34.5 67c2 4 4 7.66699 6 11s4 6.33301 6 9c6 8.66699 12.333 14.5 19 17.5s15.334 4.5 26.001 4.5c16 0 27.667 -2 35 -6s11 -10 11 -18c0 -6 -5.83301 -19.167 -17.5 -39.5s-24.834 -41.833 -39.501 -64.5
c-0.666992 -1.33301 -1.5 -2.66602 -2.5 -3.99902s-1.83301 -2.33301 -2.5 -3l-32.5 -51.5l-23.5 -37.5l-151 -255c-5.33301 -10.667 -10.833 -20.834 -16.5 -30.501l-16.5 -29.5l-16.5 -29.5l-16.5 -29.5c-2.66699 -4.66699 -5.33398 -10.167 -8.00098 -16.5
s-5.66699 -12.5 -9 -18.5c-6.66699 -13.333 -14.167 -25.166 -22.5 -35.499s-19.166 -15.5 -32.499 -15.5c-16.667 0 -30.167 2.33301 -40.5 7s-15.5 11 -15.5 19c0 2.66699 6.66699 15.334 20 38.001l45 74c0 0.666992 0.333008 1.33398 1 2.00098s1 1.33398 1 2.00098
l41.5 65.5c13 20.333 21.167 33.5 24.5 39.5v1zM613 333.996c2 -0.666992 4.16699 -0.99707 6.5 -0.99707h7.5c42.667 -3.33301 81.834 -19.333 117.501 -48s53.5 -66.334 53.5 -113.001c0 -48.667 -20.167 -90.334 -60.5 -125.001s-88.833 -52 -145.5 -52
c-52.667 0 -95.834 14.667 -129.501 44s-50.5 66.666 -50.5 111.999c0 52 18.5 94.667 55.5 128s85.5 51.333 145.5 54v1zM588 257.999c-8.66699 -0.666992 -15.667 -4.16797 -21 -10.501s-8 -15.166 -8 -26.499c0 -6.66699 0.833008 -16.167 2.5 -28.5
s4.16699 -25.166 7.5 -38.499c4.66699 -18.667 11 -35.834 19 -51.501s18 -23.5 30 -23.5c9.33301 0 16.5 3.16699 21.5 9.5s7.5 15.833 7.5 28.5c0 36.667 -6 69.167 -18 97.5s-25.667 42.5 -41 42.5v1zM214 675.998c2 -0.666992 4.16602 -0.998047 6.49902 -0.998047h7.5
c42.667 -3.33301 81.834 -19.333 117.501 -48s53.5 -66.334 53.5 -113.001c0 -48.667 -20.167 -90.5 -60.5 -125.5s-88.833 -52.5 -145.5 -52.5c-52.667 0 -95.667 14.833 -129 44.5s-50 67.5 -50 113.5c0 51.333 18.333 93.666 55 126.999s85 51.333 145 54v1zM189.999 601
c-8.66699 -0.666992 -15.833 -4.33398 -21.5 -11.001s-8.5 -15.667 -8.5 -27c0 -6 0.833008 -15.333 2.5 -28s4.16699 -26 7.5 -40c4.66699 -18.667 11 -35.667 19 -51s18.333 -23 31 -23c9.33301 0 16.333 3.33301 21 10s7 16 7 28c0 36.667 -5.83301 69.334 -17.5 98.001
s-25.167 43 -40.5 43v1z" />
    <glyph glyph-name="ampersand" unicode="&#x26;" horiz-adv-x="869" 
d="M412 551c-2 0.666992 -3.99512 1.67188 -5.99512 3.00488l-6 4c-9.33301 6.66699 -19.166 12.667 -29.499 18s-21.5 8 -33.5 8c-16.667 0 -30.334 -6.16699 -41.001 -18.5s-16 -27.833 -16 -46.5c0 -22.667 5.33301 -37.5 16 -44.5s22.667 -11.833 36 -14.5
c0.666992 -0.666992 1.5 -1 2.5 -1s1.83301 -0.333008 2.5 -1c12 -2 22.667 -5.5 32 -10.5s14 -15.5 14 -31.5c0 -25.333 -8.83301 -43 -26.5 -53s-36.834 -16.667 -57.501 -20h-1.5h-1.5c-7.33301 -0.666992 -13 -4.83398 -17 -12.501s-6 -18.167 -6 -31.5
c0 -48.667 19 -93.5 57 -134.5s81.667 -61.5 131 -61.5c39.333 0 73.333 11.333 102 34s43 49.334 43 80.001c0 16.667 -6 30.5 -18 41.5s-27 16.5 -45 16.5c-14.667 0 -26.334 -3.66699 -35.001 -11s-16.334 -15.333 -23.001 -24
c-2 -2.66699 -3.83301 -5.33398 -5.5 -8.00098s-3.16699 -5.33398 -4.5 -8.00098c-4.66699 -5.33301 -9.16699 -10 -13.5 -14s-9.5 -6 -15.5 -6c-10.667 0 -20.167 7 -28.5 21s-12.5 29.333 -12.5 46c0 41.333 14 77.5 42 108.5s68.667 56.5 122 76.5
c19.333 7.33301 35.333 13.666 48 18.999s22.667 10.666 30 15.999s12.333 10.833 15 16.5s4 11.834 4 18.501c0 7.33301 -2.33301 13.333 -7 18s-10 7 -16 7c-2 0 -4 -0.333008 -6 -1l-6 -2l-6 -2c-2 -0.666992 -4 -1 -6 -1c-6 0 -11 2 -15 6s-6 9 -6 15
c0 16 6.83301 29.333 20.5 40s28.834 19 45.501 25c10.667 4 21.167 7 31.5 9s18.5 3 24.5 3c44 0 79.833 -11.5 107.5 -34.5s41.5 -52.5 41.5 -88.5c0 -30 -7.5 -55 -22.5 -75s-31.167 -36.667 -48.5 -50c-18 -13.333 -34.333 -24.333 -49 -33s-22.334 -17 -23.001 -25
v-0.5v-0.5c0 -4 3.83301 -8.66699 11.5 -14s15.834 -12.333 24.501 -21c9.33301 -8 17.666 -18.167 24.999 -30.5s11 -27.833 11 -46.5c0 -64.667 -38.833 -120.334 -116.5 -167.001s-170.5 -70 -278.5 -70c-46.667 0 -91.167 4.5 -133.5 13.5s-80.5 22.167 -114.5 39.5
c-35.333 18 -65.333 42.667 -90 74s-40.667 64 -48 98c-1.33301 6 -2.33301 12.167 -3 18.5s-1 12.5 -1 18.5c0 33.333 7.5 62.5 22.5 87.5s36.5 44.5 64.5 58.5l8.5 5c2.33301 1.33301 4.16602 3 5.49902 5c1.33301 1.33301 2.33301 2.66602 3 3.99902s1 3 1 5
c0 3.33301 -1.83301 8.5 -5.5 15.5s-7.5 15.167 -11.5 24.5c-2.66699 5.33301 -5.33398 11 -8.00098 17s-4.66699 12 -6 18c-1.33301 4.66699 -2.33301 9 -3 13s-1 8 -1 12c0 46.667 23.5 88 70.5 124s100.833 54 161.5 54c49.333 0 90.5 -8.83301 123.5 -26.5
s49.5 -39.167 49.5 -64.5c0 -14.667 -5.66699 -27.667 -17 -39s-24.333 -17 -39 -17c-4 0 -7.66699 0.5 -11 1.5s-6.33301 2.16699 -9 3.5v1z" />
    <glyph glyph-name="quotesingle" unicode="'" horiz-adv-x="300" 
d="M162 388h-24c-14.667 -0.666992 -24 0.5 -28 3.5s-6.66699 12.167 -8 27.5v1.5v1.5l-20 210c-0.666992 4 -1 7.5 -1 10.5v5.5c0 7.33301 2 12 6 14s12.333 3 25 3l76 1c13.333 -0.666992 21.833 -2 25.5 -4s5.5 -6.66699 5.5 -14v-5.5c0 -3 -0.333008 -6.83301 -1 -11.5
l-20 -208v-2.5v-1.5c-1.33301 -15.333 -4 -24.5 -8 -27.5s-13.333 -4.5 -28 -4.5v1z" />
    <glyph glyph-name="parenleft" unicode="(" horiz-adv-x="498" 
d="M436 580c-3.33301 0 -6.6709 0.166016 -10.0039 0.499023s-6.66602 0.833008 -9.99902 1.5c-3.33301 0 -6.66602 0.166992 -9.99902 0.5s-6.66602 0.5 -9.99902 0.5c-34 0 -59.5 -19.167 -76.5 -57.5s-29.167 -80.5 -36.5 -126.5
c-4.66699 -30.667 -7.66699 -60.167 -9 -88.5s-2 -51.166 -2 -68.499c0 -16.667 0.666992 -39.5 2 -68.5s4.66602 -58.833 9.99902 -89.5c8 -46 21.333 -88 40 -126s46.334 -57 83.001 -57h6c2.66699 0 5.66699 0.333008 9 1h7c2 0 3.33301 0.333008 4 1
c6.66699 0.666992 11.167 1 13.5 1h5.5h1v0c11.333 0 20 -4.16699 26 -12.5s9 -20.166 9 -35.499s-8.33301 -26.833 -25 -34.5s-41 -11.5 -73 -11.5c-93.333 0 -170.666 42 -231.999 126s-92 190 -92 318c0 127.333 28.167 229.5 84.5 306.5s131.166 115.5 224.499 115.5
c39.333 0 67.833 -4 85.5 -12s26.5 -21 26.5 -39c0 -14.667 -2.83301 -26.334 -8.5 -35.001s-13.5 -13 -23.5 -13c-2.66699 0 -5.66699 0.166992 -9 0.5s-6.66602 0.833008 -9.99902 1.5v1z" />
    <glyph glyph-name="parenright" unicode=")" horiz-adv-x="498" 
d="M62 -92c1.33301 0 2.83203 -0.165039 4.49902 -0.498047s3.5 -0.833008 5.5 -1.5l14.5 -2c5 -0.666992 9.83301 -1 14.5 -1c34.667 0 60.667 18.833 78 56.5s29.333 79.5 36 125.5c4.66699 31.333 7.5 61.333 8.5 90s1.5 51.334 1.5 68.001
c0 17.333 -0.666992 40.166 -2 68.499s-4.66602 58.166 -9.99902 89.499c-8 46 -21.167 88.167 -39.5 126.5s-45.833 57.5 -82.5 57.5c-4 0 -7.83301 -0.166992 -11.5 -0.5s-7.5 -0.5 -11.5 -0.5c-4 -0.666992 -7.83301 -1.16699 -11.5 -1.5s-7.5 -0.5 -11.5 -0.5
c-11.333 0 -20 4.16699 -26 12.5s-9 20.166 -9 35.499s8.33301 26.833 25 34.5s41 11.5 73 11.5c93.333 0 170.666 -42 231.999 -126s92 -190.333 92 -319c0 -127.333 -28.167 -229.333 -84.5 -306s-131.166 -115 -224.499 -115c-38.667 0 -67.167 4.16699 -85.5 12.5
s-27.5 21.166 -27.5 38.499c0 14.667 3 26.334 9 35.001s14 13 24 13h8.5c3 0 6.5 -0.333008 10.5 -1v0z" />
    <glyph glyph-name="asterisk" unicode="*" horiz-adv-x="600" 
d="M167 568c3.33301 -2 7.49902 -4.17285 12.499 -6.50586s10.5 -4.5 16.5 -6.5l4 -2c1.33301 -0.666992 3 -1.33398 5 -2.00098c6.66699 -2.66699 13.334 -5 20.001 -7s12 -3 16 -3c3.33301 0 5.5 1 6.5 3s1.5 5.33301 1.5 10c0 6 -0.166992 12.167 -0.5 18.5
s-0.5 12.833 -0.5 19.5s-0.166992 13.167 -0.5 19.5s-0.5 12.5 -0.5 18.5c0 19.333 2.83301 31.833 8.5 37.5s18.834 8.5 39.501 8.5c26.667 0 43.167 -2.5 49.5 -7.5s9.5 -17.833 9.5 -38.5c0 -6 -0.166992 -12.167 -0.5 -18.5s-0.5 -12.833 -0.5 -19.5
c-0.666992 -6.66699 -1.16699 -13.167 -1.5 -19.5s-0.5 -12.5 -0.5 -18.5c0 -4.66699 0.666992 -8 2 -10s3.33301 -3 6 -3c4 0 9.33301 1 16 3s13.667 4.33301 21 7l4 2l4 2c6 2 11.5 4.16699 16.5 6.5s9.16699 4.16602 12.5 5.49902c1.33301 0.666992 3 1.16699 5 1.5
s3.66699 0.833008 5 1.5c4.66699 1.33301 9.16699 2.5 13.5 3.5s7.83301 1.5 10.5 1.5c6.66699 0 12.5 -4.16699 17.5 -12.5s9.16699 -17.166 12.5 -26.499s5.83301 -17.833 7.5 -25.5s2.5 -12.167 2.5 -13.5c0 -6.66699 -2.33301 -12.167 -7 -16.5s-12.667 -8.5 -24 -12.5
c-1.33301 0 -2.83301 -0.333008 -4.5 -1s-3.5 -1.33398 -5.5 -2.00098l-64 -17l-3 -1.5l-3 -1.5c-2.66699 -0.666992 -4.66699 -1.66699 -6 -3s-2 -3.33301 -2 -6c0 -4.66699 3.5 -11.167 10.5 -19.5l23.5 -27.5c0.666992 -0.666992 1.33398 -1.5 2.00098 -2.5
s1.66699 -2.16699 3 -3.5c7.33301 -8.66699 13.833 -17.167 19.5 -25.5s8.5 -15.166 8.5 -20.499c0 -3.33301 -1.33301 -7.16602 -4 -11.499s-6.33398 -8.83301 -11.001 -13.5c-4 -4 -8.33301 -7.83301 -13 -11.5s-9.66699 -7.16699 -15 -10.5s-10.5 -6 -15.5 -8
s-9.5 -3 -13.5 -3s-8.5 2.16699 -13.5 6.5s-10.167 9.5 -15.5 15.5c-2.66699 4 -5.5 7.83301 -8.5 11.5s-5.83301 7.5 -8.5 11.5l-14.5 24c-4.33301 7.33301 -7.83301 13 -10.5 17c-2 2.66699 -3.66699 4.66699 -5 6l-3 3c-0.666992 0.666992 -1.33398 1 -2.00098 1h-2h-2
c-0.666992 0 -1.33398 -0.333008 -2.00098 -1l-3 -3c-1.33301 -1.33301 -3 -3.33301 -5 -6c-2.66699 -4 -6.16699 -9.66699 -10.5 -17l-14.5 -24c-3.33301 -5.33301 -7 -10.666 -11 -15.999s-8 -10.333 -12 -15c-4 -4 -8 -7.33301 -12 -10s-7.66699 -4 -11 -4
c-4 0 -8.66699 1.16699 -14 3.5s-11 5.5 -17 9.5c-4.66699 2.66699 -9.16699 5.83398 -13.5 9.50098s-8.5 7.5 -12.5 11.5c-4 4.66699 -7.33301 9 -10 13s-4 7.66699 -4 11c0 2.66699 1.5 6.83398 4.5 12.501s6.83301 11.834 11.5 18.501
c0.666992 0.666992 1.16699 1.33398 1.5 2.00098s0.833008 1.33398 1.5 2.00098l41 54c2.66699 2 4.33398 4 5.00098 6s1 3.33301 1 4c0 2.66699 -2.5 5.16699 -7.5 7.5s-11.167 4.83301 -18.5 7.5l-16 4c-5.33301 1.33301 -11 2.66602 -17 3.99902
c-14.667 4 -28.167 9 -40.5 15s-18.5 13.667 -18.5 23c0 2.66699 0.5 6 1.5 10s1.83301 8.33301 2.5 13l2 6l2 6c0.666992 2.66699 1.5 5.33398 2.5 8.00098l3.5 9c2 6.66699 5 12.667 9 18s9.66699 8 17 8c2.66699 0 6.33398 -0.5 11.001 -1.5
s9.33398 -2.16699 14.001 -3.5c1.33301 -0.666992 2.66602 -1.16699 3.99902 -1.5s2.66602 -0.833008 3.99902 -1.5v1z" />
    <glyph glyph-name="plus" unicode="+" horiz-adv-x="600" 
d="M103 343l104.999 0.000976562c10 -0.666992 16.667 -0.833984 20 -0.500977s6 1.16602 8 2.49902l1.5 1.5l0.5 0.5l1.5 1.5c0.333008 0.333008 0.5 0.833008 0.5 1.5c1.33301 2 2.16602 4.66699 2.49902 8s0.5 9.66602 0.5 18.999v108c0 10.667 2.33301 18.834 7 24.501
s11.334 8.5 20.001 8.5l61 1c9.33301 -0.666992 16.166 -3.83398 20.499 -9.50098s6.5 -14.167 6.5 -25.5v-106c0 -10.667 0.166992 -17.667 0.5 -21s1.16602 -6 2.49902 -8l1.5 -1.5l0.5 -0.5l0.5 -0.5l1.5 -1.5c2 -1.33301 4.66699 -2.16602 8 -2.49902s10 -0.5 20 -0.5
l104 1c16.667 -0.666992 28.167 -3.16699 34.5 -7.5s9.5 -12.166 9.5 -23.499v-54c0 -11.333 -3.16699 -19.333 -9.5 -24s-17.833 -7 -34.5 -7l-104 1c-10 -0.666992 -16.667 -1.16699 -20 -1.5s-6 -1.16602 -8 -2.49902l-1.5 -1.5l-0.5 -0.5l-1.5 -1.5
c-0.333008 -0.333008 -0.5 -0.833008 -0.5 -1.5c-1.33301 -2 -2.16602 -4.66699 -2.49902 -8s-0.5 -9.66602 -0.5 -18.999v-105c0 -12.667 -2.16699 -21.834 -6.5 -27.501s-11.166 -8.5 -20.499 -8.5l-61 1c-8.66699 -0.666992 -15.334 1.83301 -20.001 7.5s-7 14.5 -7 26.5
v107c0 9.33301 -0.166992 15.666 -0.5 18.999s-1.16602 6 -2.49902 8l-1.5 1.5l-0.5 0.5l-1.5 1.5c-0.333008 0.333008 -0.833008 0.5 -1.5 0.5c-2 1.33301 -4.66699 2.16602 -8 2.49902s-9.66602 0.5 -18.999 0.5l-105 1c-16 -0.666992 -27.167 1.33301 -33.5 6
s-9.5 12.334 -9.5 23.001v56c0 10.667 3.16699 18.167 9.5 22.5s17.5 6.5 33.5 6.5v1z" />
    <glyph glyph-name="comma" unicode="," horiz-adv-x="300" 
d="M116 -5c-26 10.667 -47.166 24.667 -63.499 42s-24.5 41.333 -24.5 72s11.167 57.334 33.5 80.001s48.5 34 78.5 34c37.333 0 67.833 -15 91.5 -45s35.5 -68.333 35.5 -115c0 -12.667 -1.83301 -28.5 -5.5 -47.5s-8.83398 -38.833 -15.501 -59.5
c-11.333 -32.667 -26.5 -62.834 -45.5 -90.501s-41.5 -41.5 -67.5 -41.5c-2 0 -3.83301 0.166992 -5.5 0.5s-3.16699 0.5 -4.5 0.5c-9.33301 2 -17.833 6 -25.5 12s-11.5 14 -11.5 24c0 6 2.33301 13.167 7 21.5l16 27.5c3.33301 5.33301 6.5 11 9.5 17s5.83301 12 8.5 18
c1.33301 4 2.5 8.33301 3.5 13s1.5 9 1.5 13c0 6.66699 -1 11.667 -3 15s-6.33301 6.33301 -13 9v0z" />
    <glyph glyph-name="hyphen" unicode="-" horiz-adv-x="284" 
d="M0 194c0 7.33301 1.16895 17.168 3.50195 29.501s5.83301 25.166 10.5 38.499c6.66699 21.333 16.167 40.833 28.5 58.5s26.5 26.5 42.5 26.5c10 0 19.833 -0.333008 29.5 -1s19.5 -1.66699 29.5 -3c9.33301 -0.666992 18.833 -1.5 28.5 -2.5s19.5 -1.5 29.5 -1.5
c5.33301 0 10.833 0.333008 16.5 1l16.5 2c5.33301 0 10.833 0.333008 16.5 1s11.167 1 16.5 1s9.33301 -1.83301 12 -5.5s4 -9.16699 4 -16.5c0 -6.66699 -1.33301 -17 -4 -31s-6.33398 -28.667 -11.001 -44c-6 -20 -14 -38.5 -24 -55.5s-21.333 -25.5 -34 -25.5
c-10 0 -20.167 0.5 -30.5 1.5s-20.5 2.16699 -30.5 3.5s-20.167 2.5 -30.5 3.5s-20.5 1.5 -30.5 1.5c-6 0 -11.833 -0.166992 -17.5 -0.5s-11.167 -0.5 -16.5 -0.5c-5.33301 -0.666992 -10.833 -1.16699 -16.5 -1.5s-11.5 -0.5 -17.5 -0.5
c-6.66699 0 -11.834 1.66699 -15.501 5s-5.5 8.33301 -5.5 15v1z" />
    <glyph glyph-name="period" unicode="." horiz-adv-x="300" 
d="M265 102c0 -32 -11.333 -59.166 -34 -81.499s-49.667 -33.5 -81 -33.5s-58.333 11.167 -81 33.5s-34 49.166 -34 80.499c0 32 11.333 59.333 34 82s49.667 34 81 34s58.333 -11.333 81 -34s34 -50 34 -82v1z" />
    <glyph glyph-name="slash" unicode="/" horiz-adv-x="472" 
d="M232 463c2.66699 5.33301 5.16895 11.167 7.50195 17.5s4.5 12.5 6.5 18.5l15.5 37.5l15.5 36.5c0 0.666992 0.166992 1.16699 0.5 1.5s0.5 0.833008 0.5 1.5c2.66699 6.66699 5.16699 13.334 7.5 20.001l6.5 19c6 17.333 13 31.833 21 43.5s21.667 17.5 41 17.5
c24.667 0 44 -3.5 58 -10.5s21 -16.5 21 -28.5c0 -5.33301 -1 -11.333 -3 -18s-5 -13.667 -9 -21c-15.333 -28.667 -30 -57.667 -44 -87l-41 -88l-176 -399l-29.5 -69c-8.33301 -19.333 -14.5 -34.666 -18.5 -45.999c-8.66699 -22.667 -15.834 -40.667 -21.501 -54
s-10.834 -23.333 -15.501 -30c-5.33301 -6.66699 -10.833 -10.834 -16.5 -12.501s-13.167 -2.5 -22.5 -2.5c-21.333 0 -39.333 4.16699 -54 12.5s-22 18.166 -22 29.499c0 6.66699 2 15 6 25s8.66699 20.333 14 31l4 8l4 8l12.5 23.5l9.5 18.5l46 95l176 402v0z" />
    <glyph glyph-name="zero" unicode="0" horiz-adv-x="600" 
d="M284 564c81.333 -0.666992 150.167 -29.666 206.5 -86.999s84.5 -127.333 84.5 -210c0 -78.667 -26.667 -145 -80 -199s-119 -81 -197 -81s-143 27.667 -195 83s-78 124.666 -78 207.999c0 84 24 152.5 72 205.5s110.333 79.5 187 79.5v1zM276.001 418.001
c-14 -0.666992 -24.668 -7.66797 -32.001 -21.001s-11 -32.666 -11 -57.999c0 -9.33301 0.833008 -23.333 2.5 -42s4.5 -38.334 8.5 -59.001c6 -28 14.333 -53.5 25 -76.5s25 -34.5 43 -34.5c14.667 0 25.667 6.83301 33 20.5s11 33.834 11 60.501
c0 10 -0.666992 23.833 -2 41.5s-4 36.167 -8 55.5c-4.66699 28 -12.667 53.667 -24 77s-26.666 35 -45.999 35v1z" />
    <glyph glyph-name="one" unicode="1" horiz-adv-x="600" 
d="M183 226l1 138.001c0 18 -3.5 30.333 -10.5 37s-20.167 10 -39.5 10c-2.66699 0 -5.5 -0.166992 -8.5 -0.5s-6.16699 -0.5 -9.5 -0.5c-2.66699 0 -5.5 -0.166992 -8.5 -0.5s-6.16699 -0.5 -9.5 -0.5c-10.667 0 -19.5 2.83301 -26.5 8.5s-10.5 12.834 -10.5 21.501
c0 24.667 19.167 45.167 57.5 61.5s80.5 29.166 126.5 38.499c35.333 7.33301 69.166 12.5 101.499 15.5s55.5 4.5 69.5 4.5c26.667 0 46.5 -3.33301 59.5 -10s19.5 -17 19.5 -31c0 -6.66699 -0.833008 -12 -2.5 -16s-5.16699 -7.66699 -10.5 -11
c-2 -1.33301 -4.66699 -2.83301 -8 -4.5l-11 -5.5c-15.333 -6.66699 -25.666 -15 -30.999 -25s-8.33301 -26.667 -9 -50v-26.5v-27.5c-0.666992 -8.66699 -1 -17.5 -1 -26.5v-27.5c0 -55.333 1.33301 -97.833 4 -127.5s7 -49.5 13 -59.5
c5.33301 -8.66699 13 -14.334 23 -17.001s20.333 -4.66699 31 -6h3.5h2.5c14 -1.33301 26.667 -4 38 -8s17 -13.667 17 -29c0 -13.333 -4.83301 -23.833 -14.5 -31.5s-26.167 -13.834 -49.5 -18.501c-20 -3.33301 -40.5 -6.16602 -61.5 -8.49902
s-41.833 -3.83301 -62.5 -4.5c-10 -0.666992 -20.167 -1.16699 -30.5 -1.5s-20.833 -0.5 -31.5 -0.5c-10 0 -27 0.5 -51 1.5s-49.667 3.5 -77 7.5c-34 3.33301 -65.167 9.83301 -93.5 19.5s-42.5 23.5 -42.5 41.5c0 10.667 4.16699 19.667 12.5 27s18.5 11 30.5 11
c4 0 8.16699 -0.333008 12.5 -1l12.5 -2l12 -2c4 -0.666992 8 -1 12 -1c20.667 0 34.167 8.66699 40.5 26s9.83301 54.333 10.5 111v1z" />
    <glyph glyph-name="two" unicode="2" horiz-adv-x="600" 
d="M385 0l-331.999 -0.00390625c-14.667 0 -25.667 1.83301 -33 5.5s-11 9.83398 -11 18.501c0 12 12.167 29.5 36.5 52.5l80.5 77.5l47.5 51c15.667 17.333 29.167 35 40.5 53c8.66699 14 15.5 27.667 20.5 41s7.5 26.666 7.5 39.999c0 16.667 -4.66699 29.834 -14 39.501
s-22.333 14.5 -39 14.5c-13.333 0 -24.833 -2.83301 -34.5 -8.5s-18.5 -11.834 -26.5 -18.501l-3.5 -3.5l-3.5 -3.5c-6.66699 -5.33301 -13.667 -10.166 -21 -14.499s-15.666 -6.5 -24.999 -6.5c-2 0 -4.16699 0.166992 -6.5 0.5s-4.5 0.833008 -6.5 1.5
c-12 2.66699 -23.167 9 -33.5 19s-15.5 21.333 -15.5 34c0 8 1.83301 16.167 5.5 24.5s8.83398 16.833 15.501 25.5c5.33301 6.66699 11.666 13.334 18.999 20.001s15.666 13.334 24.999 20.001c27.333 20 56.833 36.167 88.5 48.5s63.834 20.5 96.501 24.5
c8 1.33301 15.833 2.16602 23.5 2.49902s15.167 0.5 22.5 0.5c69.333 0 124.666 -13.5 165.999 -40.5s62 -63.167 62 -108.5c0 -30 -8.33301 -57.333 -25 -82s-35 -46.667 -55 -66c-20 -20 -38.333 -37.333 -55 -52s-25 -27 -25 -37c0 -10.667 4 -19.167 12 -25.5
s18.333 -9.5 31 -9.5c16 0 29.667 3 41 9s21 12.667 29 20c6.66699 5.33301 12.834 10.5 18.501 15.5s10.834 8.5 15.501 10.5c2 0.666992 3.66699 1.16699 5 1.5s2.66602 0.5 3.99902 0.5c14 0 24.167 -5.16699 30.5 -15.5s10.5 -21.5 12.5 -33.5
c0.666992 -4 1.16699 -8 1.5 -12s0.5 -7.66699 0.5 -11c0 -9.33301 -1 -20.166 -3 -32.499s-5.33301 -25.166 -10 -38.499c-8 -24.667 -19.833 -47.167 -35.5 -67.5s-35.167 -30.5 -58.5 -30.5c-5.33301 0 -9.83301 0.666992 -13.5 2s-7.16699 3.33301 -10.5 6
c-2 2 -4 4.33301 -6 7s-4.33301 6 -7 10c-0.666992 1.33301 -1.33398 2.5 -2.00098 3.5s-1.33398 1.83301 -2.00098 2.5c-4.66699 6 -10 10 -16 12s-15.667 3 -29 3v0z" />
    <glyph glyph-name="three" unicode="3" horiz-adv-x="600" 
d="M75 25c2.66699 -1.33301 5.50195 -2.33301 8.50195 -3s5.83301 -1.33398 8.5 -2.00098c12 -2.66699 23.833 -5 35.5 -7s23.5 -3 35.5 -3c40 0 72.167 8.66699 96.5 26s36.5 40.333 36.5 69c0 22 -9.33301 40.333 -28 55s-42.667 22 -72 22
c-6.66699 0 -13.167 -0.5 -19.5 -1.5s-12.5 -2.16699 -18.5 -3.5c-5.33301 -1.33301 -10.666 -2.5 -15.999 -3.5s-10.333 -1.5 -15 -1.5c-6.66699 0 -12.834 4.16699 -18.501 12.5s-10.167 17.5 -13.5 27.5c-2.66699 7.33301 -4.66699 14.333 -6 21s-2 11.667 -2 15
c0 8 3 13.833 9 17.5s12.333 6.5 19 8.5l6 2l6 2c1.33301 0 2.5 0.166992 3.5 0.5s2.16699 0.833008 3.5 1.5c15.333 5.33301 29.666 13.333 42.999 24s23.333 21.667 30 33c2.66699 4.66699 4.66699 9.33398 6 14.001s2 9 2 13c0 20.667 -7.16699 37.5 -21.5 50.5
s-32.833 19.5 -55.5 19.5c-10.667 0 -20.334 -1.66699 -29.001 -5s-16.667 -7 -24 -11l-20.5 -11c-6.33301 -3.33301 -12.5 -5 -18.5 -5c-8 0 -14.667 3.33301 -20 10s-9.33301 14.334 -12 23.001c-1.33301 3.33301 -2.33301 6.83301 -3 10.5s-1 6.83398 -1 9.50098
c0 21.333 13.167 39.333 39.5 54s55.5 26 87.5 34c22 5.33301 43.333 9.33301 64 12s36.667 4 48 4c73.333 0 131.333 -11.5 174 -34.5s64 -54.5 64 -94.5c0 -18 -3.66699 -33.167 -11 -45.5s-15.333 -22.5 -24 -30.5c-8 -7.33301 -15.5 -13.666 -22.5 -18.999
s-11.167 -10.666 -12.5 -15.999c-0.666992 0 -1 -0.333008 -1 -1v-2c0 -4.66699 2.33301 -8.33398 7 -11.001s11 -5.33398 19 -8.00098c7.33301 -2.66699 15.666 -5.33398 24.999 -8.00098s19 -6 29 -10c19.333 -8.66699 37.333 -22.667 54 -42s25 -49 25 -89
c0 -74.667 -33.167 -134.834 -99.5 -180.501s-153.166 -68.5 -260.499 -68.5c-64 0 -116 7.16699 -156 21.5s-60 33.166 -60 56.499c0 14.667 5 26.667 15 36s22.333 14 37 14c4 0 8 -0.166992 12 -0.5s8 -1.16602 12 -2.49902v1z" />
    <glyph glyph-name="four" unicode="4" horiz-adv-x="600" 
d="M299 -60l-0.000976562 50.998c0 12.667 -2.5 21.667 -7.5 27s-14.167 8 -27.5 8l-190 1c-22.667 -0.666992 -38.667 3.83301 -48 13.5s-14 25.834 -14 48.501c0 28 4.16699 52 12.5 72s19.166 39.333 32.499 58c6.66699 8.66699 13.834 17.5 21.501 26.5l23.5 28.5
l124 150c6.66699 7.33301 13.667 15.5 21 24.5l22 26.5c26 30.667 54.833 58.667 86.5 84s67.834 38 108.501 38c17.333 0 29.666 -4 36.999 -12s11 -21.667 11 -41v-336c0 -10.667 1.33301 -18 4 -22s7.66699 -6 15 -6l20 1c8.66699 -0.666992 14.834 -3.16699 18.501 -7.5
s5.5 -11.5 5.5 -21.5v-98c0 -10 -2 -17.167 -6 -21.5s-10.667 -7.16602 -20 -8.49902c-12 -0.666992 -19.333 -2.5 -22 -5.5s-4 -9.83301 -4 -20.5v-58c0 -11.333 -2.16699 -19.5 -6.5 -24.5s-11.5 -7.5 -21.5 -7.5h-167c-9.33301 0 -16.5 1.66699 -21.5 5
s-7.5 8.33301 -7.5 15v12v0zM220.999 167.998l34.001 -0.998047c21.333 -0.666992 34.666 1.16602 39.999 5.49902s8.33301 14.833 9 31.5c1.33301 18.667 2.16602 37.167 2.49902 55.5s0.5 36.833 0.5 55.5c0 14.667 -2 25.667 -6 33s-10.333 11 -19 11
c-1.33301 0 -2.83301 -0.166992 -4.5 -0.5s-3.16699 -0.5 -4.5 -0.5c-4.66699 -2 -9.16699 -4.5 -13.5 -7.5s-8.5 -6.83301 -12.5 -11.5l-75 -92c-12 -15.333 -20.5 -27.333 -25.5 -36s-7.5 -16.334 -7.5 -23.001s3.83301 -11.5 11.5 -14.5s20.834 -5.16699 39.501 -6.5
l31 1v0z" />
    <glyph glyph-name="five" unicode="5" horiz-adv-x="600" 
d="M182 553l347.003 0.00292969c13.333 -0.666992 22.166 -3.83398 26.499 -9.50098s6.5 -16.5 6.5 -32.5c0 -36 -7.83301 -66.667 -23.5 -92s-34.834 -38 -57.501 -38l-221 1c-12.667 -0.666992 -22 -3.33398 -28 -8.00098s-9 -12.334 -9 -23.001c0 -8 3 -13.5 9 -16.5
s18.333 -5.5 37 -7.5c93.333 -9.33301 166.5 -31.833 219.5 -67.5s79.5 -80.167 79.5 -133.5c0 -64.667 -33.167 -119.167 -99.5 -163.5s-148.166 -66.5 -245.499 -66.5c-58 0 -103.333 6.66699 -136 20s-49 31.666 -49 54.999c0 15.333 2.66699 28.333 8 39
s11.666 16 18.999 16c5.33301 0 12.166 -1 20.499 -3s17.166 -4 26.499 -6l15.5 -4c5 -1.33301 10.167 -2.33301 15.5 -3c4.66699 -0.666992 9.66699 -1.33398 15 -2.00098s10.333 -1 15 -1c28 0 50.333 6 67 18s25 27.667 25 47c0 22.667 -12.167 42.334 -36.5 59.001
s-58.166 28.334 -101.499 35.001c-12 2 -22.5 3.83301 -31.5 5.5l-24.5 4.5c-17.333 4.66699 -28.333 9.5 -33 14.5s-7 12.5 -7 22.5c0 16.667 3.33301 38.5 10 65.5s15 55.167 25 84.5l10 28.5l10 28.5l21 52.5c6.66699 16.333 12.667 30.166 18 41.499
c0.666992 2 1.5 3.83301 2.5 5.5s1.83301 3.5 2.5 5.5c6 10.667 12.667 17.834 20 21.501s18 5.5 32 5.5v1z" />
    <glyph glyph-name="six" unicode="6" horiz-adv-x="600" 
d="M360 556c-4 -5.33301 -8.33301 -10.335 -13 -15.002s-9.33398 -9.66699 -14.001 -15c-12.667 -14.667 -24.5 -30.334 -35.5 -47.001s-16.5 -34.334 -16.5 -53.001c0 -4.66699 1.5 -8.66699 4.5 -12s6.5 -5 10.5 -5c6 0 13.167 1.33301 21.5 4s17.166 5.66699 26.499 9
c7.33301 2 14.833 4.16699 22.5 6.5s15.5 3.83301 23.5 4.5c2 0.666992 4.16699 1 6.5 1h6.5c54 0 98.5 -18.167 133.5 -54.5s52.5 -82.166 52.5 -137.499c0 -10 -0.833008 -20 -2.5 -30s-3.83398 -20.333 -6.50098 -31c-6.66699 -22 -16.5 -43.833 -29.5 -65.5
s-28.167 -40.834 -45.5 -57.501c-26 -24.667 -54.667 -42.667 -86 -54s-67.666 -17 -108.999 -17c-79.333 0 -148 25.667 -206 77s-87 118.333 -87 201c0 12 0.666992 23.833 2 35.5s3.33301 23.5 6 35.5c5.33301 26 13.5 51.833 24.5 77.5s24.5 49.834 40.5 72.501
c5.33301 8 12.333 17.833 21 29.5s18.334 23.834 29.001 36.501c5.33301 6.66699 11 13.334 17 20.001s12 13 18 19c12 12.667 23.833 23.167 35.5 31.5s22.167 12.5 31.5 12.5c6 0 14.5 -1.16699 25.5 -3.5s22.5 -5.5 34.5 -9.5c12.667 -4 24.834 -8.66699 36.501 -14
s20.5 -11 26.5 -17c2 -2 3.66699 -4 5 -6s2 -4 2 -6c0 -1.33301 -0.5 -3.5 -1.5 -6.5s-2.5 -5.83301 -4.5 -8.5c-0.666992 -2 -1.5 -3.66699 -2.5 -5s-2.16699 -2.66602 -3.5 -3.99902v1zM295 296.998c-14 -0.666992 -25.166 -6.16895 -33.499 -16.502
s-12.5 -24.5 -12.5 -42.5c0 -6 0.666992 -12.667 2 -20s3.33301 -14.666 6 -21.999c6.66699 -19.333 17.167 -37.166 31.5 -53.499s31.166 -24.5 50.499 -24.5c12 0 22 4.16699 30 12.5s12 18.833 12 31.5c0 34 -8.83301 64.833 -26.5 92.5s-37.5 41.5 -59.5 41.5v1z" />
    <glyph glyph-name="seven" unicode="7" horiz-adv-x="600" 
d="M572 496l-198.999 -600.998c-2.66699 -8 -7.5 -13.5 -14.5 -16.5s-19.167 -4.5 -36.5 -4.5c-4.66699 0 -14 0.666992 -28 2s-28.667 3.66602 -44 6.99902c-19.333 3.33301 -36.833 8.66602 -52.5 15.999s-23.5 16.666 -23.5 27.999c0 1.33301 0.333008 3 1 5
s1.66699 4.33301 3 7l182 349c6.66699 12.667 11.667 23.167 15 31.5s5 14.833 5 19.5c0 13.333 -7.33301 22.166 -22 26.499s-42.667 6.5 -84 6.5c-44 0 -75 -1.83301 -93 -5.5s-31 -11.167 -39 -22.5c-2.66699 -4 -5.5 -7.66699 -8.5 -11s-5.5 -6 -7.5 -8
c-5.33301 -4.66699 -10.833 -7.83398 -16.5 -9.50098s-12.834 -2.5 -21.501 -2.5c-22 0 -39 9.5 -51 28.5s-18 45.5 -18 79.5c0 43.333 8.33301 80.5 25 111.5s36.667 46.5 60 46.5c4.66699 0 9.16699 -0.5 13.5 -1.5s8.83301 -2.5 13.5 -4.5
c8 -3.33301 14.5 -6.16602 19.5 -8.49902s9.83301 -4.16602 14.5 -5.49902c6 -2 12.5 -3.5 19.5 -4.5s17.167 -1.5 30.5 -1.5l314 1c15.333 -0.666992 27 -4.16699 35 -10.5s12 -15.166 12 -26.499c0 -3.33301 -0.333008 -6.83301 -1 -10.5s-1.66699 -7.5 -3 -11.5v1z" />
    <glyph glyph-name="eight" unicode="8" horiz-adv-x="600" 
d="M276 619c93.333 -0.666992 167.168 -14.9941 221.501 -42.9941s81.5 -65.667 81.5 -113c0 -20 -4.33301 -36.333 -13 -49s-18 -23 -28 -31c-9.33301 -7.33301 -17.833 -13.5 -25.5 -18.5s-12.834 -9.83301 -15.501 -14.5c0 -0.666992 -0.166992 -1.5 -0.5 -2.5
s-0.5 -1.83301 -0.5 -2.5c0 -2.66699 4.83301 -7.66699 14.5 -15s20.5 -17 32.5 -29c11.333 -12.667 21.833 -27.834 31.5 -45.501s14.5 -38.834 14.5 -63.501c0 -6 -0.333008 -11.833 -1 -17.5s-1.66699 -11.5 -3 -17.5c-5.33301 -22 -15.166 -43.5 -29.499 -64.5
s-31.5 -39.167 -51.5 -54.5c-23.333 -16.667 -50 -29.334 -80 -38.001s-63.667 -13 -101 -13c-93.333 0 -168.833 17.5 -226.5 52.5s-86.5 81.167 -86.5 138.5c0 19.333 4.16699 36.166 12.5 50.499s17.5 26.833 27.5 37.5c10 10 19.167 18.167 27.5 24.5
s12.5 11.166 12.5 14.499c0 2 -3.33301 6.66699 -10 14s-14 17 -22 29c-8.66699 11.333 -16.334 24.333 -23.001 39s-10 30.667 -10 48c0 51.333 24.167 94.666 72.5 129.999s107.833 53 178.5 53v1zM359.002 132.006c0 9.33301 -2.16699 18.001 -6.5 26.001
s-11.5 15.667 -21.5 23c-7.33301 5.33301 -16 10.5 -26 15.5s-21.667 10.5 -35 16.5c-22.667 9.33301 -38.834 15.666 -48.501 18.999s-17.834 5 -24.501 5c-7.33301 0 -13.166 -3.5 -17.499 -10.5s-6.5 -16.5 -6.5 -28.5c0 -30 12.333 -56.333 37 -79
s53.334 -34 86.001 -34c18 0 33 4.5 45 13.5s18 19.833 18 32.5v1zM263.002 489.007c0 -4 0.666016 -7.83301 1.99902 -11.5s3 -7.16699 5 -10.5c5.33301 -8 12.5 -15.833 21.5 -23.5s18.5 -14.167 28.5 -19.5c8 -4.66699 15.833 -8.33398 23.5 -11.001s14.167 -4 19.5 -4
c8.66699 0 16.334 5.66699 23.001 17s10 24.333 10 39c0 18.667 -7.66699 33.834 -23 45.501s-35.333 17.5 -60 17.5c-14.667 0 -26.667 -3.83301 -36 -11.5s-14 -17.167 -14 -28.5v1z" />
    <glyph glyph-name="nine" unicode="9" horiz-adv-x="600" 
d="M180 -39l12.5039 8.50098c4.33301 3 8.5 6.16699 12.5 9.5c18.667 14 35.667 31 51 51s23 41.333 23 64c0 6 -1.66699 10.667 -5 14s-8.33301 5 -15 5c-4 0 -7.83301 -0.166992 -11.5 -0.5s-7.16699 -0.833008 -10.5 -1.5s-6.83301 -1.16699 -10.5 -1.5
s-7.5 -0.5 -11.5 -0.5c-62 0 -111.333 22.333 -148 67s-55 96.667 -55 156c0 76.667 28.667 133.667 86 171s120.666 56 189.999 56c89.333 0 160.5 -20.833 213.5 -62.5s79.5 -97.5 79.5 -167.5c0 -16 -1 -31.833 -3 -47.5s-4.66699 -31.167 -8 -46.5
c-6 -22 -13.833 -44.167 -23.5 -66.5s-21.5 -45.5 -35.5 -69.5c-6 -10.667 -15.833 -25.667 -29.5 -45s-29.167 -39.333 -46.5 -60l-25 -29c-8.66699 -10 -17.334 -19.333 -26.001 -28c-18 -17.333 -35.333 -32 -52 -44s-31.334 -18 -44.001 -18
c-4.66699 0 -12.667 1.5 -24 4.5s-23.333 7.16699 -36 12.5c-12 5.33301 -23.5 11.166 -34.5 17.499s-19.167 12.833 -24.5 19.5c-1.33301 1.33301 -2.33301 3 -3 5s-1 4 -1 6c0 1.33301 0.166992 2.5 0.5 3.5s0.833008 2.16699 1.5 3.5
c0.666992 2.66699 2.16699 5.16699 4.5 7.5s5.16602 4.5 8.49902 6.5v0zM290.004 421.001c-14 -0.666992 -25.666 -6.83398 -34.999 -18.501s-14 -26.167 -14 -43.5c0 -33.333 8 -62.166 24 -86.499s35.333 -36.5 58 -36.5c13.333 0 24.166 4.83301 32.499 14.5
s12.5 22.167 12.5 37.5c0 34 -8 64.5 -24 91.5s-34 40.5 -54 40.5v1z" />
    <glyph glyph-name="colon" unicode=":" horiz-adv-x="300" 
d="M150 218c32.667 -0.666992 60 -12.167 82 -34.5s33 -50.166 33 -83.499c0 -30.667 -11.333 -57.167 -34 -79.5s-49.667 -33.5 -81 -33.5s-58.333 11.167 -81 33.5s-34 48.833 -34 79.5c0 33.333 11 61.166 33 83.499s49.333 33.5 82 33.5v1zM150 500
c32.667 -0.666992 60 -12.167 82 -34.5s33 -50.166 33 -83.499c0 -30.667 -11.333 -57.334 -34 -80.001s-49.667 -34 -81 -34s-58.333 11.333 -81 34s-34 49.334 -34 80.001c0 33.333 11 61.166 33 83.499s49.333 33.5 82 33.5v1z" />
    <glyph glyph-name="semicolon" unicode=";" horiz-adv-x="300" 
d="M115 -5c-26 10.667 -47.166 24.667 -63.499 42s-24.5 41.333 -24.5 72s11.167 57.334 33.5 80.001s48.5 34 78.5 34c37.333 0 67.833 -15 91.5 -45s35.5 -68.333 35.5 -115c0 -12.667 -1.83301 -28.5 -5.5 -47.5s-8.83398 -38.833 -15.501 -59.5
c-11.333 -32.667 -26.5 -62.834 -45.5 -90.501s-41.5 -41.5 -67.5 -41.5c-2 0 -3.83301 0.166992 -5.5 0.5s-3.16699 0.5 -4.5 0.5c-9.33301 2 -17.833 6 -25.5 12s-11.5 14 -11.5 24c0 6 2.33301 13.167 7 21.5l16 27.5c3.33301 5.33301 6.5 11 9.5 17s5.83301 12 8.5 18
c1.33301 4 2.5 8.33301 3.5 13s1.5 9 1.5 13c0 6.66699 -1 11.667 -3 15s-6.33301 6.33301 -13 9v0zM148.001 500c32.667 -0.666992 60 -12.167 82 -34.5s33 -50.166 33 -83.499c0 -30.667 -11.333 -57.334 -34 -80.001s-49.667 -34 -81 -34s-58.333 11.333 -81 34
s-34 49.334 -34 80.001c0 33.333 11 61.166 33 83.499s49.333 33.5 82 33.5v1z" />
    <glyph glyph-name="less" unicode="&#x3c;" horiz-adv-x="500" 
d="M493 598v-109l-357 -156l357 -135v-109l-487 188v110l487 211v0z" />
    <glyph glyph-name="equal" unicode="=" horiz-adv-x="600" 
d="M490 148l-388 -0.000976562c-12 -0.666992 -20.833 1.33301 -26.5 6s-8.5 11.334 -8.5 20.001v52c0 10.667 3.16699 18.167 9.5 22.5s17.5 6.5 33.5 6.5l378 1c18 -0.666992 30.167 -3.5 36.5 -8.5s9.5 -14.167 9.5 -27.5v-44c0 -12 -2.83301 -19.833 -8.5 -23.5
s-17.5 -5.5 -35.5 -5.5v1zM490 314.999l-388 0.00195312c-12 -0.666992 -20.833 1.16602 -26.5 5.49902s-8.5 11.166 -8.5 20.499v52c0 10.667 3.16699 18.167 9.5 22.5s17.5 6.5 33.5 6.5l378 1c18 -0.666992 30.167 -3.5 36.5 -8.5s9.5 -14.5 9.5 -28.5v-44
c0 -12 -2.83301 -19.667 -8.5 -23s-17.5 -5 -35.5 -5v1z" />
    <glyph glyph-name="greater" unicode="&#x3e;" horiz-adv-x="500" 
d="M6 89v109l357 156l-357 135v109l487 -187v-111l-487 -211v0z" />
    <glyph glyph-name="question" unicode="?" horiz-adv-x="482" 
d="M222 198c30.667 -0.666992 56.333 -11.001 77 -31.001s31 -45 31 -75c0 -29.333 -10.5 -54.166 -31.5 -74.499s-46.5 -30.5 -76.5 -30.5c-27.333 0 -51.333 10.167 -72 30.5s-31 43.833 -31 70.5c0 30.667 10 56.5 30 77.5s44.333 31.5 73 31.5v1zM398.999 370.999
l-44.998 -21.998c-12 -6 -21.333 -12.667 -28 -20s-12.334 -14.666 -17.001 -21.999c-2.66699 -3.33301 -4.83398 -6.83301 -6.50098 -10.5s-3.5 -7.16699 -5.5 -10.5c-5.33301 -10.667 -12.333 -20 -21 -28s-23.334 -12 -44.001 -12c-20 0 -35.667 5.66699 -47 17
s-17 26.666 -17 45.999c0 20 4.33301 38.167 13 54.5s18 32.5 28 48.5c10 15.333 19.333 31.166 28 47.499s13 34.5 13 54.5c0 14.667 -3.16699 26.5 -9.5 35.5s-14.5 13.5 -24.5 13.5s-17.167 -3.16699 -21.5 -9.5s-7.16602 -18.166 -8.49902 -35.499
c-3.33301 -32.667 -14.333 -57.834 -33 -75.501s-43.667 -26.5 -75 -26.5c-20.667 0 -37.667 6.5 -51 19.5s-20 29.5 -20 49.5c0 50 22.333 92.5 67 127.5s99 52.5 163 52.5c64.667 0 120 -18.167 166 -54.5s69 -79.833 69 -130.5c0 -22.667 -6.5 -43.834 -19.5 -63.501
s-30.833 -35.167 -53.5 -46.5v1z" />
    <glyph glyph-name="at" unicode="@" horiz-adv-x="785" 
d="M664 132h10.001c13.333 -0.666992 21.666 -1.66699 24.999 -3s5 -4.66602 5 -9.99902v-2c0 -0.666992 -0.333008 -1.33398 -1 -2.00098c0 -1.33301 -0.666992 -2.66602 -2 -3.99902l-7 -7l-1.5 -1.5c-1 -1 -2.16699 -2.5 -3.5 -4.5
c-34 -36.667 -73.333 -64.334 -118 -83.001s-94 -28 -148 -28c-132 0 -231.167 27.167 -297.5 81.5s-99.5 135.5 -99.5 243.5c0 106 37.167 193.667 111.5 263s167.833 104 280.5 104c98.667 0 180.334 -26.833 245.001 -80.5s97 -121.167 97 -202.5
c0 -70.667 -26.833 -130 -80.5 -178s-115.167 -72 -184.5 -72c-24 0 -42 3.33301 -54 10s-19 17 -21 31v2.5c0 1 -0.333008 2.16699 -1 3.5v2.5v2.5c-0.666992 3.33301 -1.5 6.16602 -2.5 8.49902s-2.5 3.5 -4.5 3.5s-6.5 -3.16699 -13.5 -9.5s-16.167 -13.5 -27.5 -21.5
c-10.667 -8 -23.334 -15.167 -38.001 -21.5s-30 -9.5 -46 -9.5c-29.333 0 -52.5 10.5 -69.5 31.5s-25.5 49.167 -25.5 84.5c0 10 0.666992 20.167 2 30.5s3.33301 20.833 6 31.5c12 47.333 36 91 72 131s79 60 129 60c8.66699 0 16.5 -1.5 23.5 -4.5
s13.833 -6.16699 20.5 -9.5l11.5 -7.5c3.66699 -2.33301 7.5 -4.16602 11.5 -5.49902c1.33301 -0.666992 3 -1.16699 5 -1.5s4 -0.5 6 -0.5c4.66699 0 10.334 1.5 17.001 4.5s14 6.5 22 10.5c7.33301 3.33301 15.333 6.5 24 9.5s17.334 4.5 26.001 4.5
c12.667 0 22 -2.5 28 -7.5s9 -12.5 9 -22.5c0 -15.333 -2.33301 -32.5 -7 -51.5l-15 -58.5l-4 -12.5l-4 -13.5c-4 -16 -7.5 -31.833 -10.5 -47.5s-4.5 -30.5 -4.5 -44.5c0 -8 2.16699 -14.167 6.5 -18.5s10.833 -6.5 19.5 -6.5c22 0 41.167 9.33301 57.5 28
s28.166 39.334 35.499 62.001c3.33301 9.33301 5.83301 18.5 7.5 27.5s2.5 17.5 2.5 25.5c0 66.667 -25 121.667 -75 165s-113.333 65 -190 65c-90 0 -162.5 -27 -217.5 -81s-82.5 -125.333 -82.5 -214c0 -42 5.16699 -77.667 15.5 -107s25.833 -53.333 46.5 -72
c27.333 -23.333 61.666 -41.666 102.999 -54.999s86.333 -20 135 -20c34 0 62.333 3.83301 85 11.5s42.334 16.167 59.001 25.5c10 5.33301 19.333 10.666 28 15.999s17.334 9.66602 26.001 12.999c5.33301 2 10.666 3.66699 15.999 5s10.666 2 15.999 2l10 1v0z
M371.001 264c4.66699 -0.666992 10.333 2.5 17 9.5s13.667 16.167 21 27.5c2.66699 5.33301 5.66699 10.833 9 16.5s6.33301 11.834 9 18.501c7.33301 15.333 12.833 30 16.5 44s5.5 25.667 5.5 35c0 6 -1 10.667 -3 14s-4.66699 5 -8 5c-2.66699 0 -5.5 -0.666992 -8.5 -2
s-5.83301 -3 -8.5 -5c-8.66699 -6.66699 -17 -16.834 -25 -30.501s-15 -28.167 -21 -43.5c-5.33301 -13.333 -9.5 -25.833 -12.5 -37.5s-4.5 -21.5 -4.5 -29.5c0 -7.33301 1.16699 -13 3.5 -17s5.5 -6 9.5 -6v1z" />
    <glyph glyph-name="A" unicode="A" horiz-adv-x="827" 
d="M650 338l93 -198.001l8.5 -18.5c2.33301 -5 4.83301 -9.16699 7.5 -12.5c4 -6 8.5 -10.167 13.5 -12.5s11.167 -4.16602 18.5 -5.49902c11.333 -1.33301 20.166 -5 26.499 -11s9.5 -13.667 9.5 -23c0 -24.667 -14.167 -42 -42.5 -52s-75.166 -15 -140.499 -15h-7.5h-7.5
c-30 0 -58.833 1 -86.5 3s-48.834 4 -63.501 6c-15.333 2.66699 -28 8.33398 -38 17.001s-15 18.667 -15 30c0 10 1.66699 17.333 5 22s9.66602 9 18.999 13c2 1.33301 4 2.33301 6 3l6 2c7.33301 2.66699 13 6.16699 17 10.5s6 9.16602 6 14.499
c0 13.333 -4.16699 23.333 -12.5 30s-21.833 10.334 -40.5 11.001c-16.667 1.33301 -33.167 2.5 -49.5 3.5s-32.833 1.5 -49.5 1.5c-45.333 0 -74 -3 -86 -9s-18 -20.333 -18 -43c0 -6 2.33301 -10.5 7 -13.5s10.334 -5.5 17.001 -7.5
c0.666992 -0.666992 1.66699 -1.16699 3 -1.5s2.66602 -0.833008 3.99902 -1.5c7.33301 -2.66699 14.166 -6.33398 20.499 -11.001s9.5 -12.334 9.5 -23.001c0 -19.333 -11.667 -33.666 -35 -42.999s-58.666 -14 -105.999 -14c-54.667 0 -93.167 4 -115.5 12
s-33.5 22 -33.5 42c0 10 2 17.667 6 23s11.667 10.333 23 15c0.666992 0 1.5 0.166992 2.5 0.5s2.16699 0.833008 3.5 1.5c10.667 3.33301 19.834 7.33301 27.501 12s14.834 11.667 21.501 21c6.66699 8 13.5 18.833 20.5 32.5s15.167 31.167 24.5 52.5l69 152
c22 46.667 37.667 83.167 47 109.5s15 50.5 17 72.5c0 4 0.166992 7.66699 0.5 11s0.5 7 0.5 11c0.666992 42 9.83398 73.167 27.501 93.5s44.5 30.5 80.5 30.5c26 0 50.333 -6.66699 73 -20s43 -32.666 61 -57.999c19.333 -26.667 41.166 -62.334 65.499 -107.001
s50.833 -98 79.5 -160v1zM310 275.999l96.002 0.00195312c9.33301 -0.666992 16 -0.166992 20 1.5s6 4.5 6 8.5c0 6 -2.33301 14.5 -7 25.5s-10.334 22.833 -17.001 35.5c-2.66699 5.33301 -5.66699 10.666 -9 15.999s-6.66602 10.333 -9.99902 15
c-7.33301 10.667 -14.166 19.334 -20.499 26.001s-11.5 10 -15.5 10c-5.33301 0 -10 -1.66699 -14 -5s-8 -9 -12 -17c-0.666992 -2 -1.33398 -3.83301 -2.00098 -5.5s-1.33398 -3.5 -2.00098 -5.5c-2 -3.33301 -4.33301 -7.83301 -7 -13.5
s-5.33398 -11.834 -8.00098 -18.501l-4 -8c-1.33301 -2.66699 -2.33301 -5.33398 -3 -8.00098c-4 -8.66699 -7.16699 -17 -9.5 -25s-3.5 -14.667 -3.5 -20c0 -4.66699 1.5 -8 4.5 -10s8.83301 -3 17.5 -3v1z" />
    <glyph glyph-name="B" unicode="B" horiz-adv-x="717" 
d="M363 -2c-6.66699 0 -13.334 0.163086 -20.001 0.496094s-13 0.5 -19 0.5c-6.66699 0.666992 -13.334 1 -20.001 1h-20c-15.333 0 -30.5 -0.166992 -45.5 -0.5s-30.167 -0.833008 -45.5 -1.5l-56.5 -2c-19 -0.666992 -37.833 -1 -56.5 -1c-20 0 -36.167 4.66699 -48.5 14
s-18.5 21.333 -18.5 36c0 6.66699 1.66699 12.834 5 18.501s8 10.834 14 15.501c4 2.66699 7.66699 5.33398 11 8.00098s6.33301 5.33398 9 8.00098c9.33301 8.66699 15.333 18.167 18 28.5s4.66699 22.833 6 37.5c0.666992 2.66699 1.16699 5.33398 1.5 8.00098
s0.5 5.66699 0.5 9c2 24.667 3.83301 49.167 5.5 73.5s3.16699 48.833 4.5 73.5l2 72.5c0.666992 24.333 1 48.833 1 73.5c0 38 -2.33301 63.5 -7 76.5s-15.667 23.5 -33 31.5c-0.666992 0 -1.16699 0.166992 -1.5 0.5s-0.833008 0.5 -1.5 0.5
c-10.667 4.66699 -18.667 10.334 -24 17.001s-8 14.334 -8 23.001c0 14.667 6.33301 26.5 19 35.5s29 13.5 49 13.5c11.333 0 22.666 -0.166992 33.999 -0.5s23 -0.833008 35 -1.5c11.333 -0.666992 22.666 -1.16699 33.999 -1.5s22.666 -0.5 33.999 -0.5
c16.667 0 33.334 0.166992 50.001 0.5s33.667 0.833008 51 1.5c16.667 0.666992 33.334 1.16699 50.001 1.5s33.334 0.5 50.001 0.5c8 0 16 -0.166992 24 -0.5s16.333 -0.833008 25 -1.5c44 -4 84.333 -16.333 121 -37s55 -58.334 55 -113.001
c0 -23.333 -3.66699 -43 -11 -59s-15.333 -29.333 -24 -40s-16.667 -19.5 -24 -26.5s-11 -13.167 -11 -18.5c0 -3.33301 1 -6.33301 3 -9s5.33301 -5 10 -7c0.666992 -0.666992 1.83398 -1.33398 3.50098 -2.00098s3.16699 -1.33398 4.5 -2.00098
c31.333 -12.667 56.833 -32.5 76.5 -59.5s29.5 -55.833 29.5 -86.5c0 -64.667 -23.167 -116.167 -69.5 -154.5s-108.166 -57.5 -185.499 -57.5h-21.5c-7 0 -14.167 0.333008 -21.5 1c-7.33301 0 -14.5 0.166992 -21.5 0.5s-14.167 0.833008 -21.5 1.5v0zM318 248.996
l0.00195312 -46c0 -43.333 3.16699 -72 9.5 -86s19.166 -21 38.499 -21c24 0 42.167 7.16699 54.5 21.5s18.5 35.833 18.5 64.5c0 35.333 -7 62.333 -21 81s-34.333 28 -61 28c-14.667 0 -24.834 -3 -30.501 -9s-8.5 -17.333 -8.5 -34v1zM318.002 530.996v-101
c0 -16.667 2 -28.167 6 -34.5s11 -9.5 21 -9.5c24.667 0 42.667 7.33301 54 22s17 37.667 17 69s-6 55.333 -18 72s-29 25 -51 25c-10.667 0 -18.167 -3.33301 -22.5 -10s-6.5 -18 -6.5 -34v1z" />
    <glyph glyph-name="C" unicode="C" horiz-adv-x="720" 
d="M588 636c1.33301 -0.666992 2.50488 -0.835938 3.50488 -0.50293s2.16699 0.833008 3.5 1.5l10 2c3.33301 0.666992 6.66602 1 9.99902 1c24 0 45.167 -16.833 63.5 -50.5s27.5 -72.167 27.5 -115.5c0 -30 -8.33301 -54.167 -25 -72.5s-38.667 -27.5 -66 -27.5
c-18 0 -32.5 5.5 -43.5 16.5s-21.5 24.167 -31.5 39.5c-2.66699 4.66699 -5.5 9.33398 -8.5 14.001l-9.5 15c-13.333 20.667 -30.333 39.834 -51 57.501s-50.334 26.5 -89.001 26.5c-34.667 0 -61.834 -12 -81.501 -36s-29.5 -57.333 -29.5 -100v-2.5v-3.5
c1.33301 -60 19.833 -115 55.5 -165s86.167 -75 151.5 -75c27.333 0 50.5 3.5 69.5 10.5s34.833 14.5 47.5 22.5c13.333 8 24.166 15.5 32.499 22.5s15.166 10.5 20.499 10.5c11.333 0 21 -5.33301 29 -16s12 -23.667 12 -39c0 -6.66699 -0.666992 -14 -2 -22
s-3.33301 -16 -6 -24c-6.66699 -19.333 -16.667 -37.333 -30 -54s-29 -26.667 -47 -30c-16 -3.33301 -30.167 -7 -42.5 -11s-24.166 -8.33301 -35.499 -13c-2 -1.33301 -4.33301 -2.5 -7 -3.5s-5 -1.83301 -7 -2.5c-16.667 -6.66699 -34.5 -12.5 -53.5 -17.5
s-43.167 -7.5 -72.5 -7.5c-98.667 0 -183.834 33.833 -255.501 101.5s-107.5 147.834 -107.5 240.501c0 93.333 36 175 108 245s155.333 105 250 105c26 0 49.333 -2.33301 70 -7s39 -10 55 -16l40 -16c11.333 -4.66699 20.333 -7 27 -7h2.5h2.5
c2 0.666992 3.83301 1.16699 5.5 1.5s3.16699 0.5 4.5 0.5v1z" />
    <glyph glyph-name="D" unicode="D" horiz-adv-x="802" 
d="M379 -4c-15.333 0.666992 -30.502 1.16602 -45.502 1.49902s-30.167 0.833008 -45.5 1.5c-15.333 0 -30.5 0.166992 -45.5 0.5s-30.167 0.5 -45.5 0.5c-8.66699 0 -17.5 -0.333008 -26.5 -1l-26.5 -2c-9.33301 0 -18.333 -0.333008 -27 -1s-17.667 -1 -27 -1
c-23.333 0 -42 4.66699 -56 14s-21 22.333 -21 39c0 15.333 2.83301 25 8.5 29s12.167 6.66699 19.5 8c2 0.666992 3.83301 1.16699 5.5 1.5s3.5 0.833008 5.5 1.5c8.66699 2.66699 17 9 25 19s12.333 30.667 13 62c2 28 3.5 55.833 4.5 83.5s1.83301 55.167 2.5 82.5
s1.16699 54.833 1.5 82.5s0.5 55.5 0.5 83.5s-2 46.5 -6 55.5s-13.333 16.167 -28 21.5c-0.666992 0 -1.16699 0.166992 -1.5 0.5l-0.5 0.5c-10.667 4 -19 9.66699 -25 17s-9 16 -9 26c0 16.667 7.66699 29.334 23 38.001s37.333 13 66 13
c7.33301 0 14.666 -0.166992 21.999 -0.5s15 -0.5 23 -0.5c7.33301 0 14.666 -0.166992 21.999 -0.5s14.666 -0.5 21.999 -0.5c16.667 0 33.334 0.333008 50.001 1l50 2l50 2c16.667 0.666992 33.334 1 50.001 1c60.667 0 110.167 -5 148.5 -15s72.833 -26.667 103.5 -50
c39.333 -29.333 69.166 -67.5 89.499 -114.5s30.5 -100.167 30.5 -159.5c0 -102.667 -31.167 -185.667 -93.5 -249s-143.166 -95 -242.499 -95h-16c-5.33301 0 -10.666 0.333008 -15.999 1c-5.33301 0 -10.666 0.166992 -15.999 0.5s-10.666 0.5 -15.999 0.5v0z
M326.998 528.999l0.000976562 -378c0 -21.333 4.33301 -36.333 13 -45s24 -13 46 -13c45.333 0 80.166 18 104.499 54s36.5 88.333 36.5 157c0 91.333 -12.667 158.333 -38 201s-65 64 -119 64c-16 0 -27.167 -3 -33.5 -9s-9.5 -16.667 -9.5 -32v1z" />
    <glyph glyph-name="E" unicode="E" horiz-adv-x="691" 
d="M120 667l252.001 -0.000976562c43.333 -0.666992 75.833 -0.5 97.5 0.5s41.167 3.83301 58.5 8.5c4 0.666992 7.83301 1.5 11.5 2.5s7.5 2.16699 11.5 3.5c2.66699 0.666992 5 1.33398 7 2.00098s3.66699 1 5 1h2h2c20 0 37.833 -13.667 53.5 -41
s23.5 -58.666 23.5 -93.999c0 -21.333 -4.5 -38 -13.5 -50s-21.833 -18 -38.5 -18c-11.333 0 -19.666 2.16699 -24.999 6.5s-10 9.83301 -14 16.5l-6.5 11c-2.33301 4 -5.16602 8 -8.49902 12c-8.66699 11.333 -23.834 21.666 -45.501 30.999s-57.5 14 -107.5 14
c-32 0 -53.333 -4 -64 -12s-16 -23.667 -16 -47l-1 -81c0 -20.667 3.33301 -33.334 10 -38.001s23.667 -7 51 -7c18 0 29.5 5.5 34.5 16.5s8.5 23.167 10.5 36.5v0.5c0 0.333008 0.333008 0.5 1 0.5c2 13.333 5.16699 25.166 9.5 35.499s14.5 15.5 30.5 15.5
c19.333 0 34 -12.667 44 -38s15 -61 15 -107c0 -46.667 -5.83301 -83.834 -17.5 -111.501s-27.167 -41.5 -46.5 -41.5c-12 0 -19.833 3.83301 -23.5 11.5s-6.5 16.834 -8.5 27.501c-0.666992 2 -1.16699 3.83301 -1.5 5.5s-0.833008 3.5 -1.5 5.5
c-2.66699 12.667 -7.83398 24.167 -15.501 34.5s-23.167 15.5 -46.5 15.5c-14.667 0 -24.667 -4.66699 -30 -14s-8 -26.666 -8 -51.999c0 -62 4.66699 -99.667 14 -113s36.333 -20 81 -20c52 0 90.5 6.16699 115.5 18.5s45.833 35.166 62.5 68.499l9 17.5
c2.66699 5 5.33398 9.16699 8.00098 12.5c5.33301 6.66699 10.666 11.334 15.999 14.001s12 4 20 4c14 0 25.333 -6 34 -18s13 -27.667 13 -47c0 -8 -1.66699 -19.667 -5 -35s-8.33301 -31.666 -15 -48.999c-8 -23.333 -18.167 -44.5 -30.5 -63.5s-25.5 -28.5 -39.5 -28.5
c-8.66699 0 -17.5 0.5 -26.5 1.5s-17.833 2.16699 -26.5 3.5c-9.33301 1.33301 -18.833 2.5 -28.5 3.5s-19.167 1.5 -28.5 1.5h-414c-16.667 0 -29.5 3.5 -38.5 10.5s-13.5 17.167 -13.5 30.5c0 10 2.33301 17.167 7 21.5s10 8.16602 16 11.499c2 0.666992 4 1.5 6 2.5
s4 1.83301 6 2.5c6 4 12 9 18 15s10.333 15 13 27c5.33301 25.333 9.33301 54.166 12 86.499s4 69.5 4 111.5c0 62 -2 113.167 -6 153.5s-10 68.833 -18 85.5c-2.66699 5.33301 -6.33398 9.33301 -11.001 12s-9.66699 5 -15 7
c-1.33301 0.666992 -2.83301 1.33398 -4.5 2.00098s-3.16699 1.33398 -4.5 2.00098c-9.33301 2.66699 -16.333 7.16699 -21 13.5s-7 13.833 -7 22.5c0 20 7 33.167 21 39.5s42.667 9.5 86 9.5v1z" />
    <glyph glyph-name="F" unicode="F" horiz-adv-x="661" 
d="M578 486l-15.499 17.501c-5 5.66699 -10.167 10.834 -15.5 15.501c-13.333 13.333 -27.666 23.666 -42.999 30.999s-35.666 11.666 -60.999 12.999c-10.667 0.666992 -21.5 1.16699 -32.5 1.5s-22.167 0.5 -33.5 0.5c-22.667 0 -37.834 -9.33301 -45.501 -28
s-11.5 -54 -11.5 -106c0 -12 3.83301 -20.333 11.5 -25s21.5 -7 41.5 -7c19.333 0 32.166 4.5 38.499 13.5s11.166 19.167 14.499 30.5v2c0 0.666992 0.333008 1.33398 1 2.00098c2.66699 10 6.33398 19 11.001 27s14 12 28 12c20.667 0 36 -12.167 46 -36.5
s15 -61.166 15 -110.499c0 -48.667 -6.16699 -86.5 -18.5 -113.5s-29.5 -40.5 -51.5 -40.5c-12 0 -19.833 4.16699 -23.5 12.5s-6.83398 18.166 -9.50098 29.499c0 2 -0.166992 4 -0.5 6s-0.833008 4 -1.5 6c-2.66699 13.333 -7.83398 25.666 -15.501 36.999
s-23.167 17 -46.5 17c-16 0 -26.5 -2.16699 -31.5 -6.5s-7.5 -13.833 -7.5 -28.5v-38c0 -45.333 2.83301 -77 8.5 -95s15.834 -28 30.501 -30h1.5c0.333008 0 0.833008 -0.333008 1.5 -1c12.667 -2 24.167 -5.5 34.5 -10.5s15.5 -15.5 15.5 -31.5
c0 -12.667 -3.66699 -22.834 -11 -30.501s-18.666 -13.5 -33.999 -17.5c-19.333 -4 -44.833 -7.33301 -76.5 -10s-65.5 -4 -101.5 -4c-67.333 0 -113.666 4.16699 -138.999 12.5s-38 23.833 -38 46.5c0 15.333 4.16699 26.166 12.5 32.499s18.5 11.833 30.5 16.5
c14.667 6 24.667 18.833 30 38.5s8.33301 55.5 9 107.5l2 156v25c0 60 -2.16699 99.167 -6.5 117.5s-14.5 30.833 -30.5 37.5l-15.5 7c-4.33301 2 -7.83301 4 -10.5 6c-5.33301 4 -9 8.16699 -11 12.5s-3 9.5 -3 15.5c0 14.667 7 26.834 21 36.501s31.333 14.5 52 14.5
c6.66699 0 14.667 -0.166992 24 -0.5s20.333 -1.16602 33 -2.49902c17.333 -1.33301 34.5 -2.33301 51.5 -3l51.5 -2c17.333 -0.666992 34.666 -1 51.999 -1h51h20.5h21.5c11.333 0 22.833 0.166992 34.5 0.5s23.5 0.5 35.5 0.5c18 0.666992 36.333 1.66699 55 3
s37.334 3.33301 56.001 6h4c1.33301 0 2.66602 0.333008 3.99902 1h2.5h2.5c14 0 26.667 -8.33301 38 -25s20 -35 26 -55c4 -11.333 7 -22.333 9 -33s3 -20 3 -28c0 -20 -4.83301 -36 -14.5 -48s-22.167 -18 -37.5 -18c-6.66699 0 -13.334 1.5 -20.001 4.5
s-12.667 7.5 -18 13.5v1z" />
    <glyph glyph-name="G" unicode="G" horiz-adv-x="794" 
d="M570 658l21.0029 7l10 2c3.33301 0.666992 6.33301 1 9 1c24.667 0 46.5 -15.5 65.5 -46.5s28.5 -66.167 28.5 -105.5c0 -24.667 -7.33301 -45.334 -22 -62.001s-33 -25 -55 -25c-18 0 -33.333 4.83301 -46 14.5s-24.667 20.834 -36 33.501
c-2.66699 3.33301 -5.33398 6.5 -8.00098 9.5s-5 5.83301 -7 8.5c-14.667 16.667 -31.334 31.834 -50.001 45.501s-43.667 20.5 -75 20.5c-40.667 0 -73.5 -15.5 -98.5 -46.5s-37.5 -72.167 -37.5 -123.5c0 -72.667 17.167 -135.167 51.5 -187.5s75.5 -78.5 123.5 -78.5
c17.333 0 31.333 5.66699 42 17s16 26.333 16 45c0 16.667 -5.16699 27 -15.5 31s-21.833 6.66699 -34.5 8s-24.167 4.33301 -34.5 9s-15.5 16 -15.5 34c0 25.333 16 44.666 48 57.999s78 20 138 20c65.333 0 114.333 -6.16699 147 -18.5s49 -31.166 49 -56.499
c0 -12.667 -4 -23.334 -12 -32.001s-18.667 -14 -32 -16h-1.5h-0.5c-8.66699 -1.33301 -14.834 -3.16602 -18.501 -5.49902s-6.83398 -7.5 -9.50098 -15.5c-0.666992 -2 -1.16699 -3.83301 -1.5 -5.5s-0.833008 -3.83398 -1.5 -6.50098
c-16.667 -62.667 -53.167 -112.334 -109.5 -149.001s-124.166 -55 -203.499 -55c-102.667 0 -190.167 33.5 -262.5 100.5s-108.5 147.833 -108.5 242.5c0 100 35.333 183.333 106 250s159.334 100 266.001 100c21.333 0 42 -1.5 62 -4.5s39.333 -7.5 58 -13.5
c9.33301 -2.66699 16.166 -4.66699 20.499 -6s8.16602 -2 11.499 -2h1h2c3.33301 0 6.83301 0.333008 10.5 1s6.83398 1.33398 9.50098 2.00098v1z" />
    <glyph glyph-name="H" unicode="H" horiz-adv-x="802" 
d="M357 407l57.9941 -0.996094c26.667 -0.666992 45.334 -0.166992 56.001 1.5s17.334 4.5 20.001 8.5c1.33301 2 2.5 4.83301 3.5 8.5s1.5 7.83398 1.5 12.501v10c0 37.333 -2 64.166 -6 80.499s-11.667 27.833 -23 34.5c-6 3.33301 -11.167 6.33301 -15.5 9
s-7.83301 5.33398 -10.5 8.00098c-3.33301 4 -5.66602 8 -6.99902 12s-2 8.66699 -2 14c0 24.667 14.667 42.667 44 54s75.666 17 138.999 17c59.333 0 103.166 -5.5 131.499 -16.5s42.5 -27.833 42.5 -50.5c0 -13.333 -3.16699 -22.833 -9.5 -28.5
s-13.166 -10.834 -20.499 -15.501h-1h-1c-6 -3.33301 -11.5 -7 -16.5 -11s-8.5 -9.66699 -10.5 -17c0 -0.666992 -0.166992 -1.5 -0.5 -2.5s-0.833008 -1.83301 -1.5 -2.5c-2 -8 -3.5 -17.5 -4.5 -28.5s-1.83301 -29.5 -2.5 -55.5
c0 -4.66699 -0.166992 -9.83398 -0.5 -15.501s-0.5 -11.5 -0.5 -17.5l-3 -153v-7c0 -51.333 1.83301 -88 5.5 -110s9.83398 -35.667 18.501 -41c1.33301 -0.666992 2.5 -1.33398 3.5 -2.00098s2.16699 -1.33398 3.5 -2.00098h0.5c0.333008 0 0.5 -0.333008 0.5 -1
c8.66699 -4 16.334 -8.83301 23.001 -14.5s10 -14.167 10 -25.5c0 -24.667 -14.667 -42.334 -44 -53.001s-75.666 -16 -138.999 -16c-58.667 0 -101.667 5 -129 15s-41 26 -41 48c0 11.333 1.66699 19.333 5 24s7.66602 8.66699 12.999 12c2 2 4.33301 3.83301 7 5.5
s5.33398 3.83398 8.00098 6.50098c8 8 15.5 21.5 22.5 40.5s10.5 51.833 10.5 98.5c0 22.667 -2.83301 36.334 -8.5 41.001s-21.834 7 -48.501 7c-32.667 0 -59.5 -1.16699 -80.5 -3.5s-33.167 -5.83301 -36.5 -10.5c-2.66699 -2.66699 -4.66699 -10.667 -6 -24
s-2 -29 -2 -47c0 -28 2.33301 -49.833 7 -65.5s12.334 -26.5 23.001 -32.5c8.66699 -5.33301 16.167 -11.5 22.5 -18.5s9.5 -16.167 9.5 -27.5c0 -22.667 -15.833 -39.834 -47.5 -51.501s-77.167 -17.5 -136.5 -17.5c-56.667 0 -100.334 5.66699 -131.001 17
s-46 27.333 -46 48c0 13.333 4.33301 23.5 13 30.5s18.334 12.833 29.001 17.5c14 7.33301 23.333 24.833 28 52.5s7 77.5 7 149.5c0 14.667 -0.166992 29.167 -0.5 43.5s-0.5 28.833 -0.5 43.5s-0.166992 29.167 -0.5 43.5s-0.5 28.833 -0.5 43.5
c0 28.667 -3.5 48.5 -10.5 59.5s-14.833 18.5 -23.5 22.5c-2 0.666992 -4 1.5 -6 2.5s-4 1.83301 -6 2.5c-6 2 -11.167 5 -15.5 9s-6.5 11 -6.5 21c0 22 11.667 38.5 35 49.5s49 18.833 77 23.5c19.333 2.66699 38 4.5 56 5.5s32 1.5 42 1.5c49.333 0 87 -5.33301 113 -16
s39 -26.667 39 -48c0 -7.33301 -1 -13.5 -3 -18.5s-5.66699 -9.83301 -11 -14.5c-2.66699 -2.66699 -6 -5.33398 -10 -8.00098l-14 -9c-0.666992 0 -1.16699 -0.166992 -1.5 -0.5l-0.5 -0.5c-11.333 -8 -18.666 -18.333 -21.999 -31s-5 -37.667 -5 -75
c0 -19.333 2.66699 -32.333 8 -39s16.333 -10 33 -10v1z" />
    <glyph glyph-name="I" unicode="I" horiz-adv-x="413" 
d="M378 579l-17.999 -10.002c-14.667 -8 -24.5 -24.667 -29.5 -50s-7.5 -75 -7.5 -149v-19.5c0 -6.33301 0.333008 -12.5 1 -18.5l2 -124c0.666992 -36.667 3.16699 -61.334 7.5 -74.001s14.166 -23 29.499 -31c0.666992 0 1.5 -0.166992 2.5 -0.5
s1.83301 -0.833008 2.5 -1.5c11.333 -5.33301 19.5 -11.166 24.5 -17.499s7.5 -14.166 7.5 -23.499c0 -21.333 -11.833 -36.666 -35.5 -45.999s-49.834 -15.666 -78.501 -18.999c-18.667 -2.66699 -36.667 -4.16699 -54 -4.5s-31.333 -0.5 -42 -0.5
c-56.667 0 -98.5 4.66699 -125.5 14s-40.5 24 -40.5 44c0 6.66699 0.833008 12.167 2.5 16.5s4.83398 8.5 9.50098 12.5c2 2 4.5 4.16699 7.5 6.5s6.5 4.5 10.5 6.5c14.667 9.33301 24.167 21.666 28.5 36.999s6.83301 46.666 7.5 93.999l2 121v27
c0 70.667 -2.66699 117.667 -8 141s-17.666 41.333 -36.999 54c-6.66699 4 -12 7.66699 -16 11s-7.33301 6.33301 -10 9c-3.33301 4 -5.5 7.83301 -6.5 11.5s-1.5 7.83398 -1.5 12.501c0 18 11.833 31.667 35.5 41s49.5 16 77.5 20c21.333 2.66699 41.5 4.5 60.5 5.5
s33.167 1.5 42.5 1.5c55.333 0 97.666 -5.5 126.999 -16.5s44 -26.833 44 -47.5c0 -8 -1.83301 -14.833 -5.5 -20.5s-9.16699 -10.167 -16.5 -13.5v1z" />
    <glyph glyph-name="J" unicode="J" horiz-adv-x="627" 
d="M541 376l-1.99707 -144.003c-0.666992 -80 -25.5 -140.833 -74.5 -182.5s-112.5 -62.5 -190.5 -62.5c-84 0 -151.667 16.667 -203 50s-77 77.333 -77 132c0 32.667 10 59.667 30 81s45.333 32 76 32c31.333 0 57.5 -9 78.5 -27s31.5 -40.667 31.5 -68
c0 -4 -0.333008 -7.83301 -1 -11.5l-2 -10.5c-1.33301 -3.33301 -2.33301 -6.83301 -3 -10.5s-1 -7.5 -1 -11.5c0 -10.667 3.66699 -19.334 11 -26.001s17 -10 29 -10c21.333 0 39 9.5 53 28.5s21 43.167 21 72.5v22.5c0 8.33301 -0.333008 17.5 -1 27.5l-1 121l-4 96
c-0.666992 30.667 -5.33398 51.334 -14.001 62.001s-18 17.667 -28 21l-6 2c-2 0.666992 -4 1 -6 1c-8.66699 2.66699 -16 6 -22 10s-9 13 -9 27c0 22.667 11 39.334 33 50.001s46 18 72 22c18 2.66699 35.167 4.33398 51.5 5.00098s29.5 1 39.5 1
c62.667 0 111.334 -6 146.001 -18s52 -28.667 52 -50c0 -6 -0.666992 -11.167 -2 -15.5s-4 -8.16602 -8 -11.499c-3.33301 -2.66699 -7.33301 -5.5 -12 -8.5s-10.334 -6.16699 -17.001 -9.5c-14.667 -7.33301 -24.334 -16.333 -29.001 -27s-7.33398 -28.667 -8.00098 -54
l-3 -106v0z" />
    <glyph glyph-name="K" unicode="K" horiz-adv-x="827" 
d="M584 533c-4.66699 -4.66699 -9.99707 -9.66895 -15.9971 -15.002s-12.333 -11.333 -19 -18c-6.66699 -6 -13.167 -12.333 -19.5 -19s-11.5 -13.334 -15.5 -20.001c-3.33301 -4.66699 -6 -9.5 -8 -14.5s-3 -9.83301 -3 -14.5c0 -2 0.166992 -3.83301 0.5 -5.5
s0.5 -3.5 0.5 -5.5c1.33301 -6 4.33301 -12.5 9 -19.5s11.667 -15.833 21 -26.5l183 -211c9.33301 -11.333 16.666 -19.833 21.999 -25.5s10.333 -10.5 15 -14.5l6 -4c2 -1.33301 4.33301 -2.66602 7 -3.99902l5 -2.5c2 -1 4 -1.83301 6 -2.5
c18 -7.33301 30.667 -15.5 38 -24.5s11 -20.833 11 -35.5c0 -16.667 -6.5 -29.334 -19.5 -38.001s-31.167 -13 -54.5 -13h-185c-5.33301 0 -10 0.166992 -14 0.5s-7.66699 1.5 -11 3.5c-5.33301 3.33301 -11 8.33301 -17 15s-13.667 16.334 -23 29.001
c-4.66699 6.66699 -12.834 17.667 -24.501 33s-24.5 31.333 -38.5 48l-10 12c-3.33301 4 -6.66602 7.66699 -9.99902 11c-15.333 17.333 -30 32.333 -44 45s-24.667 19 -32 19c-8.66699 0 -15.667 -4.66699 -21 -14s-8 -22.333 -8 -39
c0 -17.333 2.16699 -31.166 6.5 -41.499s11.166 -18.5 20.499 -24.5c5.33301 -3.33301 9.83301 -6.5 13.5 -9.5s6.83398 -5.83301 9.50098 -8.5c4 -4.66699 6.83301 -9.5 8.5 -14.5s2.5 -10.5 2.5 -16.5c0 -20.667 -14.333 -35.5 -43 -44.5s-75.334 -13.5 -140.001 -13.5
c-66.667 0 -112.667 4 -138 12s-38 23 -38 45c0 9.33301 2.33301 17.333 7 24s12 13.334 22 20.001c15.333 10 25.666 30.667 30.999 62s8 85.666 8 162.999c0 53.333 -0.666992 92.833 -2 118.5s-3.66602 48.5 -6.99902 68.5c0 1.33301 -0.166992 2.5 -0.5 3.5
s-0.5 2.16699 -0.5 3.5c-2.66699 14 -6.83398 24.667 -12.501 32s-11.5 13.666 -17.5 18.999l-6 4c-2 1.33301 -4 3 -6 5c-5.33301 4 -10 8.33301 -14 13s-6 11.667 -6 21c0 19.333 7.66699 34.333 23 45s40 17.667 74 21c19.333 2 37 3.5 53 4.5s31.667 1.5 47 1.5
c52.667 0 90.334 -4.83301 113.001 -14.5s34 -26.167 34 -49.5c0 -6.66699 -1.33301 -13 -4 -19s-6.66699 -11 -12 -15l-7.5 -7.5l-6.5 -6.5c-9.33301 -11.333 -15.5 -23.166 -18.5 -35.499s-4.5 -27.5 -4.5 -45.5c0 -14.667 1.5 -25.5 4.5 -32.5s7.5 -10.5 13.5 -10.5h2.5
h2.5c7.33301 2 16.166 8.33301 26.499 19s27.166 31.334 50.499 62.001c6.66699 8.66699 11.5 16.167 14.5 22.5s4.5 11.833 4.5 16.5s-0.833008 9 -2.5 13s-3.16699 8 -4.5 12c-2 4 -3.83301 8 -5.5 12s-2.5 8.33301 -2.5 13c0 24 13 41 39 51s70.333 15 133 15
c58 0 98.333 -4.5 121 -13.5s34 -25.167 34 -48.5c0 -15.333 -5 -27.5 -15 -36.5s-24.333 -13.5 -43 -13.5c-22.667 0 -38.5 -0.5 -47.5 -1.5s-16.5 -3.83301 -22.5 -8.5c-3.33301 -2.66699 -6.66602 -5.66699 -9.99902 -9l-13 -13v1z" />
    <glyph glyph-name="L" unicode="L" horiz-adv-x="633" 
d="M334 454l0.000976562 -223.997c0 -52.667 5 -86.667 15 -102s31.667 -23 65 -23c38 0 67.667 8.16699 89 24.5s36.333 41.833 45 76.5c3.33301 11.333 7.5 19.333 12.5 24s12.167 7 21.5 7c16.667 0 30.5 -7.66699 41.5 -23s16.5 -34.666 16.5 -57.999
c0 -8.66699 -1.33301 -19.834 -4 -33.501s-6.66699 -27.834 -12 -42.501c-8 -23.333 -19 -44.666 -33 -63.999s-30 -29 -48 -29c-8.66699 0 -17.5 0.5 -26.5 1.5s-17.833 2.5 -26.5 4.5h-3c-0.666992 0 -1.66699 0.333008 -3 1c-8 1.33301 -16 2.5 -24 3.5
s-16 1.83301 -24 2.5h-341c-23.333 0 -40.5 3.16699 -51.5 9.5s-16.5 16.833 -16.5 31.5c0 8 2.16699 14.167 6.5 18.5s9.83301 8.5 16.5 12.5c2.66699 1.33301 5.5 2.83301 8.5 4.5s5.83301 3.5 8.5 5.5c10 6.66699 19.167 16 27.5 28s12.5 31.333 12.5 58l1 50
c0 21.333 -0.333008 43.166 -1 65.499s-1 44.833 -1 67.5l-2 67.5c-0.666992 22.333 -1 44.5 -1 66.5c-0.666992 26.667 -2.83398 44.667 -6.50098 54s-12.167 16.333 -25.5 21l-19 7c-5.33301 2 -10.333 4 -15 6c-8.66699 4.66699 -14.667 9.5 -18 14.5s-5 11.167 -5 18.5
c0 22.667 17 40 51 52s82.333 18 145 18c74.667 0 126.667 -4.66699 156 -14s44 -26 44 -50c0 -10 -3.5 -18 -10.5 -24s-14.833 -10.667 -23.5 -14c-2 -1.33301 -4.16699 -2.5 -6.5 -3.5s-4.5 -1.83301 -6.5 -2.5c-12.667 -4.66699 -20.667 -13.834 -24 -27.501
s-5 -42.834 -5 -87.501v1z" />
    <glyph glyph-name="M" unicode="M" horiz-adv-x="884" 
d="M503 202l-59.0049 -131.003c-6 -14 -11 -24.833 -15 -32.5s-8 -13.167 -12 -16.5c-3.33301 -3.33301 -6.5 -5.5 -9.5 -6.5s-6.16699 -1.5 -9.5 -1.5c-8 0 -17.333 8.5 -28 25.5s-26 47.833 -46 92.5l-65 146c-4 9.33301 -8.33301 16.5 -13 21.5s-9.66699 7.5 -15 7.5
c-8.66699 0 -14.167 -8.33301 -16.5 -25s-3.5 -52 -3.5 -106c0 -34.667 1.66699 -57.667 5 -69s10.333 -19.666 21 -24.999c0.666992 0 1.16699 -0.166992 1.5 -0.5s0.833008 -0.5 1.5 -0.5c0 -0.666992 0.333008 -1.16699 1 -1.5s1.33398 -0.5 2.00098 -0.5
c7.33301 -4 14 -8.5 20 -13.5s9 -12.5 9 -22.5c0 -17.333 -11.833 -30.5 -35.5 -39.5s-58.167 -13.5 -103.5 -13.5c-40 0 -70 4.33301 -90 13s-30 21.667 -30 39c0 7.33301 1.66699 13.333 5 18s8.33301 8.66699 15 12c23.333 10 37.333 21.333 42 34
s7.33398 29.667 8.00098 51c0 2.66699 0.166992 5.5 0.5 8.5s0.5 5.83301 0.5 8.5c3.33301 51.333 5.83301 97.833 7.5 139.5s2.5 82.167 2.5 121.5c0 47.333 -2.5 78.833 -7.5 94.5s-16.833 27.834 -35.5 36.501c-11.333 5.33301 -20 11.666 -26 18.999s-9 15.333 -9 24
c0 21.333 14.833 37.833 44.5 49.5s70.167 17.5 121.5 17.5c37.333 0 63.666 -2.33301 78.999 -7s28.333 -15.334 39 -32.001c2 -2.66699 3.83301 -5.66699 5.5 -9s3.5 -6.66602 5.5 -9.99902l101 -186c7.33301 -13.333 13 -23.166 17 -29.499s7.66699 -10.5 11 -12.5
c1.33301 -1.33301 3 -2.16602 5 -2.49902s4.33301 -0.5 7 -0.5c4.66699 0 8.66699 0.833008 12 2.5s6.33301 4.16699 9 7.5c2.66699 2.66699 5.16699 6 7.5 10s4.83301 8.66699 7.5 14l69 136l17 32l15 27c14.667 22.667 31.334 38.334 50.001 47.001s47.334 13 86.001 13
c49.333 0 85.5 -5 108.5 -15s34.5 -26 34.5 -48c0 -5.33301 -0.5 -9.83301 -1.5 -13.5s-2.83301 -7.5 -5.5 -11.5c-2 -2.66699 -4.66699 -5.5 -8 -8.5l-12 -10.5c-15.333 -10.667 -25.833 -31.334 -31.5 -62.001s-8.5 -81 -8.5 -151c0 -13.333 0.166992 -27.5 0.5 -42.5
s0.833008 -30.167 1.5 -45.5c1.33301 -25.333 2.83301 -49.666 4.5 -72.999s3.5 -42.666 5.5 -57.999c1.33301 -10.667 3.83301 -19.667 7.5 -27s8.16699 -12.666 13.5 -15.999c0.666992 -0.666992 1.5 -1.16699 2.5 -1.5s1.83301 -0.833008 2.5 -1.5
c8 -5.33301 15.167 -11 21.5 -17s9.5 -14.333 9.5 -25c0 -21.333 -13.167 -36.5 -39.5 -45.5s-69.833 -13.5 -130.5 -13.5c-61.333 0 -105.333 4.16699 -132 12.5s-40 22.166 -40 41.499c0 9.33301 2.83301 17.166 8.5 23.499s12.167 12.5 19.5 18.5
c0.666992 0 1.33398 0.333008 2.00098 1l2 2c0.666992 0.666992 1.33398 1.16699 2.00098 1.5s1.33398 0.833008 2.00098 1.5c8.66699 7.33301 14.5 20.666 17.5 39.999s4.5 52.666 4.5 99.999c0 26 -1.16699 43 -3.5 51s-7.5 12 -15.5 12
c-2 0 -3.83301 -0.166992 -5.5 -0.5s-3.5 -1.16602 -5.5 -2.49902c-6.66699 -4 -13.834 -12.667 -21.501 -26s-18.167 -35 -31.5 -65v1z" />
    <glyph glyph-name="N" unicode="N" horiz-adv-x="830" 
d="M617 25l-289.999 260c-9.33301 8 -18.333 14.333 -27 19s-16.334 7 -23.001 7c-10 0 -17.5 -6.83301 -22.5 -20.5s-7.5 -34.167 -7.5 -61.5c0 -45.333 2.5 -76.333 7.5 -93s15.5 -29 31.5 -37c1.33301 -0.666992 2.5 -1.33398 3.5 -2.00098
s2.16699 -1.33398 3.5 -2.00098c9.33301 -5.33301 15.833 -10.833 19.5 -16.5s5.5 -13.167 5.5 -22.5c0 -22 -12.5 -38.5 -37.5 -49.5s-62.167 -16.5 -111.5 -16.5c-42 0 -75 5.66699 -99 17s-36 27.333 -36 48c0 13.333 3.83301 23.333 11.5 30s16.167 12.667 25.5 18
c14.667 8.66699 24.334 28.5 29.001 59.5s7 87.833 7 170.5c0 46 -1.83301 87.333 -5.5 124s-8.83398 62.667 -15.501 78c-2.66699 8 -7.33398 14.333 -14.001 19s-13.667 9 -21 13c-0.666992 0 -1.16699 0.166992 -1.5 0.5l-0.5 0.5
c-9.33301 5.33301 -17.666 10.833 -24.999 16.5s-11 14.167 -11 25.5c0 24.667 12.667 41.834 38 51.501s69.666 14.5 132.999 14.5c20 0 35.5 -0.833008 46.5 -2.5s21.167 -5.16699 30.5 -10.5c4.66699 -2 9 -4.66699 13 -8l14 -12l243 -212
c11.333 -10.667 21 -18.667 29 -24s14.333 -8 19 -8c9.33301 0 16.166 4.5 20.499 13.5s6.5 22.833 6.5 41.5c0 41.333 -2.5 69.333 -7.5 84s-15.167 25.667 -30.5 33c-12.667 6 -21.667 12.5 -27 19.5s-8 15.167 -8 24.5c0 23.333 9.83301 39.333 29.5 48
s54.834 13 105.501 13c56.667 0 95.667 -4.33301 117 -13s32 -24.334 32 -47.001c0 -11.333 -3 -20.833 -9 -28.5s-15.333 -14.167 -28 -19.5c-17.333 -7.33301 -28.833 -20.833 -34.5 -40.5s-8.5 -55.5 -8.5 -107.5v-159v-94c0 -67.333 -4.33301 -113.666 -13 -138.999
s-23.667 -38 -45 -38c-11.333 0 -21.333 2.83301 -30 8.5s-17 11.834 -25 18.501c-0.666992 1.33301 -1.66699 2.5 -3 3.5s-2.66602 2.16699 -3.99902 3.5v1z" />
    <glyph glyph-name="O" unicode="O" horiz-adv-x="778" 
d="M380 680c49.333 -0.666992 92.6689 -6.66699 130.002 -18s71.666 -29.333 102.999 -54c40.667 -32 73.5 -71.833 98.5 -119.5s39.167 -97.167 42.5 -148.5c0.666992 -3.33301 1 -6.83301 1 -10.5v-10.5c0 -93.333 -36.667 -172 -110 -236s-163.333 -96 -270 -96
c-98.667 0 -182 33.5 -250 100.5s-102 149.833 -102 248.5c0 95.333 34.667 176.333 104 243s153.666 100 252.999 100v1zM345.003 541c-22.667 -0.666992 -41.8359 -11.002 -57.5029 -31.002s-23.5 -45.333 -23.5 -76c0 -15.333 2.33301 -35.666 7 -60.999
s11.334 -51.333 20.001 -78c13.333 -41.333 31.333 -79.333 54 -114s49.334 -52 80.001 -52c25.333 0 45.5 9.33301 60.5 28s22.5 43.334 22.5 74.001c0 16.667 -1.83301 37.167 -5.5 61.5s-9.16699 49.5 -16.5 75.5c-12 42.667 -29.667 82 -53 118s-52.666 54 -87.999 54v1
z" />
    <glyph glyph-name="P" unicode="P" horiz-adv-x="684" 
d="M101 230l-0.00390625 257.003c0 30.667 -2 50.834 -6 60.501s-14.667 16.834 -32 21.501c-1.33301 0.666992 -2.5 1.16699 -3.5 1.5s-1.83301 0.5 -2.5 0.5c-14.667 4 -25.667 9.66699 -33 17s-11 16 -11 26c0 15.333 6.16699 27 18.5 35s30.5 12 54.5 12
c4.66699 0 9.5 -0.166992 14.5 -0.5s9.83301 -0.5 14.5 -0.5s9.5 -0.166992 14.5 -0.5s9.83301 -0.5 14.5 -0.5c22.667 0 45.334 0.666992 68.001 2s45.667 3 69 5l68 4c22.667 1.33301 45.334 2 68.001 2c75.333 0 136.5 -19.333 183.5 -58s70.5 -89.334 70.5 -152.001
c0 -64.667 -23.5 -117.334 -70.5 -158.001s-107.5 -61 -181.5 -61c-7.33301 0 -14.5 0.333008 -21.5 1l-21.5 2c-7.33301 0 -14.5 0.333008 -21.5 1s-14.167 1 -21.5 1c-5.33301 0 -9.16602 -1.16699 -11.499 -3.5s-3.5 -6.5 -3.5 -12.5
c0 -6.66699 0.166992 -13.5 0.5 -20.5s0.5 -13.833 0.5 -20.5c0 -2.66699 0.166992 -5.16699 0.5 -7.5s0.5 -4.5 0.5 -6.5c0 -4.66699 0.166992 -9.33398 0.5 -14.001s0.5 -9.33398 0.5 -14.001c0.666992 -12 2.5 -21.5 5.5 -28.5s8.16699 -13.5 15.5 -19.5
c2.66699 -1.33301 5.5 -3 8.5 -5s6.5 -4 10.5 -6s7.5 -4 10.5 -6s5.5 -4 7.5 -6c4.66699 -3.33301 8 -7 10 -11s3 -8.33301 3 -13c0 -21.333 -15.5 -37.333 -46.5 -48s-77.167 -16 -138.5 -16c-56.667 0 -100 5.16699 -130 15.5s-45 25.5 -45 45.5
c0 7.33301 2.33301 14 7 20s11.334 11.333 20.001 16c4 2 7.66699 4 11 6s6 3.66699 8 5c11.333 8 18 16.667 20 26s3 21.666 3 36.999v7.5v7.5v54v0zM320.996 549.003l-0.000976562 -166.001c0 -12 3 -20.167 9 -24.5s17.333 -6.5 34 -6.5c27.333 0 48.833 9.33301 64.5 28
s23.5 44.334 23.5 77.001c0 34 -8.5 60.833 -25.5 80.5s-40.167 29.5 -69.5 29.5c-11.333 0 -20.166 -1.66699 -26.499 -5s-9.5 -8 -9.5 -14v1z" />
    <glyph glyph-name="Q" unicode="Q" horiz-adv-x="781" 
d="M249 -91c-3.33301 1.33301 -6.66992 2.83203 -10.0029 4.49902l-9 4.5c-24.667 12 -49.667 22.833 -75 32.5s-51.666 14.5 -78.999 14.5c-2 0 -3.83301 -0.166992 -5.5 -0.5s-3.16699 -0.833008 -4.5 -1.5c-1.33301 0 -2.83301 -0.166992 -4.5 -0.5s-3.5 -0.5 -5.5 -0.5
c-6.66699 0 -12 2.66699 -16 8s-6 12.333 -6 21c0 16.667 7.16699 30.834 21.5 42.501s32.166 17.5 53.499 17.5h5.5h4.5c1.33301 -0.666992 2.83301 -1 4.5 -1h5.5c4.66699 0 8.16699 1 10.5 3s3.5 4.33301 3.5 7c0 3.33301 -6.16699 12.5 -18.5 27.5
s-26.166 34.833 -41.499 59.5c-14.667 24 -28.334 51.667 -41.001 83s-19 64.666 -19 99.999c0 52.667 9.33301 100.5 28 143.5s46.334 79.833 83.001 110.5c20.667 17.333 44 32.833 70 46.5s52.667 24.5 80 32.5c16.667 5.33301 33.334 9.33301 50.001 12s32.667 4 48 4
h12c4 0 8.33301 -0.333008 13 -1c36.667 -2 72.667 -8.83301 108 -20.5s66 -26.834 92 -45.501c35.333 -24.667 65.666 -58 90.999 -100s42 -85.667 50 -131c1.33301 -9.33301 2.5 -18.5 3.5 -27.5s1.5 -18.167 1.5 -27.5c0 -74 -21.167 -140.833 -63.5 -200.5
s-96.166 -98.5 -161.499 -116.5c-4.66699 -0.666992 -7.83398 -2 -9.50098 -4s-2.5 -4 -2.5 -6c0 -11.333 14.5 -21.333 43.5 -30s61.833 -13 98.5 -13c9.33301 0 17.833 0.833008 25.5 2.5s14.834 3.5 21.501 5.5c6 2.66699 11.5 4.83398 16.5 6.50098
s9.16699 2.5 12.5 2.5c4.66699 0 8.83398 -2.33301 12.501 -7s6.5 -9.66699 8.5 -15l2 -8c0.666992 -2.66699 1 -5 1 -7c0 -3.33301 -0.333008 -6.66602 -1 -9.99902s-1.66699 -6.33301 -3 -9s-2.66602 -5 -3.99902 -7l-4 -6c-20.667 -25.333 -49.667 -45.333 -87 -60
s-78.666 -22 -123.999 -22c-18.667 0 -38.334 1.83301 -59.001 5.5s-41.334 8.5 -62.001 14.5c-23.333 7.33301 -46.333 15.333 -69 24s-44 17.667 -64 27l-16 8l-16 8v0zM340.996 537.999c-22.667 -0.666992 -41.3311 -9.83008 -55.998 -27.4971s-22 -40.834 -22 -69.501
c0 -16.667 1.83301 -37.5 5.5 -62.5s9.5 -50.833 17.5 -77.5c12 -44 29.833 -84.333 53.5 -121s53.5 -55 89.5 -55c25.333 0 46.166 9.16699 62.499 27.5s24.5 41.833 24.5 70.5c0 18 -1.83301 37.833 -5.5 59.5s-8.83398 43.5 -15.501 65.5
c-6 21.333 -13 42.166 -21 62.499s-17 39.166 -27 56.499c-12.667 23.333 -28 40.833 -46 52.5s-38 17.5 -60 17.5v1z" />
    <glyph glyph-name="R" unicode="R" horiz-adv-x="776" 
d="M84 231l0.996094 148.003v57c0 50.667 -2.16699 84.167 -6.5 100.5s-14.166 28.5 -29.499 36.5c-5.33301 2.66699 -10 5.16699 -14 7.5s-7.33301 4.5 -10 6.5c-4.66699 4 -7.83398 8 -9.50098 12s-2.5 8.66699 -2.5 14c0 19.333 9.33301 33.833 28 43.5s46 14.5 82 14.5
c10 0 19.833 -0.333008 29.5 -1l28.5 -2l28.5 -2c9.66699 -0.666992 19.5 -1 29.5 -1c16 0 31.833 0.5 47.5 1.5s31.167 2.16699 46.5 3.5c15.333 0.666992 30.833 1.5 46.5 2.5s31.167 1.5 46.5 1.5c70 0 126.333 -16 169 -48s64 -74.333 64 -127
c0 -30 -5 -54.167 -15 -72.5s-21 -32.833 -33 -43.5c-10 -8.66699 -19.667 -15.834 -29 -21.501s-15.333 -10.5 -18 -14.5c0 -1.33301 -0.166992 -2.33301 -0.5 -3s-0.5 -1.33398 -0.5 -2.00098c0 -4 0.833008 -7.33301 2.5 -10s4.83398 -5.33398 9.50098 -8.00098
c2 -0.666992 3.83301 -1.5 5.5 -2.5s3.83398 -1.83301 6.50098 -2.5c41.333 -15.333 68.5 -37.833 81.5 -67.5s22.167 -64.167 27.5 -103.5c2.66699 -19.333 6.33398 -32.833 11.001 -40.5s13.334 -13.167 26.001 -16.5c9.33301 -2.66699 17.666 -6.66699 24.999 -12
s11 -13.666 11 -24.999c0 -22.667 -13.667 -40.5 -41 -53.5s-64 -19.5 -110 -19.5c-33.333 0 -61.5 4.16699 -84.5 12.5s-41.167 20.833 -54.5 37.5c-11.333 14 -20.333 30 -27 48s-12.667 36.333 -18 55c-1.33301 4.66699 -2.5 9.16699 -3.5 13.5
s-2.16699 8.83301 -3.5 13.5c-8.66699 31.333 -18.667 58.833 -30 82.5s-30.666 35.5 -57.999 35.5c-12.667 0 -20.667 -3.66699 -24 -11s-5 -25 -5 -53c0 -44 2.16699 -73.833 6.5 -89.5s13.5 -27.167 27.5 -34.5c9.33301 -5.33301 16.5 -11.5 21.5 -18.5
s7.5 -14.833 7.5 -23.5c0 -22 -13.333 -37.333 -40 -46s-72.667 -13 -138 -13c-61.333 0 -106.833 5.5 -136.5 16.5s-44.5 27.833 -44.5 50.5c0 8.66699 1.66699 15.167 5 19.5s7.33301 7.83301 12 10.5c2.66699 2 5.5 3.83301 8.5 5.5s6.16699 3.83398 9.5 6.50098
c8.66699 7.33301 16.667 20.166 24 38.499s11 49.166 11 92.499v1zM309.996 529.003l-5 -114c0 -11.333 1.5 -19.833 4.5 -25.5s10.5 -8.5 22.5 -8.5c28 0 48.5 7.5 61.5 22.5s19.5 38.167 19.5 69.5c0 32 -5.5 55.833 -16.5 71.5s-27.833 23.5 -50.5 23.5
c-12.667 0 -21.5 -2.83301 -26.5 -8.5s-8.16699 -16.167 -9.5 -31.5v1z" />
    <glyph glyph-name="S" unicode="S" horiz-adv-x="645" 
d="M472 655c1.33301 0 2.83496 0.169922 4.50195 0.50293s3.16699 0.833008 4.5 1.5c0.666992 0.666992 1.16699 1 1.5 1h1.5c4 2 8 3.5 12 4.5s8 1.5 12 1.5c18 0 35 -9.16699 51 -27.5s28.667 -38.5 38 -60.5c5.33301 -12 9.33301 -23.333 12 -34s4 -20.334 4 -29.001
c0 -18 -5.33301 -33.333 -16 -46s-24 -19 -40 -19c-8 0 -15.833 1.66699 -23.5 5s-15.167 7.66602 -22.5 12.999s-14.333 11.166 -21 17.499l-21 19.5c-15.333 13.333 -32 25.666 -50 36.999s-38.667 17 -62 17c-18.667 0 -33.5 -4.16699 -44.5 -12.5
s-16.5 -20.166 -16.5 -35.499c0 -17.333 8.66699 -31 26 -41s38.666 -19 63.999 -27c11.333 -4 23.333 -8 36 -12s25.667 -8.33301 39 -13c40.667 -15.333 78.167 -36.833 112.5 -64.5s51.5 -70.5 51.5 -128.5c0 -69.333 -28.667 -126 -86 -170s-131 -66 -221 -66
c-8.66699 0 -17.5 0.166992 -26.5 0.5s-17.833 0.833008 -26.5 1.5c-42.667 4 -82.5 11 -119.5 21s-61.5 21.333 -73.5 34c-9.33301 8.66699 -18.166 22.834 -26.499 42.501s-14.5 40.167 -18.5 61.5c-2.66699 10 -4.5 19.667 -5.5 29s-1.5 18.333 -1.5 27
c0 17.333 3.5 30.666 10.5 39.999s16.833 14 29.5 14c13.333 0 25.166 -5.33301 35.499 -16s19.5 -22.667 27.5 -36c4 -6.66699 7.66699 -13.167 11 -19.5s6.66602 -11.833 9.99902 -16.5c12 -18 30.5 -32.833 55.5 -44.5s51.5 -17.834 79.5 -18.501h2.5h2.5
c23.333 0 42.5 4.33301 57.5 13s22.5 19.667 22.5 33c0 15.333 -7 27.5 -21 36.5s-32 17.5 -54 25.5l-39 14.5c-14 5 -28.333 10.5 -43 16.5c-16 6.66699 -32 14.5 -48 23.5s-30.667 19.5 -44 31.5c-16.667 15.333 -31 31.833 -43 49.5s-20.667 35.834 -26 54.501
c-2.66699 8 -4.66699 16 -6 24s-2 15.667 -2 23c0 64 26.5 118 79.5 162s118.167 66 195.5 66c16.667 0 32.5 -1.5 47.5 -4.5s28.833 -6.16699 41.5 -9.5s24.167 -6.5 34.5 -9.5s18.833 -4.5 25.5 -4.5h2.5c1 0 1.83301 0.333008 2.5 1c0.666992 0 1.5 0.166992 2.5 0.5
s1.83301 0.5 2.5 0.5v1z" />
    <glyph glyph-name="T" unicode="T" horiz-adv-x="701" 
d="M228 667l257 -0.00195312c6 -0.666992 11.5 -0.833984 16.5 -0.500977s9.83301 0.5 14.5 0.5c6 1.33301 12.667 2.66602 20 3.99902s15.666 3.33301 24.999 6c1.33301 0 2.5 0.166992 3.5 0.5s2.16699 0.5 3.5 0.5c3.33301 1.33301 6.66602 2.16602 9.99902 2.49902
s6.33301 0.5 9 0.5c22 0 41.5 -11 58.5 -33s30.167 -46 39.5 -72c5.33301 -14 9.33301 -27.667 12 -41s4 -25 4 -35c0 -22.667 -6.5 -40.834 -19.5 -54.501s-30.833 -20.5 -53.5 -20.5c-16.667 0 -31.5 4.83301 -44.5 14.5s-25.5 25.5 -37.5 47.5
c-6.66699 12 -12.167 21.333 -16.5 28s-8.5 11.667 -12.5 15c-2.66699 2 -5.5 3.5 -8.5 4.5s-6.5 1.5 -10.5 1.5c-12 0 -20.667 -5 -26 -15s-8 -26.667 -8 -50v-272c0 -29.333 3 -50.166 9 -62.499s17 -22.166 33 -29.499l13 -5.5c4 -1.66699 7.33301 -3.5 10 -5.5
c8.66699 -5.33301 14.667 -10.833 18 -16.5s5 -12.834 5 -21.501c0 -23.333 -15.833 -40.5 -47.5 -51.5s-80.5 -16.5 -146.5 -16.5c-78.667 0 -136.5 5.83301 -173.5 17.5s-55.5 29.834 -55.5 54.501c0 12.667 4.16699 21.834 12.5 27.501s17.5 9.83398 27.5 12.501l6 2l6 2
c14 4 23.667 13.333 29 28s9 42 11 82l6 118c0.666992 14.667 1.16699 30.334 1.5 47.001s0.5 34.334 0.5 53.001c0 41.333 -2 68.666 -6 81.999s-11.667 20 -23 20c-4.66699 0 -9.16699 -1.33301 -13.5 -4s-8.5 -6.33398 -12.5 -11.001
c-5.33301 -5.33301 -10.5 -11.666 -15.5 -18.999l-15.5 -22c-10 -14 -21.5 -26.833 -34.5 -38.5s-28.5 -17.5 -46.5 -17.5s-32.833 6.33301 -44.5 19s-17.5 29.334 -17.5 50.001c0 10 1.5 21.833 4.5 35.5s7.5 27.5 13.5 41.5c10.667 26.667 25.334 51.334 44.001 74.001
s39 34 61 34c4.66699 0 9 -0.166992 13 -0.5s7.66699 -0.833008 11 -1.5s6.5 -1.33398 9.5 -2.00098s5.83301 -1.33398 8.5 -2.00098c8 -1.33301 16.833 -2.66602 26.5 -3.99902s21.834 -2 36.501 -2v1z" />
    <glyph glyph-name="U" unicode="U" horiz-adv-x="820" 
d="M737 423l0.00195312 -118.996c0 -50.667 -2.33301 -89.167 -7 -115.5s-12.667 -49.166 -24 -68.499c-23.333 -40.667 -56 -70.834 -98 -90.501s-85.667 -32.167 -131 -37.5c-12.667 -2 -25.334 -3.33301 -38.001 -4s-25 -1 -37 -1c-48.667 0 -94.334 6.33301 -137.001 19
s-79 31 -109 55c-31.333 25.333 -52.666 54 -63.999 86s-17 80.333 -17 145c0 15.333 0.166992 30.666 0.5 45.999s0.833008 30.666 1.5 45.999s1.16699 30.666 1.5 45.999s0.5 30.666 0.5 45.999c0 25.333 -1.33301 43.333 -4 54s-9.33398 20 -20.001 28
c-1.33301 0.666992 -2.66602 1.5 -3.99902 2.5s-3 2.16699 -5 3.5c-8 5.33301 -14.5 11 -19.5 17s-8.5 12 -10.5 18c-0.666992 2 -1.16699 4 -1.5 6s-0.5 4 -0.5 6c0 22.667 15 39.167 45 49.5s76.667 15.5 140 15.5c66 0 113.833 -5 143.5 -15s44.5 -26.667 44.5 -50
c0 -14 -4.33301 -24.167 -13 -30.5s-18.334 -11.833 -29.001 -16.5c-0.666992 0 -1.16699 -0.166992 -1.5 -0.5s-0.833008 -0.5 -1.5 -0.5c-10.667 -4.66699 -17.834 -13 -21.501 -25s-5.5 -31.667 -5.5 -59v-38c0 -11.333 -0.333008 -21.666 -1 -30.999l-3 -106
c0 -50.667 11.333 -92.334 34 -125.001s61.334 -49 116.001 -49c53.333 0 89.666 15 108.999 45s29 68.333 29 115v109l-1 85c-0.666992 32.667 -3.16699 54.5 -7.5 65.5s-14.166 19.833 -29.499 26.5l-17.5 9c-5 2.66699 -9.16699 5.33398 -12.5 8.00098
c-5.33301 4 -9 8 -11 12s-3 8.66699 -3 14c0 20 11.5 34.5 34.5 43.5s59.5 13.5 109.5 13.5c52 0 89.333 -4.33301 112 -13s34 -22.667 34 -42c0 -4.66699 -0.333008 -8.66699 -1 -12s-2.33398 -6.33301 -5.00098 -9c-2 -2.66699 -5.5 -5.66699 -10.5 -9
s-11.5 -7.33301 -19.5 -12l-4 -2c-1.33301 -0.666992 -2.66602 -1.66699 -3.99902 -3c-10.667 -6.66699 -17.5 -14.834 -20.5 -24.501s-4.83301 -25.5 -5.5 -47.5v-79v0z" />
    <glyph glyph-name="V" unicode="V" horiz-adv-x="803" 
d="M692 516l-224.006 -453.998c-4 -9.33301 -8 -17.5 -12 -24.5s-8 -13.167 -12 -18.5c-9.33301 -12 -18.666 -20.167 -27.999 -24.5s-20.666 -6.5 -33.999 -6.5c-18.667 0 -33.667 3.5 -45 10.5s-22 19.5 -32 37.5c-1.33301 2.66699 -2.66602 5.5 -3.99902 8.5
s-2.66602 5.83301 -3.99902 8.5l-199 442l-11 21.5c-3.33301 6.33301 -6.66602 11.833 -9.99902 16.5c-6 9.33301 -12.667 16 -20 20s-16.666 7 -27.999 9c-8.66699 1.33301 -15.667 5.16602 -21 11.499s-8 13.833 -8 22.5c0 27.333 17 47.5 51 60.5s85.667 19.5 155 19.5
c62.667 0 109.334 -5 140.001 -15s46 -25.667 46 -47c0 -8.66699 -2.33301 -15.5 -7 -20.5s-10 -9.5 -16 -13.5c-0.666992 -0.666992 -1.33398 -1.16699 -2.00098 -1.5s-1.33398 -0.833008 -2.00098 -1.5c-4.66699 -3.33301 -9 -7.16602 -13 -11.499s-6 -9.5 -6 -15.5
c0 -2.66699 1 -6.5 3 -11.5s4.33301 -11.167 7 -18.5l60 -136c2.66699 -6 5 -10.833 7 -14.5s4 -6.5 6 -8.5c2.66699 -3.33301 5.33398 -5.66602 8.00098 -6.99902s5.66699 -2 9 -2c4 0 7.83301 0.666992 11.5 2s7.16699 3.33301 10.5 6
c5.33301 5.33301 11.166 13.666 17.499 24.999s14.166 27 23.499 47l38 84c5.33301 11.333 9 19.666 11 24.999s3 10 3 14c0 8 -2.5 14.167 -7.5 18.5s-10.5 8.16602 -16.5 11.499c-6.66699 3.33301 -12.5 7.16602 -17.5 11.499s-7.5 10.5 -7.5 18.5
c0 21.333 12.333 36.833 37 46.5s64.334 14.5 119.001 14.5c52 0 88.667 -4.16699 110 -12.5s32 -22.833 32 -43.5c0 -10.667 -3.83301 -19.667 -11.5 -27s-18.167 -11.666 -31.5 -12.999s-23.666 -3.33301 -30.999 -6s-14 -8 -20 -16c-3.33301 -4.66699 -7 -10.5 -11 -17.5
s-8.33301 -15.5 -13 -25.5v1z" />
    <glyph glyph-name="W" unicode="W" horiz-adv-x="1040" 
d="M885 264l-61.0107 -153.003c-10 -26 -19 -46.833 -27 -62.5s-15.333 -28.167 -22 -37.5c-7.33301 -8 -15.166 -13.667 -23.499 -17s-17.833 -5 -28.5 -5c-20 0 -36 4 -48 12s-22 22 -30 42l-97 230c-2.66699 6 -5 11 -7 15s-3.66699 7 -5 9
c-2 1.33301 -3.66699 2.33301 -5 3s-3.33301 1 -6 1c-2 0 -3.66699 -0.166992 -5 -0.5s-2.66602 -0.833008 -3.99902 -1.5c-4 -3.33301 -8.5 -10 -13.5 -20s-12.5 -27.667 -22.5 -53l-67 -164l-7.5 -18l-6.5 -15c-9.33301 -16.667 -19.166 -27.667 -29.499 -33
s-24.5 -8 -42.5 -8c-20.667 0 -36.834 4.83301 -48.501 14.5s-22.5 26.834 -32.5 51.501l-180 460c-3.33301 8.66699 -6.16602 15.667 -8.49902 21s-4.5 9.33301 -6.5 12c-1.33301 2 -2.66602 3.5 -3.99902 4.5s-3 1.83301 -5 2.5c-11.333 6 -21.166 12.833 -29.499 20.5
s-12.5 18.834 -12.5 33.501c0 21.333 14.333 37.833 43 49.5s69.667 17.5 123 17.5c64 0 108.167 -4.33301 132.5 -13s36.5 -24.667 36.5 -48c0 -6 -1.16699 -11.5 -3.5 -16.5s-4.83301 -9.83301 -7.5 -14.5l-0.5 -0.5l-0.5 -0.5c-2.66699 -4.66699 -5 -9.33398 -7 -14.001
s-3 -9.66699 -3 -15c0 -3.33301 2.83301 -14.5 8.5 -33.5s12.5 -39.5 20.5 -61.5c2.66699 -8 5.5 -15.833 8.5 -23.5s6.16699 -15.167 9.5 -22.5c6 -14 12 -25.667 18 -35s11.333 -14 16 -14c6.66699 0 13.334 4.5 20.001 13.5s13.334 22.5 20.001 40.5l20 56
c0.666992 1.33301 1.16699 3 1.5 5s0.5 3.66699 0.5 5s-0.166992 2.66602 -0.5 3.99902s-1.16602 3 -2.49902 5l-14 35c-3.33301 8.66699 -7.66602 16 -12.999 22s-11 11 -17 15l-6 4l-6 4c-6.66699 4.66699 -12.5 9.83398 -17.5 15.501s-7.5 14.5 -7.5 26.5
c0 20 15.833 35.167 47.5 45.5s77.834 15.5 138.501 15.5c62.667 0 108.334 -4.5 137.001 -13.5s43 -23.5 43 -43.5c0 -8 -2.16699 -14.5 -6.5 -19.5s-9.16602 -9.83301 -14.499 -14.5c0 -0.666992 -0.166992 -1 -0.5 -1h-0.5c-5.33301 -4.66699 -10 -9.33398 -14 -14.001
s-6 -10.667 -6 -18c0 -8 1.33301 -16.5 4 -25.5s6 -17.833 10 -26.5c2 -4.66699 4.16699 -9.16699 6.5 -13.5l6.5 -12.5l10 -19.5l9 -17.5c9.33301 -19.333 16.5 -33.5 21.5 -42.5s9.5 -14.833 13.5 -17.5c2 -1.33301 3.83301 -2.16602 5.5 -2.49902s3.5 -0.5 5.5 -0.5
c2.66699 0 5.16699 0.666992 7.5 2s4.83301 3.33301 7.5 6c3.33301 4 6.83301 10.5 10.5 19.5s8.16699 20.833 13.5 35.5l24 69c3.33301 10 5.83301 18.5 7.5 25.5s2.5 12.833 2.5 17.5c0 7.33301 -1.33301 12.833 -4 16.5s-8 6.83398 -16 9.50098
c-12.667 4 -22.834 10.167 -30.501 18.5s-11.5 17.833 -11.5 28.5c0 19.333 10.667 33.333 32 42s56 13 104 13c37.333 0 65.166 -5 83.499 -15s27.5 -24.667 27.5 -44c0 -3.33301 -0.333008 -6.5 -1 -9.5s-1.66699 -5.83301 -3 -8.5c-2 -4.66699 -5.33301 -9.5 -10 -14.5
s-11 -11.167 -19 -18.5c-2 -1.33301 -3.66699 -2.66602 -5 -3.99902l-4 -4c-2 -2 -3.83301 -4 -5.5 -6s-3.16699 -4.33301 -4.5 -7c-3.33301 -4.66699 -6.66602 -11.167 -9.99902 -19.5l-14 -35.5l-85 -226v0z" />
    <glyph glyph-name="X" unicode="X" horiz-adv-x="795" 
d="M139 486l-22.9932 30.0029c-5.33301 6.66699 -11.833 12.167 -19.5 16.5s-15.5 8.16602 -23.5 11.499c-2 1.33301 -4.16699 2.5 -6.5 3.5s-4.5 1.83301 -6.5 2.5c-12 4.66699 -22.333 10.167 -31 16.5s-13 16.5 -13 30.5c0 23.333 13.167 40.5 39.5 51.5
s55.166 18.5 86.499 22.5c22 2.66699 43 4.16699 63 4.5s35.667 0.5 47 0.5c64.667 0 108.167 -4.33301 130.5 -13s33.5 -25.334 33.5 -50.001c0 -8 -1.5 -14.5 -4.5 -19.5s-6.16699 -8.83301 -9.5 -11.5l-10 -6.5c-2.66699 -1.66699 -4.33398 -3.16699 -5.00098 -4.5v-1v0
c-1.33301 -0.666992 -2.33301 -2 -3 -4s-1 -4.33301 -1 -7s1.16699 -6.5 3.5 -11.5s5.5 -10.167 9.5 -15.5l6.5 -8.5l6.5 -8.5c3.33301 -3.33301 6.66602 -6.33301 9.99902 -9s6.33301 -4 9 -4c1.33301 0 3 0.5 5 1.5s4 2.83301 6 5.5c13.333 14 23 25.167 29 33.5
s9 14.5 9 18.5c0 2.66699 -0.833008 5.16699 -2.5 7.5s-3.83398 4.5 -6.50098 6.5c-1.33301 1.33301 -2.83301 2.5 -4.5 3.5s-3.16699 2.16699 -4.5 3.5c-4.66699 3.33301 -8.83398 7.66602 -12.501 12.999s-5.5 12.333 -5.5 21c0 21.333 12.333 36.666 37 45.999
s66.334 14 125.001 14c50.667 0 86.667 -4.83301 108 -14.5s32 -25.834 32 -48.501c0 -14.667 -4.83301 -25.167 -14.5 -31.5s-27.5 -10.5 -53.5 -12.5c-2 0 -4 -0.166992 -6 -0.5s-4 -0.833008 -6 -1.5c-14 -2.66699 -28.833 -10.667 -44.5 -24
s-33.5 -32.666 -53.5 -57.999c0 -0.666992 -3.33301 -5 -10 -13l-22 -27c-0.666992 0 -1.16699 -0.333008 -1.5 -1l-0.5 -1l-21 -27c-6 -8 -9 -13 -9 -15v-0.5v-1.5c0 -0.666992 0.5 -1.66699 1.5 -3s2.83301 -3.33301 5.5 -6l186 -233
c13.333 -17.333 26.333 -29.166 39 -35.499s23.667 -11.166 33 -14.499c8.66699 -4 15.667 -8.83301 21 -14.5s8 -15.5 8 -29.5v-4c0 -1.33301 -0.333008 -2.66602 -1 -3.99902c-2 -9.33301 -7 -18.166 -15 -26.499s-17.333 -14.833 -28 -19.5
c-18.667 -6.66699 -42.834 -11.5 -72.501 -14.5s-71.5 -4.5 -125.5 -4.5c-61.333 0 -105.666 4.16699 -132.999 12.5s-41 22.166 -41 41.499c0 8 1.5 15.167 4.5 21.5s7.83301 11.5 14.5 15.5c5.33301 3.33301 9.33301 6.16602 12 8.49902s4.66699 4.16602 6 5.49902
c0.666992 1.33301 1.16699 2.66602 1.5 3.99902s0.5 3 0.5 5c0 4.66699 -2.16699 11.667 -6.5 21s-9.83301 19.333 -16.5 30c-2 4 -4.33301 7.83301 -7 11.5s-5 7.16699 -7 10.5c-6.66699 9.33301 -13 17.333 -19 24s-10.667 10 -14 10s-8 -3.5 -14 -10.5
s-15 -19.5 -27 -37.5c-10.667 -16 -18.167 -27.667 -22.5 -35s-6.5 -12.666 -6.5 -15.999c0 -4 1.16699 -7.33301 3.5 -10s5.16602 -5.66699 8.49902 -9c1.33301 -0.666992 2.66602 -1.66699 3.99902 -3l4 -4c5.33301 -4 10 -8.66699 14 -14s6 -12 6 -20
c0 -22 -13 -37.833 -39 -47.5s-67.667 -14.5 -125 -14.5c-52.667 0 -91.5 5 -116.5 15s-37.5 26 -37.5 48c0 14 4.83301 25.167 14.5 33.5s23.5 12.833 41.5 13.5c6.66699 0 12.667 0.5 18 1.5s10.666 2.5 15.999 4.5c12 5.33301 25 15.5 39 30.5s34 38.5 60 70.5l75 96
c2.66699 2.66699 4.5 5 5.5 7s1.5 3.33301 1.5 4v0.5v1.5c0 0.666992 -0.5 1.66699 -1.5 3l-4.5 6l-126 161v0z" />
    <glyph glyph-name="Y" unicode="Y" horiz-adv-x="780" 
d="M505 577c-5.33301 5.33301 -10.3369 11.335 -15.0039 18.002s-7 14.334 -7 23.001c0 20.667 11.833 35.5 35.5 44.5s62.834 13.5 117.501 13.5c58.667 0 97.334 -3.83301 116.001 -11.5s28 -23.167 28 -46.5c0 -12.667 -4.16699 -22.334 -12.5 -29.001
s-22.5 -11.667 -42.5 -15c-5.33301 -0.666992 -10.166 -1.66699 -14.499 -3s-8.83301 -3.33301 -13.5 -6c-11.333 -5.33301 -23.833 -14.333 -37.5 -27s-32.834 -32.667 -57.501 -60c-24 -26.667 -42.833 -48.334 -56.5 -65.001s-23.834 -32.334 -30.501 -47.001
c-5.33301 -13.333 -8.83301 -27.166 -10.5 -41.499s-2.5 -32.5 -2.5 -54.5c0 -6.66699 0.166992 -13.167 0.5 -19.5s0.5 -12.5 0.5 -18.5c0 -2.66699 0.166992 -5 0.5 -7s0.5 -4 0.5 -6c0 -4.66699 0.166992 -9 0.5 -13s0.5 -8.33301 0.5 -13
c0.666992 -29.333 3 -49.5 7 -60.5s12.667 -20.167 26 -27.5c1.33301 0 2.5 -0.333008 3.5 -1s2.16699 -1.33398 3.5 -2.00098c12 -6.66699 20.833 -13.5 26.5 -20.5s8.5 -15.167 8.5 -24.5c0 -23.333 -16.333 -40.333 -49 -51s-84 -16 -154 -16
c-8.66699 0 -22.167 0.166992 -40.5 0.5s-37.833 1.83301 -58.5 4.5c-26.667 3.33301 -51.167 9.66602 -73.5 18.999s-33.5 23.333 -33.5 42c0 11.333 3 20.5 9 27.5s15.333 12.5 28 16.5c21.333 8 35 22.5 41 43.5s9 66.5 9 136.5c0 16.667 -0.666992 30.334 -2 41.001
s-4 20.667 -8 30c-2.66699 7.33301 -6.66699 15 -12 23s-12 17.333 -20 28l-25.5 32.5l-31.5 38.5l-22 25l-22 23c-10.667 10 -21.334 19 -32.001 27s-20.667 13.667 -30 17c-8.66699 3.33301 -16 6.33301 -22 9s-11 5 -15 7c-6.66699 4 -11 8.33301 -13 13s-3 10.667 -3 18
c0 18.667 8.83301 32.5 26.5 41.5s47.5 15.167 89.5 18.5l25 2c8 0.666992 16.333 1 25 1c8 0.666992 16 1 24 1h25c71.333 0 121.833 -4.16699 151.5 -12.5s44.5 -22.5 44.5 -42.5c0 -6 -1.33301 -11.167 -4 -15.5s-5.66699 -8.83301 -9 -13.5l-0.5 -0.5l-0.5 -0.5
c-3.33301 -4 -6.16602 -8.16699 -8.49902 -12.5s-3.5 -9.16602 -3.5 -14.499c0 -4 1.16699 -9.33301 3.5 -16s5.5 -13.334 9.5 -20.001c4 -8 8.83301 -15.333 14.5 -22s11.167 -12 16.5 -16c3.33301 -2.66699 6.33301 -4.5 9 -5.5s5.33398 -1.5 8.00098 -1.5
s6.83398 1.66699 12.501 5s11.834 7.33301 18.501 12c6.66699 6 13.167 12.833 19.5 20.5s10.5 15.5 12.5 23.5c0.666992 2 1.16699 4 1.5 6s0.5 4 0.5 6c0 4 -0.5 7.66699 -1.5 11s-2.5 6.33301 -4.5 9v1z" />
    <glyph glyph-name="Z" unicode="Z" horiz-adv-x="686" 
d="M443 669c6.66699 0 13.3301 0.167969 19.9971 0.500977s13.334 0.833008 20.001 1.5c5.33301 0 10.5 0.333008 15.5 1s10.167 1 15.5 1l35.5 2c11.667 0.666992 23.5 1 35.5 1c13.333 0 24.166 -4 32.499 -12s12.5 -18.667 12.5 -32v-2v-2
c-0.666992 -4.66699 -2.16699 -9.83398 -4.5 -15.501s-6.5 -13.834 -12.5 -24.501l-216 -371c-12.667 -23.333 -21.834 -40.833 -27.501 -52.5s-8.5 -19.5 -8.5 -23.5c0 -8.66699 5.33301 -14.667 16 -18s28.667 -5 54 -5c35.333 0 62.333 5.66699 81 17
s35.667 32.333 51 63c0.666992 1.33301 1.33398 2.83301 2.00098 4.5s1.33398 3.16699 2.00098 4.5l6 11.5c2 3.66699 3.66699 6.5 5 8.5c4.66699 6.66699 9.5 11.167 14.5 13.5s11.167 3.5 18.5 3.5c23.333 0 40.666 -6.5 51.999 -19.5s17 -32.5 17 -58.5
c0 -9.33301 -1.16699 -21.166 -3.5 -35.499s-6.16602 -29.166 -11.499 -44.499c-7.33301 -24 -17.833 -45.833 -31.5 -65.5s-30.167 -29.5 -49.5 -29.5c-7.33301 0 -14.666 0.5 -21.999 1.5s-14.333 1.83301 -21 2.5c-7.33301 1.33301 -14.666 2.5 -21.999 3.5
s-14.666 1.5 -21.999 1.5h-424c-24.667 0 -40.167 1.83301 -46.5 5.5s-9.5 13.167 -9.5 28.5v6c0 2 0.333008 3.66699 1 5c0.666992 3.33301 2 7.16602 4 11.499s5 9.83301 9 16.5l251 427c4 6.66699 6.83301 12 8.5 16s2.5 7.33301 2.5 10
c0 9.33301 -4.83301 16.166 -14.5 20.499s-23.5 6.5 -41.5 6.5c-22.667 0 -40.5 -2.33301 -53.5 -7s-24.833 -14.334 -35.5 -29.001c-4.66699 -6 -9.16699 -13.167 -13.5 -21.5l-14.5 -28.5c-6.66699 -14.667 -13.834 -25.334 -21.501 -32.001s-16.167 -10 -25.5 -10
c-17.333 0 -32.666 7.83301 -45.999 23.5s-20 33.834 -20 54.501c0 19.333 4.5 40.333 13.5 63s21.833 47.334 38.5 74.001c6.66699 10.667 13.167 18.667 19.5 24s12.166 8 17.499 8c1.33301 0 3.16602 -0.166992 5.49902 -0.5s4.83301 -1.16602 7.5 -2.49902
c11.333 -4 26.333 -6.66699 45 -8s47.334 -2 86.001 -2c15.333 0 30 0.166992 44 0.5s27.333 0.833008 40 1.5l119 8v0z" />
    <glyph glyph-name="bracketleft" unicode="[" horiz-adv-x="499" 
d="M306 513l-0.00195312 -548c0 -31.333 3.5 -50.833 10.5 -58.5s24.167 -11.5 51.5 -11.5c5.33301 0 10.333 0.166992 15 0.5s9.66699 0.833008 15 1.5c4.66699 0.666992 9.5 1.16699 14.5 1.5s9.83301 0.5 14.5 0.5c14 0 25.167 -3 33.5 -9s12.5 -14.333 12.5 -25
c0 -21.333 -12.5 -35.833 -37.5 -43.5s-73.167 -11.5 -144.5 -11.5c-40 0 -70.5 1 -91.5 3s-35.167 5.66699 -42.5 11c-11.333 7.33301 -19.833 22.833 -25.5 46.5s-8.5 55.167 -8.5 94.5v554c0 77.333 9.83301 122.833 29.5 136.5s63.834 20.5 132.501 20.5
c71.333 0 120 -3.66699 146 -11s39 -21 39 -41c0 -12 -4.16699 -21 -12.5 -27s-21.166 -9 -38.499 -9c-4.66699 0 -9.66699 0.166992 -15 0.5s-10.333 0.833008 -15 1.5c-5.33301 0 -10.5 0.166992 -15.5 0.5s-10.167 0.5 -15.5 0.5c-24 0 -38.667 -4 -44 -12
s-8 -30.333 -8 -67v1z" />
    <glyph glyph-name="backslash" unicode="\" horiz-adv-x="472" 
d="M240 463l176.002 -402l46 -95l10 -19.5c4 -7.66699 8.33301 -15.5 13 -23.5c0.666992 -2 1.5 -4 2.5 -6s2.16699 -3.66699 3.5 -5l15 -34.5c4.66699 -11 7 -19.5 7 -25.5c0 -11.333 -7.5 -21.166 -22.5 -29.499s-33.167 -12.5 -54.5 -12.5
c-9.33301 0 -16.833 0.833008 -22.5 2.5s-11.167 5.83398 -16.5 12.501c-4.66699 6.66699 -9.83398 16.667 -15.501 30s-12.834 31.333 -21.501 54l-19 46l-29 68l-176 401l-19 38l-28 55l-2.5 5l-2.5 5c-12 23.333 -22.5 45.5 -31.5 66.5s-13.5 35.5 -13.5 43.5
c0 12 7 21.5 21 28.5s33.333 10.5 58 10.5c13.333 0 23.333 -1.83301 30 -5.5s12.667 -11.834 18 -24.501c1.33301 -2 2.5 -4.33301 3.5 -7s1.83301 -5.33398 2.5 -8.00098l16.5 -42l17.5 -42l17.5 -42.5l16.5 -42.5v1z" />
    <glyph glyph-name="bracketright" unicode="]" horiz-adv-x="499" 
d="M193 -26l-0.000976562 547.999c0 30.667 -3.66699 49.834 -11 57.501s-24.666 11.5 -51.999 11.5c-4.66699 0 -9.5 -0.166992 -14.5 -0.5s-9.83301 -0.833008 -14.5 -1.5s-9.5 -1.16699 -14.5 -1.5s-9.83301 -0.5 -14.5 -0.5c-14 0 -25.167 3 -33.5 9
s-12.5 14.333 -12.5 25c0 21.333 12.5 35.833 37.5 43.5s73.167 11.5 144.5 11.5c39.333 0 69.5 -1 90.5 -3s35.167 -5.66699 42.5 -11c11.333 -8 20 -23.667 26 -47s9 -54.666 9 -93.999v-553c0 -73.333 -8.33301 -118 -25 -134s-62.667 -24 -138 -24
c-70.667 0 -119.167 3.66699 -145.5 11s-39.5 20.666 -39.5 39.999c0 12 4.5 21.167 13.5 27.5s21.833 9.5 38.5 9.5c5.33301 0 10.5 -0.166992 15.5 -0.5s9.83301 -0.833008 14.5 -1.5c5.33301 0 10.5 -0.166992 15.5 -0.5s9.83301 -0.5 14.5 -0.5c24.667 0 39.667 4 45 12
s8 30.333 8 67v0z" />
    <glyph glyph-name="asciicircum" unicode="^" horiz-adv-x="500" 
d="M110 367h-109l192 299h113l193 -299h-109l-140 209l-140 -209v0z" />
    <glyph glyph-name="underscore" unicode="_" horiz-adv-x="500" 
d="M500 -67v-119h-500v119h500v0z" />
    <glyph glyph-name="grave" unicode="`" horiz-adv-x="500" 
d="M342 614c1.33301 -2 2.83203 -3.50098 4.49902 -4.50098s3.16699 -2.16699 4.5 -3.5c6.66699 -4.66699 12.667 -10 18 -16s8 -13.333 8 -22c0 -12.667 -4.16699 -21.834 -12.5 -27.501s-21.166 -8.5 -38.499 -8.5c-28.667 0 -57 4.83301 -85 14.5s-54 23.834 -78 42.501
c-12.667 10 -22.667 19.667 -30 29s-11 17.333 -11 24c0 15.333 10.833 28.333 32.5 39s48.5 16 80.5 16c25.333 0 45.5 -2.66699 60.5 -8s22.5 -12.333 22.5 -21c0 -2 -0.333008 -3.83301 -1 -5.5s-1.66699 -3.16699 -3 -4.5c-0.666992 -2 -1.5 -3.83301 -2.5 -5.5
s-1.5 -3.5 -1.5 -5.5c0 -5.33301 2 -10.166 6 -14.499s8.33301 -7.83301 13 -10.5c2.66699 -2 5 -3.66699 7 -5l6 -4v1z" />
    <glyph glyph-name="a" unicode="a" horiz-adv-x="567" 
d="M498 304l0.000976562 -17.4971v-16.5c-0.666992 -5.33301 -1 -10.833 -1 -16.5v-16.5c0 -40.667 2.5 -69.667 7.5 -87s12.833 -27 23.5 -29c7.33301 -0.666992 13.5 -2.33398 18.5 -5.00098s7.5 -8.33398 7.5 -17.001c0 -25.333 -10.167 -47.333 -30.5 -66
s-42.833 -31.334 -67.5 -38.001c-8 -2.66699 -15.833 -4.66699 -23.5 -6s-14.834 -2 -21.501 -2c-16.667 0 -30.334 2.33301 -41.001 7s-19.334 10 -26.001 16c-6 4.66699 -11 9 -15 13s-8 7 -12 9c-1.33301 0.666992 -2.5 1.16699 -3.5 1.5s-2.16699 0.5 -3.5 0.5
c-4 0 -10 -2.5 -18 -7.5s-18 -10.5 -30 -16.5c-11.333 -6 -24.333 -11.333 -39 -16s-31 -7 -49 -7c-46.667 0 -85 12 -115 36s-45 55 -45 93c0 48 17.333 83.5 52 106.5s73 38.167 115 45.5c10.667 1.33301 21.5 2.5 32.5 3.5s21.833 1.5 32.5 1.5
c19.333 0.666992 31.333 2.66699 36 6s7 12.333 7 27c0 33.333 -3.66699 57.833 -11 73.5s-18.666 23.5 -33.999 23.5c-11.333 0 -21.166 -3.66699 -29.499 -11s-16.5 -16 -24.5 -26c-1.33301 -2 -3 -4.33301 -5 -7s-4 -5 -6 -7c-10 -13.333 -21 -25.333 -33 -36
s-27.333 -16 -46 -16c-16 0 -29.333 4.66699 -40 14s-16 20.666 -16 33.999c0 30 14.5 54.833 43.5 74.5s60.833 34.834 95.5 45.501c19.333 6 38.5 10.5 57.5 13.5s35.167 4.5 48.5 4.5c32.667 0 61.5 -3.5 86.5 -10.5s47.167 -17.833 66.5 -32.5l1.5 -1.5
c0.333008 -0.333008 0.833008 -0.5 1.5 -0.5c20.667 -16 34.667 -33.5 42 -52.5s11 -47.5 11 -85.5v1zM212.001 144.003c0 -15.333 3.83496 -28 11.502 -38s17.5 -15 29.5 -15c13.333 0 23.166 5.5 29.499 16.5s9.5 27.833 9.5 50.5c0 17.333 -1.83301 29.333 -5.5 36
s-10.834 10 -21.501 10c-14.667 0 -27.167 -6 -37.5 -18s-15.5 -26.333 -15.5 -43v1z" />
    <glyph glyph-name="b" unicode="b" horiz-adv-x="633" 
d="M279 447l-0.992188 -9.99609c0 -3.33301 0.666992 -6 2 -8s3 -3 5 -3c1.33301 0 6.33301 3.16699 15 9.5s19.667 13.166 33 20.499c12.667 6.66699 26.5 13 41.5 19s30.167 9.66699 45.5 11h4.5h4.5c53.333 0 97.833 -20.167 133.5 -60.5s53.5 -90.5 53.5 -150.5
c0 -84 -27.333 -153 -82 -207s-124.334 -81 -209.001 -81c-22.667 0 -44.834 3 -66.501 9s-41.167 13 -58.5 21s-31.5 15.167 -42.5 21.5s-17.167 9.5 -18.5 9.5c-4.66699 0 -9.16699 -0.5 -13.5 -1.5s-8.5 -2.5 -12.5 -4.5c-0.666992 0 -1.33398 -0.166992 -2.00098 -0.5
s-1.33398 -0.5 -2.00098 -0.5c-5.33301 -2 -10.5 -3.66699 -15.5 -5s-10.167 -2 -15.5 -2c-10 0 -17.333 1.66699 -22 5s-7 8.33301 -7 15c0 6 0.666992 12.167 2 18.5s3 12.833 5 19.5c1.33301 6 2.83301 12.333 4.5 19s2.5 13.334 2.5 20.001
c1.33301 27.333 2.5 54.666 3.5 81.999s1.5 54.666 1.5 81.999v136c0 30.667 -1.16699 50.5 -3.5 59.5s-8.5 15.833 -18.5 20.5c-0.666992 0.666992 -1.33398 1.16699 -2.00098 1.5s-1.33398 0.5 -2.00098 0.5c-3.33301 1.33301 -6.33301 2.66602 -9 3.99902
s-5 2.66602 -7 3.99902c-10.667 5.33301 -18 11 -22 17s-6 13.333 -6 22c0 20.667 14.167 38.167 42.5 52.5s59.5 25.833 93.5 34.5c25.333 6.66699 49.666 11.5 72.999 14.5s40.666 4.5 51.999 4.5c9.33301 0 15.833 -2.16699 19.5 -6.5s5.5 -11.833 5.5 -22.5l-5 -190v0z
M279.008 259.004l2.00098 -72.001c1.33301 -45.333 5.16602 -75.666 11.499 -90.999s18.5 -23 36.5 -23c23.333 0 41.333 10.167 54 30.5s19 49.5 19 87.5c0 46 -7 82.167 -21 108.5s-32.667 39.5 -56 39.5c-17.333 0 -29 -6 -35 -18s-9.33301 -25.333 -10 -40
c-0.666992 -4 -1 -7.83301 -1 -11.5v-11.5v1z" />
    <glyph glyph-name="c" unicode="c" horiz-adv-x="526" 
d="M417 154c0.666992 0 1.33398 0.166016 2.00098 0.499023s1.33398 0.5 2.00098 0.5c4.66699 2.66699 9.5 5.16699 14.5 7.5s10.5 3.5 16.5 3.5c11.333 0 21.333 -5.16699 30 -15.5s13 -22.833 13 -37.5c0 -33.333 -22.167 -62.666 -66.5 -87.999s-95.166 -38 -152.499 -38
c-72.667 0 -134 23.5 -184 70.5s-75 104.833 -75 173.5c0 73.333 26.333 134.166 79 182.499s119 72.5 199 72.5c61.333 0 113 -14.167 155 -42.5s63 -62.833 63 -103.5c0 -26.667 -8.83301 -49 -26.5 -67s-39.834 -27 -66.501 -27c-25.333 0 -42.833 6.16699 -52.5 18.5
s-17.167 25.833 -22.5 40.5c-0.666992 1.33301 -1.33398 2.83301 -2.00098 4.5s-1.33398 3.16699 -2.00098 4.5c-4.66699 12.667 -10.334 24 -17.001 34s-18 15 -34 15c-18.667 0 -34.167 -7.66699 -46.5 -23s-18.5 -34.666 -18.5 -57.999c0 -38 12.5 -71 37.5 -99
s54.833 -42 89.5 -42c3.33301 0 7 0.166992 11 0.5s8 0.833008 12 1.5c8 0.666992 15.833 2 23.5 4s13.834 4 18.501 6v1z" />
    <glyph glyph-name="d" unicode="d" horiz-adv-x="650" 
d="M589 628l0.00683594 -445.999c0 -22 0.666992 -37 2 -45s5 -14.667 11 -20c1.33301 -0.666992 2.66602 -1.5 3.99902 -2.5s2.66602 -2.16699 3.99902 -3.5c4.66699 -3.33301 8.83398 -6.5 12.501 -9.5s6.5 -5.83301 8.5 -8.5c3.33301 -4 5.66602 -8 6.99902 -12
s2 -8.66699 2 -14c0 -18 -12.333 -32.5 -37 -43.5s-51.667 -18.833 -81 -23.5c-20 -4 -39.167 -6.66699 -57.5 -8s-32.833 -2 -43.5 -2c-13.333 0 -21.333 2.83301 -24 8.5s-4.33398 11.834 -5.00098 18.501v1v0v1.5v0.5c-0.666992 5.33301 -1.83398 10.166 -3.50098 14.499
s-6.16699 6.5 -13.5 6.5c-3.33301 0 -9 -2.83301 -17 -8.5s-18 -11.834 -30 -18.501c-12 -7.33301 -25.667 -13.666 -41 -18.999s-32 -8 -50 -8c-56 0 -106.833 25 -152.5 75s-68.5 105.667 -68.5 167c0 70 23.167 130.333 69.5 181s101.166 76 164.499 76
c14 0 27.167 -1.5 39.5 -4.5s23.5 -6.16699 33.5 -9.5l24.5 -10.5c7 -3 12.167 -4.5 15.5 -4.5c5.33301 0 9.16602 3.66699 11.499 11s3.5 17.666 3.5 30.999s-3.66699 22.666 -11 27.999s-15 9.66602 -23 12.999c-0.666992 0 -1.16699 0.166992 -1.5 0.5
s-0.833008 0.5 -1.5 0.5c-8 3.33301 -15.333 7.33301 -22 12s-10 12.334 -10 23.001c0 13.333 5.5 24.333 16.5 33s28.833 16.334 53.5 23.001c3.33301 0.666992 6.5 1.5 9.5 2.5s5.83301 1.83301 8.5 2.5c32.667 8 63.167 15 91.5 21s47.833 9 58.5 9
c13.333 0 23.666 -3.33301 30.999 -10s11 -16.667 11 -30v1zM324.007 383.001c-22.667 -0.666992 -40.833 -15.1689 -54.5 -43.502s-20.5 -65.5 -20.5 -111.5c0 -37.333 6.16699 -67.166 18.5 -89.499s28.833 -33.5 49.5 -33.5c22 0 37.833 11.833 47.5 35.5
s14.5 62.834 14.5 117.501c0 43.333 -4.33301 74.833 -13 94.5s-22.667 29.5 -42 29.5v1z" />
    <glyph glyph-name="e" unicode="e" horiz-adv-x="530" 
d="M470 219l-229.005 0.000976562c-5.33301 -0.666992 -9.16602 -2 -11.499 -4s-3.5 -5.33301 -3.5 -10c0 -20 8 -37.333 24 -52s33.333 -25 52 -31c5.33301 -1.33301 10.833 -2.5 16.5 -3.5s10.834 -1.5 15.501 -1.5c6 0 12.5 0.5 19.5 1.5s14.167 2.5 21.5 4.5
c10.667 2.66699 21.167 6.16699 31.5 10.5s19.166 9.16602 26.499 14.499l12 7.5c2.66699 1.66699 5.33398 2.83398 8.00098 3.50098c0.666992 0.666992 1.5 1 2.5 1h3.5c8 0 15 -3.33301 21 -10s10.667 -14 14 -22c0.666992 -3.33301 1.33398 -6.33301 2.00098 -9
s1 -5.33398 1 -8.00098c0 -11.333 -3.66699 -22.5 -11 -33.5s-18.333 -22.167 -33 -33.5c-26 -19.333 -54.167 -33.666 -84.5 -42.999s-63.166 -14 -98.499 -14c-70.667 0 -130.5 23.167 -179.5 69.5s-73.5 102.833 -73.5 169.5c0 72.667 25.333 134.167 76 184.5
s112.334 75.5 185.001 75.5c33.333 0 63.5 -4.33301 90.5 -13s51.5 -22 73.5 -40c15.333 -12 28.666 -26.167 39.999 -42.5s20 -32.833 26 -49.5c2.66699 -8.66699 4.83398 -17 6.50098 -25s2.5 -15.667 2.5 -23c0 -22.667 -4.16699 -40.834 -12.5 -54.501
s-19.833 -20.5 -34.5 -20.5v1zM252.995 310.001l50 0.000976562c10.667 -0.666992 18.5 1.33301 23.5 6s7.5 12 7.5 22c0 17.333 -5 31.666 -15 42.999s-23 17 -39 17c-15.333 0 -28.833 -6.16699 -40.5 -18.5s-17.5 -26.833 -17.5 -43.5c0 -10 2.33301 -17 7 -21
s12.667 -6 24 -6v1z" />
    <glyph glyph-name="f" unicode="f" horiz-adv-x="425" 
d="M306 395h60.0029c10.667 -0.666992 18 -2.5 22 -5.5s6 -8.16699 6 -15.5l-4 -57c-0.666992 -12 -2.5 -19.667 -5.5 -23s-9.5 -5 -19.5 -5c-2.66699 0 -5.16699 0.166992 -7.5 0.5s-4.5 0.5 -6.5 0.5c-2.66699 0 -5.16699 0.166992 -7.5 0.5s-4.83301 0.5 -7.5 0.5
c-14.667 0 -24.5 -4.33301 -29.5 -13s-7.5 -25.334 -7.5 -50.001c0 -41.333 3.66699 -70.666 11 -87.999s20.666 -29 39.999 -35c15.333 -4.66699 26.333 -10.834 33 -18.501s10 -18.167 10 -31.5c0 -22.667 -16.667 -39.167 -50 -49.5s-86.333 -15.5 -159 -15.5
c-60.667 0 -105 5.33301 -133 16s-42 27.334 -42 50.001c0 12.667 2.16699 21 6.5 25s9.5 7.33301 15.5 10c2.66699 0.666992 5.5 1.66699 8.5 3s5.83301 2.66602 8.5 3.99902c10 6 19 18.667 27 38s12 54.666 12 105.999c0 15.333 -3 26.833 -9 34.5s-16.667 11.5 -32 11.5
c-16.667 0 -27.334 0.833008 -32.001 2.5s-7 5.5 -7 11.5v2l4 62c0.666992 8.66699 3.33398 14.5 8.00098 17.5s9.66699 4.83301 15 5.5h2h2c5.33301 0.666992 10 1.83398 14 3.50098s6 6.16699 6 13.5c0 4 -1.83301 9.66699 -5.5 17l-12.5 26
c-4.66699 10 -8.83398 21 -12.501 33s-5.5 24.333 -5.5 37c0 46 19.167 82.833 57.5 110.5s89.5 41.5 153.5 41.5c56 0 102 -11.5 138 -34.5s54 -52.5 54 -88.5c0 -20 -7.16699 -37.167 -21.5 -51.5s-31.5 -21.5 -51.5 -21.5c-14.667 0 -29.167 3.33301 -43.5 10
s-27.166 16 -38.499 28c-2 2.66699 -4.16699 5.33398 -6.5 8.00098s-4.83301 5.33398 -7.5 8.00098c-6.66699 8 -14.167 15.333 -22.5 22s-17.833 10 -28.5 10c-8.66699 0 -16.334 -3.5 -23.001 -10.5s-10 -15.167 -10 -24.5c0 -18 6.16699 -32.333 18.5 -43
s26.166 -20.334 41.499 -29.001c0.666992 -0.666992 1.5 -1.16699 2.5 -1.5s1.83301 -0.833008 2.5 -1.5c12 -7.33301 23 -14.833 33 -22.5s16.667 -17.167 20 -28.5l0.5 -0.5l0.5 -0.5c1.33301 -2 3 -3.33301 5 -4s5.33301 -1 10 -1v1z" />
    <glyph glyph-name="g" unicode="g" horiz-adv-x="578" 
d="M536 513c9.33301 -0.666992 17.001 -5.49902 23.001 -14.499s9 -20.167 9 -33.5c0 -14 -2.83301 -26.5 -8.5 -37.5s-11.5 -20.5 -17.5 -28.5c-6.66699 -8.66699 -12.834 -15.834 -18.501 -21.501s-8.5 -10.5 -8.5 -14.5c0 -2 0.166992 -4 0.5 -6s0.5 -4 0.5 -6
s0.166992 -4 0.5 -6s0.5 -4 0.5 -6c0 -53.333 -23 -96.166 -69 -128.499s-106.667 -48.5 -182 -48.5c-4 0 -8.16699 0.166992 -12.5 0.5s-8.5 0.833008 -12.5 1.5c-4.66699 0 -9.16699 0.166992 -13.5 0.5s-8.5 0.5 -12.5 0.5c-8 0 -14.5 -2.33301 -19.5 -7
s-7.5 -11 -7.5 -19c0 -10.667 5.66699 -19.167 17 -25.5s26.666 -9.5 45.999 -9.5c14.667 0 29.334 0.833008 44.001 2.5s29.334 3.5 44.001 5.5s29.334 3.83301 44.001 5.5s29.334 2.5 44.001 2.5c45.333 0 80.666 -10.333 105.999 -31s38 -50 38 -88
c0 -56 -29.667 -102.333 -89 -139s-135 -55 -227 -55c-72.667 0 -131.167 11.5 -175.5 34.5s-66.5 53.833 -66.5 92.5c0 12 2.66699 22 8 30s11.333 14.667 18 20c6.66699 4.66699 12.667 8.5 18 11.5s8 5.83301 8 8.5c0 3.33301 -2.66699 7.5 -8 12.5s-11 11.167 -17 18.5
c-6.66699 6.66699 -12.667 14.334 -18 23.001s-8 17.667 -8 27c0 15.333 4 28.666 12 39.999s17 21.333 27 30c9.33301 8.66699 18 15.5 26 20.5s12 8.5 12 10.5c0 2.66699 -3.33301 7.5 -10 14.5s-14 15.833 -22 26.5c-8.66699 10.667 -16.334 23 -23.001 37
s-10 29.667 -10 47c0 46 23.5 85.5 70.5 118.5s103.5 49.5 169.5 49.5c13.333 0 26.166 -1 38.499 -3l36.5 -6l36.5 -6c11.667 -2 23.5 -3 35.5 -3c19.333 0 37.833 3.5 55.5 10.5s34.5 17.5 50.5 31.5c4 3.33301 7.33301 5.66602 10 6.99902s5 2 7 2v1zM166.001 -32.999
c-4 0 -7 -1.33301 -9 -4s-3 -6.33398 -3 -11.001c0 -19.333 10.667 -34.666 32 -45.999s49.333 -17 84 -17c29.333 0 53 4.16699 71 12.5s27 19.5 27 33.5c0 8.66699 -3.16699 16 -9.5 22s-14.166 9 -23.499 9c-6.66699 0 -13.667 -0.333008 -21 -1l-21 -2l-21.5 -2
c-7 -0.666992 -14.167 -1 -21.5 -1h-16c-4.66699 0 -9.33398 0.333008 -14.001 1c-6 0 -12.667 0.5 -20 1.5s-16.333 2.16699 -27 3.5c-2.66699 0.666992 -4.5 1 -5.5 1h-1.5v0zM271.001 411.001c-14.667 -0.666992 -27.168 -7 -37.501 -19s-15.5 -27.667 -15.5 -47
c0 -37.333 5.33301 -66.333 16 -87s25.667 -31 45 -31c16.667 0 29.834 6.66699 39.501 20s14.5 31 14.5 53c0 34.667 -5.5 61.667 -16.5 81s-26.167 29 -45.5 29v1z" />
    <glyph glyph-name="h" unicode="h" horiz-adv-x="679" 
d="M284 171c0 -4 0.166016 -7.66504 0.499023 -10.998s0.5 -7 0.5 -11v-5v-6c0 -10.667 1 -21 3 -31s6.66699 -19 14 -27c0.666992 -0.666992 1.33398 -1.5 2.00098 -2.5s1.33398 -1.83301 2.00098 -2.5h0.5h0.5l10 -14.5c3.33301 -5 5 -10.5 5 -16.5
c0 -18.667 -12.167 -32.334 -36.5 -41.001s-60.5 -13 -108.5 -13c-56 0 -97.833 4.66699 -125.5 14s-41.5 23.333 -41.5 42c0 9.33301 2.83301 16.833 8.5 22.5s11.834 11.167 18.501 16.5h0.5h0.5c0.666992 0.666992 1.33398 1.16699 2.00098 1.5
s1.33398 0.833008 2.00098 1.5c10 7.33301 17.5 23.333 22.5 48s7.83301 61.667 8.5 111c0.666992 28.667 1.16699 49.167 1.5 61.5s0.5 23.166 0.5 32.499v5v6c0 74.667 -1.66699 121.667 -5 141s-12.666 32.666 -27.999 39.999c-10.667 5.33301 -18.334 11 -23.001 17
s-7 12.667 -7 20c0 18.667 13.5 34.5 40.5 47.5s56.5 23.5 88.5 31.5c25.333 5.33301 49.166 9.5 71.499 12.5s38.5 4.5 48.5 4.5c11.333 0 19 -1.66699 23 -5s6 -9.66602 6 -18.999l-6 -204c0 -12.667 2 -22.167 6 -28.5s9.66699 -9.5 17 -9.5
c5.33301 0 11.5 4.5 18.5 13.5s15.833 18.833 26.5 29.5c11.333 10.667 25.166 20.5 41.499 29.5s36.833 13.5 61.5 13.5s48.167 -4.33301 70.5 -13s40.166 -20.334 53.499 -35.001c14.667 -14.667 24.667 -31.334 30 -50.001s8.33301 -46 9 -82l4 -176
c0.666992 -12 2.5 -22.167 5.5 -30.5s7.16699 -14.833 12.5 -19.5c1.33301 -0.666992 2.5 -1.5 3.5 -2.5l2.5 -2.5c6 -4 11.333 -8.83301 16 -14.5s7 -12.167 7 -19.5c0 -17.333 -13 -30.166 -39 -38.499s-65.333 -12.5 -118 -12.5c-48 0 -84 3.83301 -108 11.5
s-36 19.5 -36 35.5c0 6 1.33301 11.333 4 16s6 9.33398 10 14.001v1v0c0.666992 1.33301 1.5 2.5 2.5 3.5s1.83301 2.16699 2.5 3.5c7.33301 9.33301 12.666 24.166 15.999 44.499s5 49.5 5 87.5c0 50 -5.5 85.5 -16.5 106.5s-29.167 31.5 -54.5 31.5
c-18.667 0 -32.167 -6.16699 -40.5 -18.5s-12.5 -33.166 -12.5 -62.499v-93v0z" />
    <glyph glyph-name="i" unicode="i" horiz-adv-x="356" 
d="M290 453l0.00390625 -283.997c0 -21.333 1.83301 -37 5.5 -47s10.167 -19 19.5 -27l2.5 -2.5c1 -1 2.16699 -1.83301 3.5 -2.5c5.33301 -4 9.66602 -7.5 12.999 -10.5s6 -5.83301 8 -8.5s3.33301 -5.5 4 -8.5s1 -6.5 1 -10.5c0 -20.667 -13.333 -36.167 -40 -46.5
s-66 -15.5 -118 -15.5c-61.333 0 -106.166 4.33301 -134.499 13s-42.5 23 -42.5 43c0 10.667 3 19.167 9 25.5s12.667 12.166 20 17.499c0.666992 0 1 0.166992 1 0.5v0.5l1.5 1.5c0.333008 0.333008 0.833008 0.5 1.5 0.5c10.667 7.33301 18 19.5 22 36.5s6 41.833 6 74.5
v16c0 5.33301 -0.333008 11 -1 17c0 5.33301 -0.166992 10.666 -0.5 15.999s-0.5 10.666 -0.5 15.999v7v6c-1.33301 19.333 -2.5 32.166 -3.5 38.499s-3.5 11.5 -7.5 15.5c-0.666992 0.666992 -1.33398 1.16699 -2.00098 1.5s-1.33398 0.833008 -2.00098 1.5l-6.5 4.5
c-2.33301 1.66699 -4.83301 2.83398 -7.5 3.50098c-0.666992 0.666992 -1.33398 1.16699 -2.00098 1.5l-1 0.5c-8 4 -14.833 8.5 -20.5 13.5s-8.5 12.833 -8.5 23.5s3.66699 20.167 11 28.5s20.666 16.166 39.999 23.499c10.667 4.66699 23.5 9.16699 38.5 13.5
s32.5 8.83301 52.5 13.5c22 5.33301 42.167 9.5 60.5 12.5s34.833 4.83301 49.5 5.5c9.33301 0 16.333 -2.66699 21 -8s7 -12.666 7 -21.999v1zM190.004 667.003c4.66699 -0.666992 9.83301 -1.16699 15.5 -1.5s11.167 -1.16602 16.5 -2.49902
c16 -2.66699 30.667 -8.33398 44 -17.001s20 -22 20 -40c0 -26 -17.333 -48 -52 -66s-77.667 -27 -129 -27c-25.333 0 -46 5.5 -62 16.5s-24 25.5 -24 43.5c0 24.667 16.5 46 49.5 64s73.5 27.667 121.5 29v1z" />
    <glyph glyph-name="j" unicode="j" horiz-adv-x="369" 
d="M303 445l0.00390625 -432.998c0 -44.667 -3.33301 -78.834 -10 -102.501s-18.334 -42.167 -35.001 -55.5c-16 -12.667 -35.5 -23 -58.5 -31s-46.5 -13 -70.5 -15c-3.33301 -0.666992 -6.66602 -1 -9.99902 -1h-10c-31.333 0 -57.666 6.33301 -78.999 19s-32 28 -32 46
c0 8.66699 2.83301 16.334 8.5 23.001s12.5 10 20.5 10c1.33301 0 2.66602 -0.166992 3.99902 -0.5s2.66602 -0.5 3.99902 -0.5s2.66602 -0.166992 3.99902 -0.5s2.66602 -0.5 3.99902 -0.5c3.33301 -0.666992 5.66602 -1 6.99902 -1h2c8 0 14.5 2.66699 19.5 8
s7.5 12 7.5 20c0 4 -0.333008 7.83301 -1 11.5s-1 7.5 -1 11.5c-0.666992 3.33301 -1.33398 7 -2.00098 11s-1 8 -1 12v310c0 15.333 -3.16699 26.666 -9.5 33.999s-13.5 13 -21.5 17c-1.33301 0.666992 -2.5 1.16699 -3.5 1.5s-1.83301 0.833008 -2.5 1.5
c-6.66699 3.33301 -12.5 7.33301 -17.5 12s-7.5 11.667 -7.5 21c0 23.333 14.333 42.5 43 57.5s60.334 26.833 95.001 35.5c24.667 6 48.167 10.333 70.5 13s39.5 4 51.5 4c11.333 0 19.333 -2.83301 24 -8.5s7 -15.834 7 -30.501v1zM196.004 667.002
c4.66699 -0.666992 9.83301 -1.16602 15.5 -1.49902s11.167 -0.833008 16.5 -1.5c16 -2.66699 30.667 -8.33398 44 -17.001s20 -22 20 -40c0 -26.667 -17.333 -49 -52 -67s-77.667 -27 -129 -27c-25.333 0 -46 5.5 -62 16.5s-24 25.5 -24 43.5c0 24.667 16.5 46 49.5 64
s73.5 27.667 121.5 29v1z" />
    <glyph glyph-name="k" unicode="k" horiz-adv-x="734" 
d="M365 126c-2 1.33301 -4.82812 4.66016 -8.49512 9.99316s-7.83398 11 -12.501 17c-0.666992 0.666992 -1.33398 1.5 -2.00098 2.5s-1.33398 1.83301 -2.00098 2.5c-5.33301 6.66699 -10.333 12.334 -15 17.001s-8 7 -10 7c-3.33301 0 -5.83301 -1.5 -7.5 -4.5
s-2.5 -7.83301 -2.5 -14.5l-1 -19c0 -15.333 2.16699 -27.166 6.5 -35.499s8.83301 -15.166 13.5 -20.499l4 -4l4 -4c3.33301 -4 6.16602 -8.16699 8.49902 -12.5s3.5 -9.5 3.5 -15.5c0 -22.667 -12.333 -38.667 -37 -48s-64.667 -14 -120 -14h-17.5h-16.5
c-5.33301 0.666992 -10.833 1 -16.5 1h-17.5c-32.667 0.666992 -57 5.66699 -73 15s-24 23.333 -24 42c0 8.66699 2 15.334 6 20.001s8.66699 8.66699 14 12c0.666992 0.666992 1.66699 1.5 3 2.5s2.33301 1.83301 3 2.5c6 4 11.5 9.16699 16.5 15.5s8.16699 15.5 9.5 27.5
c3.33301 30 5.66602 61 6.99902 93s2 67.667 2 107v107c0 36.667 -1.83301 59.834 -5.5 69.501s-12.834 15.5 -27.501 17.5c-12.667 2 -22.5 5.66699 -29.5 11s-10.5 12 -10.5 20c0 10 3 19 9 27s15.667 15.667 29 23c5.33301 2.66699 11 5.33398 17 8.00098
s12.667 5.33398 20 8.00098c43.333 15.333 80.5 27 111.5 35s56.833 12 77.5 12c9.33301 0 16.333 -2 21 -6s7 -10 7 -18l-5 -152v-15.5v-16.5c-0.666992 -5.33301 -1 -11.166 -1 -17.499v-18.5c0 -36 1.16699 -58 3.5 -66s8.83301 -12 19.5 -12
c4.66699 0 10.167 1.5 16.5 4.5s17.833 9.16699 34.5 18.5c8.66699 4.66699 14.834 9 18.501 13s5.5 7.66699 5.5 11c0 2 -1 4.16699 -3 6.5s-4 5.16602 -6 8.49902c-2.66699 3.33301 -5 7 -7 11s-3 8.66699 -3 14c0 16 11.5 28.5 34.5 37.5s54.833 13.5 95.5 13.5
c48.667 0 84.667 -5 108 -15s35 -25.667 35 -47c0 -8 -2.83301 -14.833 -8.5 -20.5s-13.167 -9.5 -22.5 -11.5c-14.667 -2.66699 -28.667 -7.33398 -42 -14.001l-40 -21c-9.33301 -6 -16 -10.667 -20 -14s-6 -6.66602 -6 -9.99902c0 -6.66699 11.5 -26.5 34.5 -59.5
s50.833 -69.167 83.5 -108.5c6.66699 -8.66699 12.667 -15.834 18 -21.501l15 -15.5c3.33301 -3.33301 6.66602 -6.16602 9.99902 -8.49902l11 -7.5c2 -1.33301 4.5 -2.83301 7.5 -4.5l9.5 -5.5l9 -5.5c2.66699 -1.66699 5.33398 -3.16699 8.00098 -4.5
c6.66699 -5.33301 11.5 -10.666 14.5 -15.999s4.5 -11.333 4.5 -18c0 -16.667 -7.5 -29.834 -22.5 -39.501s-35.167 -14.5 -60.5 -14.5h-159c-9.33301 0 -17.166 1.16699 -23.499 3.5s-12.5 6.5 -18.5 12.5c-0.666992 1.33301 -1.33398 2.33301 -2.00098 3l-2 2l-81 105v0z
" />
    <glyph glyph-name="l" unicode="l" horiz-adv-x="365" 
d="M298 387l-0.00195312 -156v-78c0 -24.667 1.83301 -41.334 5.5 -50.001s10.834 -15.667 21.501 -21c2.66699 -1.33301 5.16699 -2.5 7.5 -3.5s4.5 -2.16699 6.5 -3.5c6.66699 -3.33301 11 -7 13 -11s3 -9.33301 3 -16c0 -22.667 -11.833 -38 -35.5 -46
s-66.5 -12 -128.5 -12c-59.333 0 -102.166 4.66699 -128.499 14s-39.5 24.666 -39.5 45.999c0 10 3.33301 17.333 10 22s14 8.66699 22 12c13.333 5.33301 22 23.166 26 53.499s6 88.166 6 173.499c0 79.333 -2.33301 130.333 -7 153s-16 39.334 -34 50.001
c-4.66699 2.66699 -8.66699 5.16699 -12 7.5s-6.33301 4.83301 -9 7.5c-5.33301 4.66699 -9.16602 9.66699 -11.499 15s-3.5 11.333 -3.5 18c0 22 14.333 40.167 43 54.5s60 25.5 94 33.5c25.333 5.33301 49.333 9.33301 72 12s40 4 52 4
c13.333 0 23.166 -3.83301 29.499 -11.5s9.5 -19.834 9.5 -36.501c0 -4 -0.333008 -12 -1 -24s-2 -28 -4 -48c-1.33301 -13.333 -2.5 -26.666 -3.5 -39.999s-1.5 -26.666 -1.5 -39.999c-0.666992 -13.333 -1.16699 -26.666 -1.5 -39.999s-0.5 -26.666 -0.5 -39.999v1z" />
    <glyph glyph-name="m" unicode="m" horiz-adv-x="964" 
d="M597 216l0.999023 -48.998c0.666992 -23.333 2.16699 -41 4.5 -53s6.83301 -22.667 13.5 -32c0.666992 -0.666992 1.33398 -1.5 2.00098 -2.5s1.33398 -2.16699 2.00098 -3.5l1.5 -1.5c0.333008 -0.333008 0.5 -0.833008 0.5 -1.5c2.66699 -4 5 -7.83301 7 -11.5
s3 -8.16699 3 -13.5c0 -20 -12.667 -34.667 -38 -44s-64 -14 -116 -14c-54.667 0 -92.667 3.66699 -114 11s-32 20.666 -32 39.999c0 8 1.16699 14 3.5 18s5.5 7.33301 9.5 10c1.33301 1.33301 2.83301 2.66602 4.5 3.99902s3.16699 3 4.5 5
c5.33301 4.66699 10.166 12.5 14.499 23.5s6.83301 28.5 7.5 52.5c0 4.66699 0.166992 9.5 0.5 14.5s0.5 9.83301 0.5 14.5c0.666992 9.33301 1.16699 19 1.5 29s0.5 19.667 0.5 29c0 33.333 -4 57.666 -12 72.999s-20.667 23 -38 23c-19.333 0 -32.333 -10.167 -39 -30.5
s-10 -62.166 -10 -125.499l1 -41c0.666992 -13.333 2.16699 -24.333 4.5 -33s5.16602 -16 8.49902 -22c2 -4.66699 3.83301 -8.66699 5.5 -12s3.16699 -6.66602 4.5 -9.99902c0.666992 -2.66699 1.33398 -5.5 2.00098 -8.5s1 -5.83301 1 -8.5
c0 -18.667 -13.167 -32.667 -39.5 -42s-64.166 -14 -113.499 -14c-48.667 0 -84.834 3.83301 -108.501 11.5s-35.5 19.834 -35.5 36.501c0 3.33301 0.166992 6 0.5 8s0.833008 4 1.5 6c1.33301 3.33301 3.83301 6.83301 7.5 10.5s9.16699 8.5 16.5 14.5
c12 11.333 20.167 29.333 24.5 54s6.5 67 6.5 127c0 31.333 -2.5 53.5 -7.5 66.5s-10.167 22.167 -15.5 27.5c-2 2 -4 3.66699 -6 5s-3.66699 2.66602 -5 3.99902c-4 2.66699 -7.16699 5.66699 -9.5 9s-3.5 8.66602 -3.5 15.999c0 8.66699 2.33301 16.334 7 23.001
s13.334 13.334 26.001 20.001c10.667 5.33301 25 11 43 17s40.333 12.667 67 20c15.333 4 31 7.66699 47 11s32 5 48 5c9.33301 0 16 -3.16699 20 -9.5s6 -16.166 6 -29.499v-4.5v-4.5c-0.666992 -2 -1 -3.83301 -1 -5.5v-4.5c0 -8.66699 1.33301 -15.667 4 -21
s6.33398 -8 11.001 -8c3.33301 0 9.33301 4.5 18 13.5s20 19.167 34 30.5c14.667 10.667 32 20.5 52 29.5s43 13.5 69 13.5c27.333 0 50.833 -5 70.5 -15s34.5 -24.667 44.5 -44c3.33301 -6 6.16602 -10.667 8.49902 -14s4.5 -5.66602 6.5 -6.99902
c0.666992 0 1.5 -0.166992 2.5 -0.5s2.16699 -0.5 3.5 -0.5c2 0 7.66699 4.16699 17 12.5s21.333 17.833 36 28.5c14.667 10 31.667 19.167 51 27.5s40 12.5 62 12.5c46.667 0 83 -12.333 109 -37s39 -59.667 39 -105c0 -10.667 -0.166992 -21.334 -0.5 -32.001
s-0.5 -21.334 -0.5 -32.001s-0.166992 -21.334 -0.5 -32.001s-0.5 -21.334 -0.5 -32.001v-36c0 -10 -0.333008 -18 -1 -24c0 -12.667 1 -24.667 3 -36s7.33301 -22.333 16 -33l2 -2c0.666992 -0.666992 1.33398 -1.66699 2.00098 -3
c3.33301 -3.33301 6.5 -7.16602 9.5 -11.499s4.5 -9.16602 4.5 -14.499c0 -20.667 -12.667 -36.167 -38 -46.5s-62 -15.5 -110 -15.5c-42.667 0 -77.334 5 -104.001 15s-40 23.333 -40 40c0 6.66699 1.66699 12.834 5 18.501l10 16.5
c1.33301 1.33301 2.5 2.66602 3.5 3.99902s1.83301 2.66602 2.5 3.99902c5.33301 7.33301 9.16602 21 11.499 41s3.5 49.667 3.5 89c0 47.333 -3.5 80.166 -10.5 98.499s-20.167 27.5 -39.5 27.5c-18 0 -31 -6.16699 -39 -18.5s-12 -32.833 -12 -61.5l-1 -48v0z" />
    <glyph glyph-name="n" unicode="n" horiz-adv-x="671" 
d="M611 306l6.99316 -171.002c0 -9.33301 1.33301 -17.666 4 -24.999s6.33398 -13.666 11.001 -18.999l3.5 -3.5l3.5 -3.5v0l1 -1c4.66699 -4.66699 9.16699 -9.83398 13.5 -15.501s6.5 -12.5 6.5 -20.5c0 -22 -12.833 -37 -38.5 -45s-73.167 -12 -142.5 -12
c-41.333 0 -71.5 3.83301 -90.5 11.5s-28.5 20.5 -28.5 38.5c0 6 1.33301 11.333 4 16s6 9 10 13l2 2l2 2c0.666992 0.666992 1.33398 1.5 2.00098 2.5s1.33398 1.83301 2.00098 2.5c6 6 10.833 21 14.5 45s5.5 53.667 5.5 89c0 46 -4.83301 78.833 -14.5 98.5
s-26.167 29.5 -49.5 29.5c-20.667 0 -35.167 -7 -43.5 -21s-12.5 -39.333 -12.5 -76v-96c0 -14 0.666992 -25 2 -33s4.33301 -15.667 9 -23c0 -0.666992 0.333008 -1.5 1 -2.5s1.33398 -1.83301 2.00098 -2.5c0.666992 -1.33301 1.5 -2.66602 2.5 -3.99902
s1.83301 -2.66602 2.5 -3.99902c4 -4.66699 7.33301 -9.66699 10 -15s4 -11 4 -17c0 -19.333 -13.167 -33.5 -39.5 -42.5s-67.833 -13.5 -124.5 -13.5c-45.333 0 -79.333 4.33301 -102 13s-34 22 -34 40c0 5.33301 0.166992 9.5 0.5 12.5s1.5 5.83301 3.5 8.5
c2 2 4.5 4.33301 7.5 7s7.16699 5.66699 12.5 9c10 7.33301 16.833 24.5 20.5 51.5s5.5 75.833 5.5 146.5c0 21.333 -2.83301 36.5 -8.5 45.5s-12.167 15.833 -19.5 20.5c-1.33301 0.666992 -2.83301 1.5 -4.5 2.5s-3.16699 1.83301 -4.5 2.5
c-5.33301 3.33301 -9.83301 7 -13.5 11s-5.5 10 -5.5 18c0 15.333 12.833 30 38.5 44s53.834 25.667 84.501 35c24 8 46.833 14.167 68.5 18.5s37.167 6.5 46.5 6.5s17.333 -3.5 24 -10.5s10 -15.5 10 -25.5v-4c0 -2 -0.333008 -4.66699 -1 -8v-4.5v-4.5
c0.666992 -5.33301 2.33398 -10.333 5.00098 -15s7.33398 -7 14.001 -7c5.33301 0 11.333 4.16699 18 12.5s15.334 17.5 26.001 27.5s24.167 19.167 40.5 27.5s37.166 12.5 62.499 12.5c20 0 39.167 -2.83301 57.5 -8.5s34.5 -13.834 48.5 -24.501
c0.666992 0 1.16699 -0.166992 1.5 -0.5s0.5 -0.833008 0.5 -1.5c20 -15.333 33.833 -33 41.5 -53s12.5 -50 14.5 -90v1z" />
    <glyph glyph-name="o" unicode="o" horiz-adv-x="602" 
d="M310 487c70 -0.666992 133.335 -22.668 190.002 -66.001s85 -102.666 85 -177.999c0 -72.667 -30.333 -133.5 -91 -182.5s-135.334 -73.5 -224.001 -73.5c-72.667 0 -133.167 21.5 -181.5 64.5s-72.5 96.833 -72.5 161.5c0 78.667 27.167 143.167 81.5 193.5
s125.166 76.833 212.499 79.5v1zM278.002 373.999c-13.333 -1.33301 -24.001 -7.16895 -32.001 -17.502s-12 -24.166 -12 -41.499c0 -11.333 1.33301 -25.666 4 -42.999s6.33398 -35.333 11.001 -54c2.66699 -12.667 6 -25.167 10 -37.5s8 -23.833 12 -34.5
c5.33301 -13.333 12 -23.333 20 -30s17.667 -10 29 -10c15.333 0 26.5 4.83301 33.5 14.5s10.5 25.167 10.5 46.5c0 13.333 -1.16699 28.333 -3.5 45s-5.83301 33.667 -10.5 51c-3.33301 13.333 -7 26.5 -11 39.5s-8.33301 25.167 -13 36.5c-4.66699 10 -11 18.167 -19 24.5
s-17.667 9.5 -29 9.5v1z" />
    <glyph glyph-name="p" unicode="p" horiz-adv-x="665" 
d="M84 177c0 7.33301 -0.166992 14.833 -0.5 22.5s-0.5 15.167 -0.5 22.5c0 29.333 -0.833008 52.5 -2.5 69.5s-7.5 26.167 -17.5 27.5c-2 0.666992 -3.83301 1.16699 -5.5 1.5s-3.5 0.833008 -5.5 1.5c-10.667 2.66699 -20.334 6.83398 -29.001 12.501s-13 15.167 -13 28.5
c0 11.333 2.5 20.833 7.5 28.5s13.167 15.167 24.5 22.5c4 2.66699 8 5 12 7l14 7c35.333 16.667 67.166 29.167 95.499 37.5s55.5 13.833 81.5 16.5c5.33301 0 10.5 0.166992 15.5 0.5s10.167 0.5 15.5 0.5c11.333 0 18.333 -2.66699 21 -8s4.33398 -11 5.00098 -17v-2v-1
v-1.5v-0.5c0 -4.66699 0.666992 -9 2 -13s4.66602 -6 9.99902 -6c2 0 7.5 2.66699 16.5 8s20.5 11.333 34.5 18c10.667 5.33301 22.167 10.166 34.5 14.499s25.166 7.5 38.499 9.5c3.33301 0.666992 6.83301 1.16699 10.5 1.5s7.16699 0.5 10.5 0.5
c52.667 0 97.5 -22.5 134.5 -67.5s55.5 -99.167 55.5 -162.5c0 -74.667 -22.167 -138.167 -66.5 -190.5s-97.166 -78.5 -158.499 -78.5c-10.667 0 -21.167 1.16699 -31.5 3.5s-20.166 4.83301 -29.499 7.5l-24 7.5c-7.33301 2.33301 -13.333 3.5 -18 3.5
s-8.16699 -2.5 -10.5 -7.5s-3.5 -11.833 -3.5 -20.5c0 -14 2 -25.167 6 -33.5s10.333 -15.5 19 -21.5c0.666992 -0.666992 1.5 -1.16699 2.5 -1.5s1.83301 -0.833008 2.5 -1.5c0 -0.666992 0.166992 -1 0.5 -1h0.5c7.33301 -4.66699 13.833 -9.83398 19.5 -15.501
s8.5 -13.167 8.5 -22.5c0 -19.333 -11.167 -34.166 -33.5 -44.499s-54.166 -15.5 -95.499 -15.5c-60 0 -112.167 9.5 -156.5 28.5s-66.5 41.5 -66.5 67.5c0 11.333 1.83301 18.833 5.5 22.5s8.5 6.83398 14.5 9.50098c2 0.666992 4.16699 1.66699 6.5 3
s4.83301 2.66602 7.5 3.99902c8 5.33301 15.5 15.333 22.5 30s10.833 41.667 11.5 81l2 107v0zM307 300l-8 -135.001c0 -17.333 3.5 -30.166 10.5 -38.499s19.5 -12.5 37.5 -12.5c23.333 0 40.333 9.33301 51 28s16 47.667 16 87c0 36 -6.33301 64.333 -19 85
s-29.667 31 -51 31c-12 0 -21 -3.83301 -27 -11.5s-9.33301 -19.167 -10 -34.5v1z" />
    <glyph glyph-name="q" unicode="q" horiz-adv-x="648" 
d="M386 478c4 -1.33301 7.83398 -2.50195 11.501 -3.50195s7.5 -1.83301 11.5 -2.5c9.33301 -2.66699 18.5 -4.83398 27.5 -6.50098s17.833 -2.5 26.5 -2.5s17.167 1.16699 25.5 3.5s16.5 5.16602 24.5 8.49902c8 2.66699 16.167 5.16699 24.5 7.5s16.833 3.5 25.5 3.5
c14 0 24.667 -2.83301 32 -8.5s11 -14.167 11 -25.5c0 -6.66699 -0.333008 -13.5 -1 -20.5s-1.66699 -14.833 -3 -23.5c-3.33301 -25.333 -6.16602 -51.166 -8.49902 -77.499s-3.83301 -52.833 -4.5 -79.5c-1.33301 -27.333 -2.16602 -54.166 -2.49902 -80.499
s-0.5 -52.166 -0.5 -77.499c0 -9.33301 0.166992 -18.666 0.5 -27.999s0.5 -18.666 0.5 -27.999c0.666992 -10 1.16699 -19.5 1.5 -28.5s0.833008 -18.167 1.5 -27.5c0.666992 -16.667 2 -28.834 4 -36.501s6 -14.5 12 -20.5c1.33301 -1.33301 3 -2.83301 5 -4.5
s4.33301 -3.5 7 -5.5c7.33301 -5.33301 12.666 -11.333 15.999 -18s5 -14.334 5 -23.001c0 -19.333 -11 -34.166 -33 -44.499s-54 -15.5 -96 -15.5c-62 0 -113 7.83301 -153 23.5s-60 35.5 -60 59.5c0 9.33301 2.5 16.5 7.5 21.5s10.833 9.83301 17.5 14.5l4 2
c1.33301 0.666992 3 1.66699 5 3c8 5.33301 15.5 12 22.5 20s10.5 20.333 10.5 37c0 8.66699 -1 15 -3 19s-5.33301 6 -10 6c-4 0 -10 -1.66699 -18 -5l-27 -11l-33.5 -10c-11.667 -3.33301 -23.5 -5.33301 -35.5 -6h-2h-2c-62.667 0 -114.334 23.333 -155.001 70
s-61 106.667 -61 180c0 75.333 26 135.666 78 180.999s121 68 207 68c15.333 0 30.166 -0.666992 44.499 -2s27.5 -3.66602 39.5 -6.99902v1zM316.001 379.998c-18 -0.666992 -32.667 -11.833 -44 -33.5s-17 -49.834 -17 -84.501c0 -43.333 7.16699 -79.666 21.5 -108.999
s31.833 -44 52.5 -44c18 0 29.833 8.16699 35.5 24.5s8.5 49.833 8.5 100.5c0 56 -4 94.167 -12 114.5s-23 30.5 -45 30.5v1z" />
    <glyph glyph-name="r" unicode="r" horiz-adv-x="535" 
d="M286 449l-0.00683594 -2.99414c0 -0.666992 0.333008 -1.66699 1 -3v-2v-3v-3.5c0 -1 0.333008 -1.83301 1 -2.5c0.666992 -6.66699 2 -12.5 4 -17.5s6 -7.5 12 -7.5c4 0 9 3.83301 15 11.5s13.667 16.5 23 26.5c9.33301 9.33301 20.5 17.833 33.5 25.5
s28.833 11.5 47.5 11.5c30.667 0 55.834 -10.333 75.501 -31s29.5 -47 29.5 -79c0 -31.333 -11.333 -58.333 -34 -81s-50.334 -34 -83.001 -34c-6.66699 0 -12.667 0.5 -18 1.5s-10.666 2.83301 -15.999 5.5c-7.33301 2.66699 -14.833 7.16699 -22.5 13.5
s-16.834 14.5 -27.501 24.5c-2 2 -4 3.83301 -6 5.5s-3.66699 2.83398 -5 3.50098c-1.33301 0 -2.66602 0.166992 -3.99902 0.5s-2.66602 0.5 -3.99902 0.5c-8.66699 0 -14.5 -5.16699 -17.5 -15.5s-4.5 -32.166 -4.5 -65.499c0 -54 1.83301 -87.833 5.5 -101.5
s14.167 -23.5 31.5 -29.5c0.666992 0 1.33398 -0.166992 2.00098 -0.5s1.33398 -0.5 2.00098 -0.5c14 -4 24.833 -10 32.5 -18s11.5 -17.333 11.5 -28c0 -24.667 -13.667 -41.334 -41 -50.001s-78.333 -13 -153 -13c-56.667 0 -98.667 5 -126 15s-41 25.667 -41 47
c0 6 1 11.5 3 16.5s5 9.83301 9 14.5l8.5 6.5l9.5 7.5c0.666992 0.666992 1.33398 1.16699 2.00098 1.5s1.33398 0.833008 2.00098 1.5c12 8.66699 19.667 20.167 23 34.5s5.33301 42.166 6 83.499c0.666992 24 1 42.833 1 56.5v24.5c0 17.333 -3 29.166 -9 35.499
s-12.667 11.166 -20 14.499l-3 1.5c-0.666992 0.333008 -1.33398 0.5 -2.00098 0.5c-6.66699 3.33301 -12.5 7.16602 -17.5 11.499s-7.5 12.166 -7.5 23.499c0 19.333 12.833 35.666 38.5 48.999s53.834 23.666 84.501 30.999c22 6 43.167 10.333 63.5 13s35.833 4 46.5 4
c14.667 0 24.334 -2.16699 29.001 -6.5s7.66699 -13.833 9 -28.5v1z" />
    <glyph glyph-name="s" unicode="s" horiz-adv-x="477" 
d="M199 -7c-2.66699 0 -5.49902 0.337891 -8.49902 1.00488s-5.83301 1 -8.5 1c-6 1.33301 -12 2.33301 -18 3s-12 1 -18 1h-2.5h-2.5c-1.33301 0 -2.83301 -0.166992 -4.5 -0.5s-3.5 -0.5 -5.5 -0.5c-4 -1.33301 -7 -2 -9 -2h-3c-1.33301 -0.666992 -2.83301 -1 -4.5 -1
h-4.5c-8 0 -14.5 0.666992 -19.5 2s-9.83301 3.66602 -14.5 6.99902c-2 1.33301 -3.83301 3 -5.5 5s-3.5 4.33301 -5.5 7c-6.66699 8 -12.834 17.167 -18.501 27.5s-10.5 20.5 -14.5 30.5s-7 19.833 -9 29.5s-3 18.5 -3 26.5c0 14 3.16699 25 9.5 33s14.833 12 25.5 12
c12 0 22.5 -4 31.5 -12s17.833 -17.333 26.5 -28c1.33301 -1.33301 2.5 -2.66602 3.5 -3.99902s2.16699 -2.33301 3.5 -3c9.33301 -12 19.5 -23 30.5 -33s24.167 -15 39.5 -15c11.333 0 20.166 2.83301 26.499 8.5s9.5 13.834 9.5 24.501c0 3.33301 -1 6.66602 -3 9.99902
s-5 6.66602 -9 9.99902c-8.66699 7.33301 -20.334 15 -35.001 23s-30 17 -46 27c-23.333 14.667 -44.666 33.167 -63.999 55.5s-29 50.833 -29 85.5c0 47.333 16.167 86.166 48.5 116.499s73.5 45.5 123.5 45.5c8.66699 0 17.167 -0.666992 25.5 -2l24.5 -4
c8 -2 16.167 -3.66699 24.5 -5s16.833 -2 25.5 -2c4.66699 0 9 0.666992 13 2s8.33301 3 13 5l12 4c4 1.33301 8.33301 2 13 2h2.5h2.5c13.333 -2.66699 26.166 -11.167 38.499 -25.5s22.5 -29.833 30.5 -46.5c4.66699 -10 8.16699 -19.5 10.5 -28.5s3.5 -16.833 3.5 -23.5
c0 -14 -4.5 -25.5 -13.5 -34.5s-20.5 -13.5 -34.5 -13.5c-13.333 0 -25.166 4 -35.499 12s-20.166 16.667 -29.499 26l-4 4c-1.33301 1.33301 -3 2.66602 -5 3.99902c-7.33301 8 -15.166 15 -23.499 21s-17.5 9 -27.5 9c-8.66699 0 -16.5 -3.33301 -23.5 -10
s-10.5 -14.334 -10.5 -23.001c0 -7.33301 2.83301 -14 8.5 -20s13.167 -11.667 22.5 -17c10 -6.66699 21.333 -13.167 34 -19.5l40 -20.5c26 -14.667 49.833 -33 71.5 -55s32.5 -51.333 32.5 -88c0 -42.667 -17.833 -78.334 -53.5 -107.001s-79.834 -43 -132.501 -43
c-6 0 -11.833 0.166992 -17.5 0.5s-11.167 0.833008 -16.5 1.5l-16.5 2l-17.5 2v0z" />
    <glyph glyph-name="t" unicode="t" horiz-adv-x="463" 
d="M308 359l-0.00585938 -164.994c0 -20 4.83301 -36.333 14.5 -49s21.834 -19 36.501 -19c12.667 0 21.834 1.16699 27.501 3.5s10.167 4.83301 13.5 7.5l2 2c0.666992 0.666992 1.33398 1 2.00098 1c2 2.66699 4.5 4.66699 7.5 6s7.16699 2 12.5 2
c7.33301 0 13.5 -3 18.5 -9s8.5 -12.667 10.5 -20c1.33301 -2.66699 2.16602 -5.33398 2.49902 -8.00098s0.5 -5.33398 0.5 -8.00098c0 -25.333 -12.167 -46.5 -36.5 -63.5s-51.166 -29.833 -80.499 -38.5c-16 -4.66699 -31.667 -8.16699 -47 -10.5
s-28.666 -3.5 -39.999 -3.5c-50.667 0 -91.667 14.667 -123 44s-47 68 -47 116v226c0 6.66699 -1 11 -3 13s-6.66699 3 -14 3l-50 1c-9.33301 -0.666992 -15.166 0.666016 -17.499 3.99902s-3.5 10.333 -3.5 21l-1 23c0.666992 0 1 0.333008 1 1v2
c0.666992 3.33301 1.83398 6.66602 3.50098 9.99902s3.83398 5.66602 6.50098 6.99902l224 142c2.66699 0.666992 5.5 1.33398 8.5 2.00098s6.83301 1 11.5 1l40 1c8 -0.666992 13.333 -2.83398 16 -6.50098s4 -10.834 4 -21.501v-66c0 -10 1.5 -16.5 4.5 -19.5
s9.83301 -4.5 20.5 -4.5l90 1c12 -0.666992 19.833 -3.16699 23.5 -7.5s5.5 -13.833 5.5 -28.5v-28c0 -16 -2.33301 -27 -7 -33s-13 -9 -25 -9l-88 1c-8.66699 -0.666992 -14.834 -2.5 -18.501 -5.5s-5.5 -9.16699 -5.5 -18.5v1z" />
    <glyph glyph-name="u" unicode="u" horiz-adv-x="678" 
d="M617 386l-1.00293 -34.001v-215c0 -8.66699 2.5 -15.167 7.5 -19.5s10.5 -8.16602 16.5 -11.499c0.666992 -0.666992 1.16699 -1 1.5 -1h0.5c6.66699 -4 12.667 -8.33301 18 -13s8 -11.667 8 -21c0 -22 -22.167 -41 -66.5 -57s-96.166 -24 -155.499 -24
c-17.333 0 -28.666 2.83301 -33.999 8.5s-8.33301 12.167 -9 19.5c-0.666992 0.666992 -1 1.66699 -1 3v4c-0.666992 6 -1.83398 11 -3.50098 15s-6.16699 6 -13.5 6c-4 0 -10.667 -3 -20 -9s-20.666 -12.333 -33.999 -19c-12.667 -7.33301 -27 -13.833 -43 -19.5
s-33 -8.5 -51 -8.5c-67.333 0 -111.333 19.833 -132 59.5s-31 88.834 -31 147.501v17.5c0 5.66699 0.333008 11.5 1 17.5v16.5v17.5c0 39.333 -2.16699 66.166 -6.5 80.499s-14.166 25.5 -29.499 33.5l-15 8.5c-4 2.33301 -7 4.5 -9 6.5
c-2 2.66699 -3.33301 5.33398 -4 8.00098s-1 6 -1 10c0 12 4.66699 22 14 30s23.333 14.333 42 19c14 2.66699 29 5.33398 45 8.00098s32.333 4.66699 49 6c16.667 2 33.5 3.5 50.5 4.5s32.5 1.5 46.5 1.5c9.33301 0 16.5 -2 21.5 -6s7.5 -10 7.5 -18v-264
c0 -28.667 5 -50.167 15 -64.5s24.333 -21.5 43 -21.5c22 0 36.833 9.16699 44.5 27.5s11.5 54.166 11.5 107.499c0 54 -1.33301 88.5 -4 103.5s-10.667 25.833 -24 32.5l-1.5 1.5c-0.333008 0.333008 -0.833008 0.5 -1.5 0.5c-8.66699 4.66699 -15.5 10.167 -20.5 16.5
s-7.5 12.833 -7.5 19.5c0 10 4.16699 18.833 12.5 26.5s20.166 13.167 35.499 16.5c12.667 3.33301 26.167 6.16602 40.5 8.49902s28.833 4.5 43.5 6.5c16.667 2 33.334 3.66699 50.001 5s32 2 46 2c16 0 28.167 -4.5 36.5 -13.5s12.5 -22.167 12.5 -39.5
c0 -4 -0.166992 -7.83301 -0.5 -11.5s-0.5 -7.16699 -0.5 -10.5v-10.5v-11.5v1z" />
    <glyph glyph-name="v" unicode="v" horiz-adv-x="627" 
d="M529 333l-125.998 -245.994c-12.667 -24.667 -23.834 -44.334 -33.501 -59.001s-19.167 -25 -28.5 -31c-5.33301 -4 -10.5 -6.83301 -15.5 -8.5s-10.5 -2.5 -16.5 -2.5c-14 0 -28.333 7.5 -43 22.5s-30 37.833 -46 68.5l-139 264c-4.66699 8.66699 -10 16 -16 22
s-12 11 -18 15c-4.66699 2.66699 -9.33398 5 -14.001 7s-9 4 -13 6c-8 3.33301 -14.333 7.33301 -19 12s-7 12 -7 22c0 20 15.167 34.5 45.5 43.5s78.5 13.5 144.5 13.5c55.333 0 96 -3.83301 122 -11.5s39 -19.834 39 -36.501c0 -6.66699 -1.83301 -12.5 -5.5 -17.5
s-7.83398 -9.83301 -12.501 -14.5h-0.5c-0.333008 0 -0.5 -0.333008 -0.5 -1c-4 -4 -7.83301 -8.33301 -11.5 -13s-5.5 -10.334 -5.5 -17.001c0 -4.66699 1.16699 -10.834 3.5 -18.501s5.5 -15.5 9.5 -23.5c5.33301 -11.333 11.5 -21.666 18.5 -30.999
s14.167 -15.666 21.5 -18.999c1.33301 0 2.66602 -0.166992 3.99902 -0.5s2.66602 -0.5 3.99902 -0.5c2.66699 0 5.33398 0.333008 8.00098 1s5.33398 2 8.00098 4c3.33301 2.66699 6.83301 6.66699 10.5 12s7.83398 12.666 12.501 21.999c0.666992 2 1.5 3.83301 2.5 5.5
s2.16699 3.16699 3.5 4.5c4.66699 8 9 16.333 13 25s6 17.667 6 27c0 5.33301 -1.66699 10.166 -5 14.499s-7 8.5 -11 12.5v0.5v0.5c-4.66699 4 -8.66699 8.33301 -12 13s-5 10 -5 16c0 16.667 9.83301 28.5 29.5 35.5s52.834 10.5 99.501 10.5c37.333 0 64 -3.33301 80 -10
s24 -18 24 -34c0 -8 -2.83301 -14.833 -8.5 -20.5s-14.834 -10.5 -27.501 -14.5c-2.66699 -0.666992 -5.16699 -1.5 -7.5 -2.5s-4.5 -1.83301 -6.5 -2.5c-6 -2 -11 -4.33301 -15 -7s-8 -6.33398 -12 -11.001s-8.16699 -10.834 -12.5 -18.501s-9.5 -17.5 -15.5 -29.5v1z" />
    <glyph glyph-name="w" unicode="w" horiz-adv-x="989" 
d="M531 165c-1.33301 1.33301 -2.83594 3.50195 -4.50293 6.50195s-3.5 5.83301 -5.5 8.5c-3.33301 5.33301 -7.16602 10.333 -11.499 15s-9.16602 7 -14.499 7c-3.33301 0 -6.5 -0.666992 -9.5 -2s-5.83301 -3 -8.5 -5c-2.66699 -2.66699 -5.5 -6 -8.5 -10
s-6.16699 -9 -9.5 -15l-82 -140c-7.33301 -14 -15.5 -24.167 -24.5 -30.5s-18.5 -9.5 -28.5 -9.5c-6 0 -11.667 1 -17 3s-10.666 4.66699 -15.999 8c-5.33301 4.66699 -10.666 10.334 -15.999 17.001s-11 15 -17 25l-146 245c-16.667 27.333 -31 47.833 -43 61.5
s-23 21.834 -33 24.501c-0.666992 0 -1.5 0.166992 -2.5 0.5s-1.83301 0.833008 -2.5 1.5c-9.33301 2.66699 -17.666 6.66699 -24.999 12s-11 13.666 -11 24.999c0 22 16.167 39 48.5 51s77.833 18 136.5 18c52 0 91 -4.66699 117 -14s39 -23.666 39 -42.999
c0 -4 -1 -7.83301 -3 -11.5s-4 -6.83398 -6 -9.50098c0 -0.666992 -0.166992 -1.16699 -0.5 -1.5l-1.5 -1.5c-2 -2.66699 -3.66699 -5.33398 -5 -8.00098s-2 -5.66699 -2 -9c0 -4 1.66699 -10.667 5 -20s7.66602 -19.333 12.999 -30c4 -7.33301 8.16699 -14.5 12.5 -21.5
s8.83301 -13.167 13.5 -18.5c3.33301 -4 6.83301 -7.16699 10.5 -9.5s7.16699 -3.5 10.5 -3.5c2.66699 0 5 0.333008 7 1s4 1.66699 6 3c2.66699 2 5.16699 4.66699 7.5 8l8.5 12c0.666992 2 1.66699 3.83301 3 5.5s2.66602 3.5 3.99902 5.5c2.66699 4 5 8.16699 7 12.5
s3 8.83301 3 13.5c0 11.333 -3 20.333 -9 27s-12.667 12.667 -20 18c-1.33301 0 -2.33301 0.333008 -3 1l-2 2c-6.66699 4.66699 -12.5 9.66699 -17.5 15s-7.5 12 -7.5 20c0 19.333 15.5 33.833 46.5 43.5s78.833 14.5 143.5 14.5c50 0 85.667 -4.33301 107 -13
s32 -22.667 32 -42c0 -6 -1.66699 -11.333 -5 -16s-6.66602 -9 -9.99902 -13c-0.666992 -0.666992 -1.16699 -1 -1.5 -1s-0.5 -0.333008 -0.5 -1c-3.33301 -4 -6.5 -8 -9.5 -12s-4.5 -8.66699 -4.5 -14c0 -4 1.66699 -10 5 -18s7.33301 -16.667 12 -26l8 -13.5l8 -12.5
c4.66699 -6.66699 9 -12 13 -16s7.66699 -6 11 -6h3c0.666992 0 1.66699 0.333008 3 1c6 2 12.167 6.83301 18.5 14.5s13.5 18.5 21.5 32.5c7.33301 14 12.333 24 15 30s4 11.333 4 16v0.5v1.5c0 1.33301 -0.166992 2.66602 -0.5 3.99902s-0.5 2.66602 -0.5 3.99902l-2 4
c-0.666992 1.33301 -1.66699 2.66602 -3 3.99902c-0.666992 1.33301 -1.33398 2.5 -2.00098 3.5s-1.66699 1.83301 -3 2.5v1l-1 1c-3.33301 4.66699 -6.66602 9.83398 -9.99902 15.501s-5 11.834 -5 18.501c0 16.667 9.66699 29 29 37s48.666 12 87.999 12
c41.333 0 71 -4 89 -12s27 -21 27 -39c0 -10.667 -3.5 -18.334 -10.5 -23.001s-14.833 -8.33398 -23.5 -11.001c-1.33301 -0.666992 -2.83301 -1.33398 -4.5 -2.00098s-3.16699 -1 -4.5 -1c-0.666992 -0.666992 -1.5 -1.16699 -2.5 -1.5s-1.83301 -0.5 -2.5 -0.5
c-6.66699 -2.66699 -12.5 -5.66699 -17.5 -9s-9.83301 -7.66602 -14.5 -12.999c-4 -4.66699 -8 -10.5 -12 -17.5l-14 -25.5l-122 -235c-18 -35.333 -34.833 -61.5 -50.5 -78.5s-30.5 -25.5 -44.5 -25.5c-8 0 -16.833 3.83301 -26.5 11.5s-19.5 17.834 -29.5 30.501
c-6.66699 8 -13 16.333 -19 25l-18 27l-28 46.5l-21 35.5v1z" />
    <glyph glyph-name="x" unicode="x" horiz-adv-x="602" 
d="M480 312c-1.33301 -2.66699 -3.83301 -6.33398 -7.5 -11.001l-11.5 -15c-0.666992 -1.33301 -1.5 -2.66602 -2.5 -3.99902s-1.83301 -2.33301 -2.5 -3c-4 -6 -7.5 -11.667 -10.5 -17s-4.5 -9.66602 -4.5 -12.999c0 -4 4.83301 -13.833 14.5 -29.5
s21.167 -32.5 34.5 -50.5l7 -9c2.66699 -3.33301 5 -6.66602 7 -9.99902c11.333 -15.333 22.333 -28.666 33 -39.999s18.667 -18.333 24 -21c1.33301 -0.666992 2.83301 -1.33398 4.5 -2.00098s3.5 -1.33398 5.5 -2.00098c8 -4 15.167 -8.66699 21.5 -14s9.5 -13 9.5 -23
c0 -22.667 -13.5 -38 -40.5 -46s-76.833 -12 -149.5 -12c-63.333 0 -106.166 3.5 -128.499 10.5s-33.5 20.833 -33.5 41.5c0 8.66699 2.16699 15.167 6.5 19.5s8.83301 7.83301 13.5 10.5c0.666992 0 1.33398 0.166992 2.00098 0.5s1.33398 0.833008 2.00098 1.5
c4 2 7.66699 4.5 11 7.5s5 7.16699 5 12.5c0 4 -1 8.83301 -3 14.5s-4.66699 11.834 -8 18.501s-7.33301 13 -12 19s-9.33398 11 -14.001 15c-2.66699 2 -5.33398 3.66699 -8.00098 5s-5.33398 2 -8.00098 2s-6.5 -2.33301 -11.5 -7s-9.83301 -10.667 -14.5 -18
c-2.66699 -3.33301 -5.16699 -6.83301 -7.5 -10.5l-7.5 -11.5c-4.66699 -8 -8.5 -15.667 -11.5 -23s-4.5 -13 -4.5 -17c0 -4.66699 1.16699 -8.83398 3.5 -12.501s4.83301 -7.16699 7.5 -10.5v-0.5v-0.5c3.33301 -3.33301 6.16602 -7 8.49902 -11s3.5 -8.66699 3.5 -14
c0 -14.667 -8.16699 -25.334 -24.5 -32.001s-42.166 -10 -77.499 -10c-34.667 0 -60.167 3.5 -76.5 10.5s-24.5 17.833 -24.5 32.5c0 11.333 2.5 19.5 7.5 24.5s14.5 8.83301 28.5 11.5c4.66699 0.666992 8.83398 1.66699 12.501 3s7.16699 3.33301 10.5 6
c5.33301 4 11.166 10.5 17.499 19.5s15.166 22.5 26.499 40.5l17.5 28l17.5 28l17.5 28l17.5 28c1.33301 3.33301 2.5 5.83301 3.5 7.5s1.5 2.83398 1.5 3.50098v1.5v0.5c-0.666992 0.666992 -1.5 1.66699 -2.5 3l-4.5 6c-0.666992 0.666992 -1.33398 1.5 -2.00098 2.5
s-1.33398 1.83301 -2.00098 2.5l-12 16c-4 5.33301 -8 11 -12 17c-12 16.667 -25.5 32.5 -40.5 47.5s-32.5 24.833 -52.5 29.5c-12 2.66699 -21.5 7 -28.5 13s-10.5 13 -10.5 21c0 21.333 16.167 36.833 48.5 46.5s84.5 14.5 156.5 14.5c54.667 0 93.334 -3.5 116.001 -10.5
s34 -19.167 34 -36.5c0 -4.66699 -1 -8.83398 -3 -12.501l-6 -10.5c-0.666992 -0.666992 -1 -1.16699 -1 -1.5s-0.333008 -0.5 -1 -0.5c-2 -3.33301 -3.83301 -6.66602 -5.5 -9.99902s-2.5 -7 -2.5 -11c0 -2.66699 1 -6.16699 3 -10.5s4.33301 -8.83301 7 -13.5
c2 -3.33301 4.16699 -6.5 6.5 -9.5s4.83301 -5.83301 7.5 -8.5s5.33398 -4.83398 8.00098 -6.50098s5 -2.5 7 -2.5c3.33301 0 7.33301 2 12 6s9.66699 10.333 15 19c6 8.66699 10 15.167 12 19.5s3 7.83301 3 10.5c0 4 -1 7.83301 -3 11.5l-6 10.5
c-2.66699 3.33301 -5 6.83301 -7 10.5s-3 7.5 -3 11.5c0 16 8 27.5 24 34.5s41.667 10.5 77 10.5c30.667 0 53 -3.5 67 -10.5s21 -18.167 21 -33.5c0 -6.66699 -1.66699 -12.5 -5 -17.5s-8.66602 -9.16699 -15.999 -12.5c-17.333 -8 -31 -16.5 -41 -25.5
s-19 -19.167 -27 -30.5c-4.66699 -6 -9.16699 -12.333 -13.5 -19s-9.5 -14 -15.5 -22v1z" />
    <glyph glyph-name="y" unicode="y" horiz-adv-x="619" 
d="M484 246l-65.001 -177.005c-22 -61.333 -52 -116.666 -90 -165.999s-94 -74 -168 -74c-43.333 0 -79 10.667 -107 32s-42 48.666 -42 81.999c0 24.667 8.16699 45.334 24.5 62.001s36.166 25 59.499 25c21.333 0 37 -5.16699 47 -15.5s18 -21.833 24 -34.5
c1.33301 -4 2.83301 -8 4.5 -12s3.16699 -8 4.5 -12c3.33301 -7.33301 6.66602 -13.5 9.99902 -18.5s7.66602 -7.5 12.999 -7.5c10.667 0 19.5 4.33301 26.5 13s10.5 19.667 10.5 33v1.5v0.5c0 8.66699 -2 18.167 -6 28.5s-10.667 25.5 -20 45.5l-117 251
c-8.66699 18.667 -16.667 32.834 -24 42.501s-14.666 16.167 -21.999 19.5c-2 0.666992 -3.83301 1.33398 -5.5 2.00098s-3.16699 1.66699 -4.5 3c-9.33301 4 -17.833 9.16699 -25.5 15.5s-11.5 15.166 -11.5 26.499c0 17.333 9 31.166 27 41.499s46.333 17.833 85 22.5
l20 2l20 2c11.333 0.666992 22.5 1.16699 33.5 1.5s21.167 0.5 30.5 0.5c42 0 73 -4.83301 93 -14.5s30 -25.167 30 -46.5c0 -4.66699 -1 -9.16699 -3 -13.5s-4.33301 -8.5 -7 -12.5l-0.5 -0.5l-0.5 -0.5c-2.66699 -4 -5.16699 -8.33301 -7.5 -13s-3.5 -9.66699 -3.5 -15
c0 -4.66699 1.5 -11.334 4.5 -20.001s6.5 -18 10.5 -28c4 -8 8.33301 -15.833 13 -23.5s9.33398 -14.167 14.001 -19.5c3.33301 -2.66699 6.5 -5 9.5 -7s5.83301 -3 8.5 -3c8.66699 0 16 4.66699 22 14s11 19.666 15 30.999c3.33301 9.33301 5.83301 18.166 7.5 26.499
s2.5 13.833 2.5 16.5c0 9.33301 -1.5 17 -4.5 23s-6.5 11.333 -10.5 16c-0.666992 0.666992 -1.16699 1.33398 -1.5 2.00098s-0.833008 1.33398 -1.5 2.00098c-3.33301 4.66699 -6.16602 9.33398 -8.49902 14.001s-3.5 10.334 -3.5 17.001c0 16.667 10.833 30 32.5 40
s50.5 15 86.5 15c35.333 0 61.833 -4.16699 79.5 -12.5s26.5 -21.166 26.5 -38.499c0 -10 -2.33301 -18 -7 -24s-12.667 -11.667 -24 -17c-2.66699 -1.33301 -5.5 -2.66602 -8.5 -3.99902s-6.16699 -2.66602 -9.5 -3.99902c-8 -2.66699 -15.167 -6.5 -21.5 -11.5
s-12.5 -12.167 -18.5 -21.5c-6.66699 -10 -13.667 -23.333 -21 -40s-15.666 -38 -24.999 -64v1z" />
    <glyph glyph-name="z" unicode="z" horiz-adv-x="514" 
d="M267 474l130.002 -0.00195312c37.333 -0.666992 60.666 -2.66699 69.999 -6s14 -12.333 14 -27c0 -5.33301 -1.33301 -12 -4 -20s-6.66699 -16.667 -12 -26l-129 -229c-6.66699 -11.333 -11 -19.833 -13 -25.5s-3 -10.834 -3 -15.501c0 -7.33301 3 -13 9 -17
s14.333 -6 25 -6c18 0 32 4.33301 42 13s18 18 24 28c2.66699 3.33301 5 6.83301 7 10.5l6 10.5c4 5.33301 8 10 12 14s8.66699 6 14 6c14 0 25.5 -5.66699 34.5 -17s13.5 -26.333 13.5 -45c0 -7.33301 -1.33301 -16.166 -4 -26.499s-6.33398 -21.166 -11.001 -32.499
c-8.66699 -19.333 -20 -37.166 -34 -53.499s-29.333 -24.5 -46 -24.5c-4.66699 0 -9.66699 0.833008 -15 2.5s-11 3.16699 -17 4.5c-6.66699 2 -13.5 3.83301 -20.5 5.5s-14.5 2.5 -22.5 2.5h-256c-20.667 0 -36.667 3.16699 -48 9.5s-17 14.833 -17 25.5
c0 4 0.5 7.83301 1.5 11.5s2.16699 6.83398 3.5 9.50098c0 2 1.5 5.83301 4.5 11.5s6.83301 11.5 11.5 17.5c0 0.666992 0.166992 1.16699 0.5 1.5l1.5 1.5l9.5 15l6.5 10l112 180c11.333 18 19.333 31.667 24 41s7 16.333 7 21c0 7.33301 -3.33301 12.5 -10 15.5
s-17 4.5 -31 4.5c-16 0 -28.333 -4.16699 -37 -12.5s-16.334 -17.166 -23.001 -26.499l-2 -4c-0.666992 -1.33301 -1.33398 -2.33301 -2.00098 -3c-5.33301 -8.66699 -11.166 -16.334 -17.499 -23.001s-15.166 -10 -26.499 -10c-12 0 -22.167 4.83301 -30.5 14.5
s-12.5 21.5 -12.5 35.5c0 8 1 16.833 3 26.5s4.66699 19.167 8 28.5c6 17.333 13.833 33.666 23.5 48.999s19.5 26.666 29.5 33.999c3.33301 2 6.5 3.66699 9.5 5s6.16699 2 9.5 2c2 0 4.5 -0.166992 7.5 -0.5s6.16699 -1.16602 9.5 -2.49902
c5.33301 -2 10.666 -3.66699 15.999 -5l16 -4c8 -1.33301 15.833 -2.33301 23.5 -3s15.834 -1 24.501 -1l81 -1v0z" />
    <glyph glyph-name="braceleft" unicode="{" horiz-adv-x="499" 
d="M306 -5l-0.00195312 -37.0059c0 -25.333 5 -41.666 15 -48.999s32 -11 66 -11h8h8c2.66699 0.666992 5.33398 1 8.00098 1h8c18.667 0 32.334 -2.83301 41.001 -8.5s13 -14.834 13 -27.501c0 -20.667 -13.333 -34.667 -40 -42s-77 -11 -151 -11
c-51.333 0 -90.666 9.83301 -117.999 29.5s-41 57.834 -41 114.501v153c0 30.667 -4.5 51.5 -13.5 62.5s-19.167 18.833 -30.5 23.5c-2 0.666992 -3.83301 1.33398 -5.5 2.00098s-3.16699 1.33398 -4.5 2.00098c-9.33301 3.33301 -17.333 7.66602 -24 12.999s-10 16 -10 32
s3.5 26.833 10.5 32.5s14.833 10.167 23.5 13.5c2 0.666992 3.83301 1.33398 5.5 2.00098s3.16699 1.33398 4.5 2.00098c11.333 4.66699 21.5 12.5 30.5 23.5s13.5 32.167 13.5 63.5v154c0 55.333 13.833 93 41.5 113s66.834 30 117.501 30c74 0 124.333 -3.66699 151 -11
s40 -21.666 40 -42.999c0 -12 -4.33301 -20.833 -13 -26.5s-22.334 -8.5 -41.001 -8.5h-8c-2.66699 0 -5.33398 0.333008 -8.00098 1h-8h-8c-34 0 -56 -3.83301 -66 -11.5s-15 -24.167 -15 -49.5v-36v-121c0 -25.333 -2.66699 -45.666 -8 -60.999s-11 -27.333 -17 -36
c-6.66699 -8.66699 -12.667 -15 -18 -19s-8 -7.33301 -8 -10c0 -3.33301 2.66699 -7.5 8 -12.5s11.333 -12.167 18 -21.5c6 -9.33301 11.667 -21.5 17 -36.5s8 -34.167 8 -57.5v-121v0z" />
    <glyph glyph-name="bar" unicode="|" horiz-adv-x="500" 
d="M202 667h96v-844h-96v844v0z" />
    <glyph glyph-name="braceright" unicode="}" horiz-adv-x="499" 
d="M193 491v37c0 24.667 -5.16699 40.834 -15.5 48.501s-32.166 11.5 -65.499 11.5h-10.5c-3.66699 0 -7.16699 -0.333008 -10.5 -1h-10.5c-3.66699 0 -7.16699 0.333008 -10.5 1c-11.333 0.666992 -21.5 3.16699 -30.5 7.5s-13.5 13.166 -13.5 26.499
c0 21.333 13.167 35.666 39.5 42.999s76.833 11 151.5 11c51.333 0 90.5 -9.66699 117.5 -29s40.5 -57.666 40.5 -114.999v-152c0 -30.667 3.66699 -51.834 11 -63.501s22 -20.834 44 -27.501c10.667 -3.33301 19 -9.16602 25 -17.499s9 -18.166 9 -29.499s-3 -21 -9 -29
s-14.333 -13.667 -25 -17c-22 -6.66699 -36.667 -16 -44 -28s-11 -32.667 -11 -62v-152c0 -55.333 -13.167 -93.166 -39.5 -113.499s-65.833 -30.5 -118.5 -30.5c-74.667 0 -125.167 3.66699 -151.5 11s-39.5 21.333 -39.5 42c0 12 4.33301 21 13 27s22 9 40 9h7.5
c2.33301 0 4.83301 -0.333008 7.5 -1h7.5h7.5c26 0 46.5 2.66699 61.5 8s22.5 22.666 22.5 51.999v37v122c0 24.667 3.16699 46.5 9.5 65.5s14.833 32.833 25.5 41.5c0.666992 0.666992 1.5 1.33398 2.5 2.00098s2.16699 1.33398 3.5 2.00098
c2.66699 1.33301 5 3.16602 7 5.49902s3 4.83301 3 7.5c0 0.666992 -0.333008 1.66699 -1 3s-1.33398 3 -2.00098 5l-2.5 2.5l-2.5 2.5c-16.667 15.333 -28 32.666 -34 51.999s-9 40.333 -9 63v122v0z" />
    <glyph glyph-name="asciitilde" unicode="~" horiz-adv-x="500" 
d="M444 667l53.998 -61.0039c-12.667 -21.333 -24.5 -39.166 -35.5 -53.499s-21.833 -26.166 -32.5 -35.499c-11.333 -9.33301 -22.833 -16 -34.5 -20s-24.167 -6 -37.5 -6c-19.333 0 -37.666 3.5 -54.999 10.5s-34.666 14.833 -51.999 23.5
c-0.666992 0 -1.16699 0.166992 -1.5 0.5s-0.833008 0.5 -1.5 0.5c-16.667 8 -33.334 15.333 -50.001 22s-34.334 10 -53.001 10c-7.33301 0 -14.333 -1.16699 -21 -3.5s-13.334 -6.16602 -20.001 -11.499c-7.33301 -6.66699 -15 -15.667 -23 -27
s-16.667 -25.666 -26 -42.999l-54 63c10.667 18.667 21 34.834 31 48.501s19.667 25.167 29 34.5c12.667 13.333 25.834 22.666 39.501 27.999s28.5 8 44.5 8c8.66699 0 17.334 -0.833008 26.001 -2.5s17.334 -3.83398 26.001 -6.50098
c10 -3.33301 20.167 -7.16602 30.5 -11.499l30.5 -12.5c18 -8.66699 35.333 -16.5 52 -23.5s32 -10.5 46 -10.5c7.33301 0 14 1 20 3s12 5.33301 18 10c7.33301 6 15 14.167 23 24.5s17 23.833 27 40.5v1z" />
    <glyph glyph-name="exclamdown" unicode="&#xa1;" horiz-adv-x="308" 
d="M155 -186c-33.333 0 -60.833 13.5 -82.5 40.5s-32.5 61.167 -32.5 102.5c0 10 0.5 20 1.5 30s2.16699 20 3.5 30c6 33.333 16 66 30 98s31 60.333 51 85c2 2 3.83301 4 5.5 6s3.16699 3.66699 4.5 5c4 3.33301 7.66699 5.83301 11 7.5s6.33301 2.5 9 2.5
c8 0 18.167 -8 30.5 -24s24.833 -38.333 37.5 -67c4.66699 -10 9 -20 13 -30s7.66699 -20.333 11 -31c6.66699 -20 11.667 -39.833 15 -59.5s5 -38.167 5 -55.5c0 -42 -10.333 -75.833 -31 -101.5s-48 -38.5 -82 -38.5v0zM156 276
c-30.667 -0.666992 -56.333 8.99902 -77 28.999s-31 45 -31 75c0 29.333 10.5 54.333 31.5 75s46.5 31 76.5 31c27.333 0 51.5 -10.167 72.5 -30.5s31.5 -44.166 31.5 -71.499c0 -30.667 -10 -56.5 -30 -77.5s-44.667 -31.5 -74 -31.5v1z" />
    <glyph glyph-name="cent" unicode="&#xa2;" horiz-adv-x="600" 
d="M255 516l-0.00195312 13.0049c0 13.333 2.16699 22.166 6.5 26.499s13.5 6.5 27.5 6.5l28 1c14 -0.666992 22.833 -3.83398 26.5 -9.50098s5.83398 -11.834 6.50098 -18.501v-2v-2v-0.5v-0.5c0 -6 0.833008 -11.5 2.5 -16.5s6.83398 -8.16699 15.501 -9.5
c42 -4.66699 78.5 -19.667 109.5 -45s46.5 -53.333 46.5 -84c0 -25.333 -8.16699 -46 -24.5 -62s-37.5 -24 -63.5 -24c-20.667 0 -35.167 5.5 -43.5 16.5s-15.166 23.167 -20.499 36.5c-0.666992 0.666992 -1.16699 1.5 -1.5 2.5s-0.5 2.16699 -0.5 3.5
c-4.66699 12 -10.334 22.667 -17.001 32s-17.334 14 -32.001 14c-16 0 -29.5 -7.16699 -40.5 -21.5s-16.5 -31.833 -16.5 -52.5c0 -34.667 11.333 -64.334 34 -89.001s49.667 -37 81 -37c4.66699 0 9.33398 0.166992 14.001 0.5s9 0.833008 13 1.5
c7.33301 1.33301 14.833 3.33301 22.5 6s16.167 6 25.5 10c3.33301 1.33301 6.16602 2.33301 8.49902 3s4.5 1 6.5 1c9.33301 0 18 -4.83301 26 -14.5s12 -20.5 12 -32.5c0 -24 -13 -46 -39 -66s-61 -35 -105 -45c-5.33301 -1.33301 -8.83301 -3.33301 -10.5 -6
s-2.5 -8.33398 -2.5 -17.001v-14c0 -14 -2.16699 -23 -6.5 -27s-13.166 -6 -26.499 -6h-28c-12.667 0 -21.5 2.16699 -26.5 6.5s-7.5 12.833 -7.5 25.5v20c0 8 -0.666992 13.333 -2 16s-5.33301 4.66699 -12 6c-0.666992 0.666992 -1.66699 1.16699 -3 1.5
s-2.66602 0.5 -3.99902 0.5c-40 8.66699 -74.5 31.5 -103.5 68.5s-46.167 77.167 -51.5 120.5c-0.666992 4 -1.16699 8.33301 -1.5 13s-0.5 9.33398 -0.5 14.001c0 47.333 15.667 91.5 47 132.5s69.666 67.5 114.999 79.5h1.5c0.333008 0 0.833008 0.333008 1.5 1
c6 1.33301 9.66699 3.16602 11 5.49902s2 7.83301 2 16.5v1z" />
    <glyph glyph-name="sterling" unicode="&#xa3;" horiz-adv-x="600" 
d="M323 218c-0.666992 -2 -1.50977 -3.66602 -2.50977 -4.99902s-1.83301 -3 -2.5 -5l-2 -4l-2 -4c-0.666992 -2 -1.33398 -3.83301 -2.00098 -5.5s-1 -3.5 -1 -5.5c0 -4.66699 1.83301 -9 5.5 -13s9.83398 -7.66699 18.501 -11
c18.667 -7.33301 33.834 -12.666 45.501 -15.999s22.834 -5.33301 33.501 -6h1h2c18 0 32.333 4.5 43 13.5s20.334 18.833 29.001 29.5c1.33301 1.33301 2.5 2.83301 3.5 4.5s2.16699 3.5 3.5 5.5c6.66699 8.66699 13.834 16.334 21.501 23.001s17.167 10 28.5 10
c14.667 0 26.5 -5.16699 35.5 -15.5s13.5 -23.833 13.5 -40.5c0 -48.667 -18.667 -91.834 -56 -129.501s-80.333 -56.5 -129 -56.5c-21.333 0 -41.166 3.16699 -59.499 9.5s-34.5 13.5 -48.5 21.5s-25.5 15.333 -34.5 22s-14.5 10 -16.5 10
c-6.66699 0 -14.5 -3.33301 -23.5 -10s-19.5 -13.667 -31.5 -21c-12 -8 -25 -15.167 -39 -21.5s-29.333 -9.5 -46 -9.5c-28.667 0 -52.667 10.667 -72 32s-29 48.333 -29 81c0 33.333 7.66699 59.166 23 77.499s36.333 27.5 63 27.5c4.66699 0 9.33398 -0.333008 14.001 -1
s9.33398 -1.66699 14.001 -3c4.66699 -0.666992 9.33398 -1.5 14.001 -2.5s9.33398 -1.5 14.001 -1.5c4 0 7 1 9 3s3 4.66699 3 8v4c0 1.33301 -0.333008 3 -1 5l-3.5 16l-2.5 12c-1.33301 10 -4.66602 16.167 -9.99902 18.5s-19.666 3.5 -42.999 3.5h-6h-6
c-2.66699 -0.666992 -5 -1 -7 -1h-6c-15.333 0 -25.833 4.5 -31.5 13.5s-8.5 20.833 -8.5 35.5c0 12.667 2.16699 22.334 6.5 29.001s10.166 10 17.499 10l25 1c7.33301 0 12.666 0.833008 15.999 2.5s5 4.5 5 8.5c0 5.33301 -0.666992 10.833 -2 16.5l-4 17.5
c-2 5.33301 -3.66699 11.166 -5 17.499s-2 12.5 -2 18.5c0 57.333 23.333 102.333 70 135s110.334 49 191.001 49c34.667 0 64 -3.5 88 -10.5s45.667 -18.5 65 -34.5c17.333 -14 30.833 -29.833 40.5 -47.5s14.5 -36.167 14.5 -55.5c0 -24.667 -7.16699 -44.167 -21.5 -58.5
s-33.833 -21.5 -58.5 -21.5c-20.667 0 -37.334 5.66699 -50.001 17s-19 26.666 -19 45.999v6.5c0 2.33301 0.333008 4.83301 1 7.5v6.5v6.5c0 15.333 -3.66699 26.5 -11 33.5s-19.666 10.5 -36.999 10.5c-18 0 -31.5 -5.33301 -40.5 -16s-13.5 -26.667 -13.5 -48
c0 -41.333 4 -68.666 12 -81.999s24.333 -20 49 -20h6.5c2.33301 0 4.83301 0.333008 7.5 1h7.5h6.5c16.667 0 27.5 -3.5 32.5 -10.5s7.5 -20.167 7.5 -39.5c0 -12.667 -2.16699 -21.834 -6.5 -27.501s-11.833 -8.5 -22.5 -8.5l-11 1c-30 -0.666992 -48.667 -4 -56 -10
s-12.333 -14 -15 -24l-4 -12.5c-1.33301 -4.33301 -3.33301 -8.83301 -6 -13.5v1z" />
    <glyph glyph-name="currency" unicode="&#xa4;" horiz-adv-x="667" 
d="M111 528l-74.0029 73.9941c-2 1.33301 -3.66699 2.66602 -5 3.99902s-2.66602 2.33301 -3.99902 3c-0.666992 1.33301 -1.33398 2.83301 -2.00098 4.5s-1 3.16699 -1 4.5v2v2c0.666992 1.33301 1.83398 2.83301 3.50098 4.5l8.5 8.5l36 37
c4 3.33301 6.83301 5.83301 8.5 7.5s3.16699 2.83398 4.5 3.50098h2h2c3.33301 0 9.5 -4.83301 18.5 -14.5l30.5 -31.5c1.33301 -1.33301 2.5 -2.66602 3.5 -3.99902s2.16699 -2.66602 3.5 -3.99902c10 -10 19.5 -19 28.5 -27s16.167 -12 21.5 -12c2 0 7.33301 2 16 6
s19.334 8.33301 32.001 13s26.334 8.83398 41.001 12.501s30 5.83398 46 6.50098h1h2c18 0 34.5 -2 49.5 -6s28.5 -8.33301 40.5 -13c11.333 -4.66699 21 -9 29 -13s14.333 -6 19 -6c2 0 4 0.333008 6 1s3.66699 1.66699 5 3l75 76c4.66699 4 8 7 10 9s4 3 6 3
c0.666992 0.666992 1.33398 1 2.00098 1h2h2h2c1.33301 -0.666992 2.83301 -1.83398 4.5 -3.50098l8.5 -8.5l36 -35c4 -4.66699 6.83301 -7.83398 8.5 -9.50098s2.83398 -3.16699 3.50098 -4.5v-2v-2c0 -2.66699 -0.833008 -5.16699 -2.5 -7.5s-3.5 -4.5 -5.5 -6.5
c-0.666992 0 -1.33398 -0.333008 -2.00098 -1l-2 -2l-74 -73l-6 -7.5c-1.33301 -1.66699 -2.33301 -3.16699 -3 -4.5v-2v-2c0 -2 2.16699 -7.33301 6.5 -16s8.83301 -19.334 13.5 -32.001c4 -10.667 7.83301 -22 11.5 -34s6.16699 -24.333 7.5 -37
c0 -3.33301 0.166992 -6.5 0.5 -9.5s0.5 -6.16699 0.5 -9.5c0 -18.667 -2 -35.834 -6 -51.501s-8.66699 -29.167 -14 -40.5c-4.66699 -11.333 -9.16699 -20.833 -13.5 -28.5s-6.5 -13.167 -6.5 -16.5v-2v-2c0.666992 -1.33301 1.66699 -2.66602 3 -3.99902
s3.33301 -3.66602 6 -6.99902l74 -73c0.666992 -1.33301 1.33398 -2.33301 2.00098 -3s1.33398 -1 2.00098 -1c2 -2 3.83301 -4.16699 5.5 -6.5s2.5 -4.83301 2.5 -7.5v-2v-1c-0.666992 -2 -1.83398 -3.83301 -3.50098 -5.5s-4.5 -4.83398 -8.5 -9.50098
c-1.33301 -1.33301 -4 -4.16602 -8 -8.49902l-14 -14.5l-3 -3l-3 -3c-4.66699 -4.66699 -9.33398 -8.83398 -14.001 -12.501s-8.33398 -5.5 -11.001 -5.5c-5.33301 0 -12.666 4.83301 -21.999 14.5s-19 20.5 -29 32.5l-2 2l-2 2c-10 10.667 -19.5 20.334 -28.5 29.001
s-16.5 13 -22.5 13c-2.66699 0 -8.16699 -2 -16.5 -6s-18.5 -8.33301 -30.5 -13c-12.667 -4.66699 -26.667 -9 -42 -13s-31.666 -6 -48.999 -6c-16.667 0 -32.834 2 -48.501 6s-29.834 8.33301 -42.501 13c-12 4.66699 -22.167 9 -30.5 13s-13.833 6 -16.5 6
c-6 0 -13.5 -4.83301 -22.5 -14.5l-28.5 -31.5c-0.666992 -1.33301 -1.66699 -2.66602 -3 -3.99902s-2.33301 -2.66602 -3 -3.99902c-9.33301 -10 -18.166 -19 -26.499 -27s-15.833 -12 -22.5 -12c-2 0 -6.16699 2.33301 -12.5 7s-12.833 10.334 -19.5 17.001l-4.5 4.5
l-4.5 4.5c-6.66699 6.66699 -12.334 13.167 -17.001 19.5s-7 10.5 -7 12.5c0 1.33301 0.333008 2.83301 1 4.5s1.33398 3.16699 2.00098 4.5c1.33301 0.666992 2.66602 1.66699 3.99902 3l5 5l74 75c3.33301 2.66699 5.5 4.66699 6.5 6s1.83301 2.66602 2.5 3.99902v2v2
c0 1.33301 -2.16699 6.16602 -6.5 14.499s-8.83301 18.833 -13.5 31.5c-5.33301 12 -10 25.333 -14 40s-6.33301 29.667 -7 45v2.5v3.5c0 6 0.333008 12.167 1 18.5l2 18.5c2.66699 16 6.66699 31.5 12 46.5s11.333 27.833 18 38.5
c0.666992 0.666992 1.16699 1.33398 1.5 2.00098s0.833008 1.33398 1.5 2.00098c1.33301 2 2.5 4 3.5 6s1.5 4 1.5 6v2v2c-0.666992 1.33301 -1.5 2.83301 -2.5 4.5s-3.16699 3.83398 -6.5 6.50098v1zM333.997 512.994c-37.333 -0.666992 -69.333 -14.333 -96 -41
s-40 -58.667 -40 -96s13.333 -69.5 40 -96.5s58.667 -40.5 96 -40.5s69.333 13.333 96 40s40 59 40 97c0 37.333 -13.333 69.333 -40 96s-58.667 40 -96 40v1z" />
    <glyph glyph-name="yen" unicode="&#xa5;" horiz-adv-x="600" 
d="M446 349l-14.9951 -0.00488281c-11.333 -1.33301 -18.666 -6.5 -21.999 -15.5s-5.33301 -18.833 -6 -29.5c0 -1.33301 -0.166992 -2.5 -0.5 -3.5s-0.5 -2.16699 -0.5 -3.5v-1.5v-1.5v-2.5v-3.5c-0.666992 -0.666992 -1 -1.5 -1 -2.5v-3.5v0c0 -6 1.66699 -10.167 5 -12.5
s9 -3.5 17 -3.5h19.5c6.33301 0 12.833 0.333008 19.5 1h18.5h19.5c14.667 0 27 -2.33301 37 -7s15 -15.334 15 -32.001c0 -10.667 -3 -18.167 -9 -22.5s-16.333 -6.5 -31 -6.5l-2 1c-6 -0.666992 -12.167 -1 -18.5 -1h-19.5c-6.66699 -0.666992 -13.167 -1 -19.5 -1h-18.5
c-14.667 0 -23.5 -0.666992 -26.5 -2s-4.5 -5.66602 -4.5 -12.999c0 -28.667 2.16699 -49 6.5 -61s13.833 -21.667 28.5 -29c11.333 -6 19.5 -12.333 24.5 -19s7.5 -14 7.5 -22c0 -22 -14.667 -37.833 -44 -47.5s-75.666 -14.5 -138.999 -14.5
c-58.667 0 -104.167 5.16699 -136.5 15.5s-48.5 25.5 -48.5 45.5c0 10.667 2.5 18.334 7.5 23.001s10.833 8.66699 17.5 12c2 1.33301 4.16699 2.5 6.5 3.5s4.83301 2.16699 7.5 3.5c9.33301 5.33301 18 14 26 26s12 32 12 60c0 6 -1.33301 10 -4 12s-8 3 -16 3h-14.5
c-5 0 -9.83301 -0.333008 -14.5 -1c-5.33301 0 -10.333 -0.166992 -15 -0.5s-9.66699 -0.5 -15 -0.5c-13.333 0 -25.166 2.5 -35.499 7.5s-15.5 15.167 -15.5 30.5c0 10.667 2.66699 18.667 8 24s13 8 23 8h37.5c12.333 0 24.833 0.333008 37.5 1c11.333 0 18.5 1 21.5 3
s4.5 6.33301 4.5 13c0 3.33301 -0.333008 7.5 -1 12.5l-2 14.5c-2 9.33301 -5.16699 17.833 -9.5 25.5s-9.83301 11.5 -16.5 11.5h-15.5h-15.5c-5.33301 0 -10.5 -0.166992 -15.5 -0.5s-10.167 -0.5 -15.5 -0.5c-12.667 0 -24.334 2.33301 -35.001 7s-16 14.667 -16 30
c0 10.667 2.66699 18.667 8 24s13 8.33301 23 9l26 1c0.666992 -0.666992 1.5 -1 2.5 -1h2.5c3.33301 0 6.16602 0.666992 8.49902 2s3.5 4 3.5 8v0.5v0.5c-0.666992 2.66699 -1.83398 5.33398 -3.50098 8.00098s-4.83398 7 -9.50098 13c-4 2 -8.66699 6.83301 -14 14.5
s-11.333 15.834 -18 24.501c-5.33301 6.66699 -11.166 13.334 -17.499 20.001s-12.833 11.667 -19.5 15s-12.334 6.5 -17.001 9.5s-8.33398 5.5 -11.001 7.5c-2.66699 4 -4.5 7.83301 -5.5 11.5s-1.5 8.5 -1.5 14.5c0 22 12.167 37.5 36.5 46.5s66.833 13.5 127.5 13.5
c59.333 0 101.666 -4 126.999 -12s38 -21 38 -39c0 -6 -1.66699 -11 -5 -15l-10 -12c-0.666992 0 -1.16699 -0.166992 -1.5 -0.5l-0.5 -0.5c-3.33301 -3.33301 -6.5 -6.83301 -9.5 -10.5s-4.5 -8.16699 -4.5 -13.5c0 -4 1.16699 -9 3.5 -15s5.16602 -12 8.49902 -18
c3.33301 -6.66699 7.33301 -13 12 -19s9.66699 -11 15 -15c2.66699 -2.66699 5.5 -4.66699 8.5 -6s5.83301 -2 8.5 -2s6.5 1.33301 11.5 4s10.5 6.66699 16.5 12c7.33301 6 14.166 13.5 20.499 22.5s9.5 18.5 9.5 28.5c0 4.66699 -1 8.5 -3 11.5s-4.66699 5.83301 -8 8.5
c-0.666992 1.33301 -1.5 2.33301 -2.5 3s-1.83301 1.66699 -2.5 3c-4 3.33301 -7.66699 7.66602 -11 12.999s-5 12.333 -5 21c0 17.333 10.167 30 30.5 38s51.833 12 94.5 12c41.333 0 69.166 -3.5 83.499 -10.5s21.5 -21.167 21.5 -42.5c0 -11.333 -2.66699 -20 -8 -26
s-15 -10.667 -29 -14c-14.667 -4 -27.5 -11.5 -38.5 -22.5s-21.167 -22.833 -30.5 -35.5l-11.5 -15.5c-3.66699 -5 -7.5 -9.83301 -11.5 -14.5c-2.66699 -2.66699 -4.66699 -5 -6 -7l-2 -3c-0.666992 -0.666992 -1.16699 -1.66699 -1.5 -3s-0.5 -2.66602 -0.5 -3.99902
c0 -2.66699 0.833008 -4.5 2.5 -5.5s4.5 -1.5 8.5 -1.5c2 0 4.16699 0.166992 6.5 0.5s4.83301 0.5 7.5 0.5c2 0 4.16699 0.166992 6.5 0.5s4.5 0.5 6.5 0.5c22.667 0 37.834 -2.66699 45.501 -8s11.5 -15.666 11.5 -30.999c0 -10.667 -3 -18.167 -9 -22.5
s-15.667 -6.5 -29 -6.5h-19.5h-19.5c-6.66699 -0.666992 -13.167 -1 -19.5 -1h-19.5v1z" />
    <glyph glyph-name="brokenbar" unicode="&#xa6;" 
 />
    <glyph glyph-name="section" unicode="&#xa7;" horiz-adv-x="720" 
d="M506 520c-0.666992 0 -1.49707 0.495117 -2.49707 1.49512s-2.16699 1.83301 -3.5 2.5c-16.667 15.333 -33.834 28.333 -51.501 39s-38.5 16 -62.5 16c-18 0 -32.833 -3.83301 -44.5 -11.5s-17.5 -17.167 -17.5 -28.5c0 -13.333 6.66699 -24.333 20 -33
s35.333 -16 66 -22l31.5 -7c11.667 -2.66699 23.5 -5.66699 35.5 -9c6 -2 12.333 -4 19 -6s13 -4 19 -6l26 -9.5c8 -3 15 -5.83301 21 -8.5c28.667 -12.667 51.334 -31.834 68.001 -57.501s25 -54.167 25 -85.5c0 -24.667 -4.66699 -45.5 -14 -62.5
s-19.666 -31.5 -30.999 -43.5c-12 -11.333 -22.667 -20.333 -32 -27s-14 -12 -14 -16c0 -3.33301 4.5 -8 13.5 -14s19.167 -14.667 30.5 -26c10.667 -10.667 20.5 -24.334 29.5 -41.001s13.5 -37 13.5 -61c0 -58.667 -24.333 -105.667 -73 -141s-114.334 -53 -197.001 -53
c-60.667 0 -112.667 5.33301 -156 16s-80.333 27.334 -111 50.001c-6.66699 4.66699 -12.834 10 -18.501 16s-10.834 12.333 -15.501 19s-8.33398 13.334 -11.001 20.001s-4 12.334 -4 17.001c0 14.667 10.167 26.834 30.5 36.501s45.5 14.5 75.5 14.5
c12 0 22.167 -2.5 30.5 -7.5s16.166 -11.5 23.499 -19.5c3.33301 -2.66699 6.5 -5.5 9.5 -8.5s5.83301 -6.16699 8.5 -9.5c12 -10.667 26 -20.667 42 -30s38 -14 66 -14c20.667 0 37.334 4.16699 50.001 12.5s19 19.166 19 32.499c0 12 -5.5 21.833 -16.5 29.5
s-28.5 13.834 -52.5 18.501l-25 6c-8.66699 2 -17.334 4.33301 -26.001 7l-52 16.5c-17.333 5.66699 -33.333 11.5 -48 17.5c-9.33301 4 -18.166 8 -26.499 12l-22.5 11c-22.667 13.333 -41.167 32.333 -55.5 57s-21.5 50.334 -21.5 77.001c0 28 7 54.5 21 79.5
s33.333 44.833 58 59.5l4.5 3c1 0.666992 1.83301 1.33398 2.5 2.00098s1.16699 1.5 1.5 2.5s0.5 1.83301 0.5 2.5c0 1.33301 -0.166992 2.33301 -0.5 3s-0.833008 1.33398 -1.5 2.00098c0 0.666992 -0.5 1.5 -1.5 2.5s-2.16699 1.83301 -3.5 2.5
c-22.667 16.667 -40.167 36 -52.5 58s-18.5 44.667 -18.5 68c0 59.333 24.667 104.833 74 136.5s120.333 47.5 213 47.5c75.333 0 139.333 -10.667 192 -32s79 -47 79 -77c0 -12 -6.16699 -22.667 -18.5 -32s-25.833 -16.333 -40.5 -21
c-7.33301 -2.66699 -14.5 -4.66699 -21.5 -6s-13.167 -2 -18.5 -2c-8 0 -15 1.16699 -21 3.5s-11.333 5.5 -16 9.5v1zM312.003 218.995c4.66699 -2 10.1699 -4.16504 16.5029 -6.49805l20.5 -7.5l6 -2l6 -2c10 -3.33301 19.5 -6.16602 28.5 -8.49902s16.5 -3.5 22.5 -3.5
c5.33301 0 10.166 2.83301 14.499 8.5s7.5 12.167 9.5 19.5c2 4 3.33301 8 4 12s1 7.33301 1 10c0 11.333 -3.5 20.666 -10.5 27.999s-17.167 12.666 -30.5 15.999l-18.5 5.5l-23.5 7.5c-1.33301 0.666992 -2.5 1.16699 -3.5 1.5s-1.83301 0.5 -2.5 0.5
c-10.667 3.33301 -20.834 6.33301 -30.501 9s-16.834 4 -21.501 4c-6.66699 0 -12.167 -2.83301 -16.5 -8.5s-7.83301 -12.167 -10.5 -19.5c-1.33301 -4 -2.33301 -7.83301 -3 -11.5s-1 -6.83398 -1 -9.50098c0 -10.667 3.33301 -19.5 10 -26.5s17.667 -12.833 33 -17.5v1z
" />
    <glyph glyph-name="dieresis" unicode="&#xa8;" horiz-adv-x="500" 
d="M128 686c31.333 -0.666992 56 -6.33105 74 -16.998s27 -25.334 27 -44.001c0 -22.667 -15 -41.834 -45 -57.501s-67.333 -23.5 -112 -23.5c-26 0 -47.5 5.66699 -64.5 17s-25.5 25.333 -25.5 42c0 26.667 12.667 47 38 61s61.333 21 108 21v1zM417 686.003
c31.333 -0.666992 55.999 -6.33105 73.999 -16.998s27 -25.334 27 -44.001c0 -22.667 -15 -41.834 -45 -57.501s-67.333 -23.5 -112 -23.5c-26 0 -47.667 5.66699 -65 17s-26 25.333 -26 42c0 26.667 12.833 47 38.5 61s61.834 21 108.501 21v1z" />
    <glyph glyph-name="copyright" unicode="&#xa9;" horiz-adv-x="778" 
d="M392 680c99.333 -0.666992 184.666 -34.833 255.999 -102.5s107 -149.167 107 -244.5s-35.667 -176.833 -107 -244.5s-156.666 -101.5 -255.999 -101.5c-102.667 0 -189.834 33.667 -261.501 101s-107.5 149 -107.5 245s35.833 177.667 107.5 245
s158.834 101 261.501 101v1zM391 614.001c-81.333 -0.666992 -150.833 -28.333 -208.5 -83s-86.5 -120.667 -86.5 -198c0 -78 28.833 -144.333 86.5 -199s127.167 -82 208.5 -82c80 0 148.5 27.5 205.5 82.5s85.5 121.167 85.5 198.5s-28.5 143.333 -85.5 198
s-125.5 82 -205.5 82v1zM503 501.002c2.66699 0 5.16699 0.166016 7.5 0.499023s4.83301 0.5 7.5 0.5c14.667 0 27.5 -9.16699 38.5 -27.5s16.5 -39.5 16.5 -63.5c0 -16.667 -5 -30.167 -15 -40.5s-23.333 -15.5 -40 -15.5c-9.33301 0 -17.333 2.83301 -24 8.5
s-13 12.834 -19 21.501c-2 2 -3.83301 4.33301 -5.5 7s-3.5 5 -5.5 7c-8 11.333 -17.667 21.666 -29 30.999s-27 14 -47 14c-18.667 0 -33.167 -6 -43.5 -18s-15.5 -28.667 -15.5 -50c0 -36.667 10.667 -67 32 -91s48.333 -36 81 -36h2.5h3.5
c13.333 0.666992 26.333 3.16699 39 7.5s22.667 9.83301 30 16.5l8 6.5c2 1.66699 4 2.5 6 2.5c0.666992 0.666992 1.5 1 2.5 1h3.5c7.33301 0 13.5 -3 18.5 -9s7.5 -13.667 7.5 -23c0 -4 -0.333008 -8 -1 -12s-1.66699 -8 -3 -12c-4 -11.333 -10 -21.833 -18 -31.5
s-17.333 -15.167 -28 -16.5c-7.33301 -1.33301 -14.833 -3.16602 -22.5 -5.49902s-14.834 -4.83301 -21.501 -7.5c-1.33301 -0.666992 -2.5 -1.16699 -3.5 -1.5s-2.16699 -0.5 -3.5 -0.5c-11.333 -4 -23 -7.5 -35 -10.5s-24.333 -4.5 -37 -4.5
c-56 0 -104.333 18.333 -145 55s-61 80 -61 130s20.333 94 61 132s88.334 57 143.001 57c14 0 26.5 -1.16699 37.5 -3.5s20.833 -5.16602 29.5 -8.49902c8 -2.66699 14.833 -5.33398 20.5 -8.00098s10.5 -4 14.5 -4h3.5h3.5c0.666992 0 1.66699 0.166992 3 0.5
s2.33301 0.5 3 0.5v1z" />
    <glyph glyph-name="ordfeminine" unicode="&#xaa;" horiz-adv-x="400" 
d="M162 337h132.003c4 -0.666992 8.16699 -1 12.5 -1s8.83301 0.333008 13.5 1h13.5h12.5c6 0 10.667 -1 14 -3s5 -4.66699 5 -8c0 -2.66699 -0.166992 -5.5 -0.5 -8.5s-0.833008 -5.83301 -1.5 -8.5c-0.666992 -2 -1.16699 -3.83301 -1.5 -5.5
s-0.833008 -3.16699 -1.5 -4.5s-1.16699 -2.5 -1.5 -3.5s-0.5 -2.16699 -0.5 -3.5c-0.666992 -6 -3.66699 -10.667 -9 -14s-12 -5 -20 -5c-6 0 -11.833 0.166992 -17.5 0.5s-11.167 0.5 -16.5 0.5c-2 0 -3.83301 0.166992 -5.5 0.5s-3.5 0.5 -5.5 0.5
c-4 0 -7.83301 0.166992 -11.5 0.5s-7.5 0.5 -11.5 0.5l-107 1c-8 -0.666992 -16 -1 -24 -1h-23c-8 -0.666992 -16 -1 -24 -1h-24c-7.33301 0 -13.166 1 -17.499 3s-6.5 4.66699 -6.5 8c0 1.33301 0.166992 3 0.5 5s0.833008 3.66699 1.5 5l4 8
c1.33301 2.66699 2.66602 4.66699 3.99902 6l3.5 9c1 2.66699 2.16699 5 3.5 7c2.66699 5.33301 5.66699 8.83301 9 10.5s8 2.5 14 2.5c7.33301 0 14.666 -0.166992 21.999 -0.5s14.666 -0.5 21.999 -0.5c6.66699 -0.666992 13.667 -1.16699 21 -1.5
s14.666 -0.5 21.999 -0.5v1zM315.003 570l0.000976562 -37.9961c0 -21.333 1.16699 -36.833 3.5 -46.5s6.16602 -14.834 11.499 -15.501c4 -0.666992 7.5 -1.83398 10.5 -3.50098s4.5 -5.16699 4.5 -10.5c0 -14.667 -5.83301 -27.334 -17.5 -38.001
s-24.5 -18.334 -38.5 -23.001c-4 -1.33301 -8 -2.33301 -12 -3s-7.66699 -1 -11 -1c-8.66699 0 -16.667 1.83301 -24 5.5s-13.666 8.83398 -18.999 15.501c-1.33301 2 -2.5 3.33301 -3.5 4s-1.83301 1.33398 -2.5 2.00098h-1.5h-1.5h-1.5h-1.5l-4 -2
c-1.33301 -0.666992 -3.33301 -2 -6 -4c-8.66699 -6.66699 -17.834 -11.834 -27.501 -15.501s-20.167 -5.5 -31.5 -5.5c-25.333 0 -46.166 7 -62.499 21s-24.5 31.667 -24.5 53c0 27.333 11.167 49 33.5 65s52.833 24 91.5 24c9.33301 0 15.166 1 17.499 3
s3.5 6.33301 3.5 13c0 18.667 -1.83301 32.167 -5.5 40.5s-9.16699 12.5 -16.5 12.5c-2.66699 0 -5 -0.666992 -7 -2s-4.33301 -3 -7 -5c-2.66699 -2.66699 -5.5 -5.83398 -8.5 -9.50098l-9.5 -11.5c-6 -7.33301 -12.5 -14 -19.5 -20s-15.167 -9 -24.5 -9
c-8.66699 0 -16.167 2.66699 -22.5 8s-9.5 12 -9.5 20c0 18 8 32.667 24 44s33.667 20 53 26c10 2.66699 19.833 4.66699 29.5 6s18.167 2 25.5 2c38 0 66.167 -8.33301 84.5 -25s27.5 -42.667 27.5 -78v1zM164.004 481.004c0 -8.66699 1.83301 -15.501 5.5 -20.501
s8.5 -7.5 14.5 -7.5c6.66699 0 11.5 2.83301 14.5 8.5s4.5 14.834 4.5 27.501c0 9.33301 -0.833008 15.5 -2.5 18.5s-5.16699 4.5 -10.5 4.5c-6.66699 0 -12.667 -3 -18 -9s-8 -13.667 -8 -23v1z" />
    <glyph glyph-name="guillemotleft" unicode="&#xab;" horiz-adv-x="534" 
d="M214 178c2.66699 -4.66699 5.83691 -9.49512 9.50391 -14.4951l11.5 -15.5c2.66699 -4.66699 5.5 -9.16699 8.5 -13.5s5.83301 -8.83301 8.5 -13.5c4 -6.66699 7.16699 -13.334 9.5 -20.001s3.5 -13 3.5 -19c0 -9.33301 -3.83301 -18 -11.5 -26s-16.167 -13 -25.5 -15
h-2.5h-2.5c-10 0 -24 5.66699 -42 17s-36.333 25.666 -55 42.999l-30 29c-10 10 -19.333 20 -28 30c-16 18.667 -29.167 36.667 -39.5 54s-15.5 31.666 -15.5 42.999s5 25.666 15 42.999s22.667 35 38 53c8 10 16.5 19.833 25.5 29.5s18.167 18.834 27.5 27.501
c19.333 18.667 37.666 34 54.999 46s30.666 18 39.999 18c13.333 0 24.666 -4 33.999 -12s14 -17.667 14 -29c0 -12.667 -4.5 -25.834 -13.5 -39.501s-18.833 -27.834 -29.5 -42.501c-11.333 -14 -21.5 -28.667 -30.5 -44s-13.5 -31 -13.5 -47
c0 -8 3.16699 -18.833 9.5 -32.5s16.166 -30.5 29.499 -50.5v1zM469.003 179.005c2.66699 -4.66699 5.83398 -9.49512 9.50098 -14.4951l11.5 -16.5l8.5 -12.5c3 -4.33301 5.5 -8.5 7.5 -12.5c4 -7.33301 7.33301 -14.333 10 -21s4 -13 4 -19
c0 -9.33301 -3.83301 -18 -11.5 -26s-16.167 -13 -25.5 -15h-2.5h-2.5c-10 0 -23.833 5.66699 -41.5 17s-36.167 25.666 -55.5 42.999c-10 9.33301 -20 19.166 -30 29.499s-19.333 20.5 -28 30.5c-16 18 -29 35.667 -39 53s-15 31.666 -15 42.999
c0 12 4.66699 26.167 14 42.5s21 33.166 35 50.499c8.66699 10.667 17.834 21.167 27.501 31.5s19.5 20.166 29.5 29.499c19.333 18 37.666 32.833 54.999 44.5s30.666 17.5 39.999 17.5c13.333 0 24.666 -3.83301 33.999 -11.5s14 -17.167 14 -28.5
c0 -12.667 -4.5 -25.667 -13.5 -39s-19.167 -27.333 -30.5 -42c-10.667 -14.667 -20.667 -29.667 -30 -45s-14 -31 -14 -47c0 -8 3.33301 -18.833 10 -32.5s16.334 -30.5 29.001 -50.5v1z" />
    <glyph glyph-name="logicalnot" unicode="&#xac;" horiz-adv-x="500" 
d="M403 0v188h-397v90h487v-278h-90v0z" />
    <glyph glyph-name="sfthyphen" unicode="&#xad;" 
 />
    <glyph glyph-name="registered" unicode="&#xae;" horiz-adv-x="778" 
d="M392 680c99.333 -0.666992 184.666 -34.833 255.999 -102.5s107 -149.167 107 -244.5s-35.667 -176.833 -107 -244.5s-156.666 -101.5 -255.999 -101.5c-102.667 0 -189.834 33.667 -261.501 101s-107.5 149 -107.5 245s35.833 177.667 107.5 245
s158.834 101 261.501 101v1zM391 614.001c-81.333 -0.666992 -150.833 -28.333 -208.5 -83s-86.5 -120.667 -86.5 -198c0 -78 28.833 -144.333 86.5 -199s127.167 -82 208.5 -82c80 0 148.5 27.5 205.5 82.5s85.5 121.167 85.5 198.5s-28.5 143.333 -85.5 198
s-125.5 82 -205.5 82v1zM349 289.002l-0.00292969 -19.001c0 -20.667 1.16699 -34.834 3.5 -42.501s6.83301 -13.167 13.5 -16.5c6 -2.66699 10.5 -6.16699 13.5 -10.5s4.5 -9.16602 4.5 -14.499c0 -12.667 -7.83301 -21.667 -23.5 -27s-42.167 -8 -79.5 -8
c-35.333 0 -61.666 3.16699 -78.999 9.5s-26 16.166 -26 29.499c0 4.66699 1 8.33398 3 11.001s4.33301 5 7 7c1.33301 0.666992 2.83301 1.5 4.5 2.5s3.5 2.5 5.5 4.5c4.66699 4 9 10.667 13 20s6 25 6 47v28c0 9.33301 0.333008 18.666 1 27.999v27v28
c0 25.333 -1.16699 42 -3.5 50s-7.16602 13.667 -14.499 17c-2.66699 1.33301 -4.83398 2.5 -6.50098 3.5s-3.5 2.16699 -5.5 3.5c-4 2.66699 -6.66699 5.33398 -8 8.00098s-2 6 -2 10c0 11.333 5.5 19.833 16.5 25.5s26.833 8.5 47.5 8.5c4 0 7.83301 -0.166992 11.5 -0.5
s7.5 -0.5 11.5 -0.5c1.33301 0 2.66602 -0.166992 3.99902 -0.5s2.66602 -0.5 3.99902 -0.5c2.66699 0 5.16699 -0.166992 7.5 -0.5s4.83301 -0.5 7.5 -0.5c10 0 20.167 0.166992 30.5 0.5s20.833 0.833008 31.5 1.5s21.167 1.16699 31.5 1.5s20.5 0.5 30.5 0.5
c40 0 72.333 -8.66699 97 -26s37 -40.666 37 -69.999c0 -16 -2.83301 -28.833 -8.5 -38.5s-11.834 -17.167 -18.501 -22.5c-6 -5.33301 -11.667 -9.5 -17 -12.5s-8.66602 -5.5 -9.99902 -7.5v-1.5v-0.5c0 -0.666992 0.166992 -1.16699 0.5 -1.5s0.5 -0.833008 0.5 -1.5
c1.33301 -1.33301 2.83301 -2.5 4.5 -3.5s3.5 -1.83301 5.5 -2.5c16.667 -5.33301 29 -13.333 37 -24s13.667 -21.667 17 -33c2 -5.33301 3.66699 -10.5 5 -15.5s2.33301 -9.83301 3 -14.5c2 -8.66699 4.33301 -16 7 -22s7 -9.66699 13 -11
c0.666992 0 1.16699 -0.166992 1.5 -0.5s0.833008 -0.5 1.5 -0.5c4.66699 -2 9.16699 -4.5 13.5 -7.5s6.5 -7.83301 6.5 -14.5c0 -12.667 -7.83301 -23 -23.5 -31s-37.167 -12 -64.5 -12c-36.667 0 -62 8.33301 -76 25s-24 35 -30 55
c-1.33301 4 -2.66602 8.33301 -3.99902 13s-2.66602 9 -3.99902 13c-3.33301 14.667 -7.66602 27.167 -12.999 37.5s-14.666 15.5 -27.999 15.5c-5.33301 0 -9 -1 -11 -3s-3 -6.66699 -3 -14v1zM348.997 441.001l-3.00195 -61.001v-2
c0 -5.33301 0.833008 -8.83301 2.5 -10.5s4.83398 -2.5 9.50098 -2.5c14.667 0 25.334 3.66699 32.001 11s10 19 10 35s-2.83301 27.833 -8.5 35.5s-14.5 11.5 -26.5 11.5c-6 0 -10 -1.16699 -12 -3.5s-3.33301 -7.16602 -4 -14.499v1z" />
    <glyph glyph-name="overstore" unicode="&#xaf;" 
 />
    <glyph glyph-name="degree" unicode="&#xb0;" 
 />
    <glyph glyph-name="plusminus" unicode="&#xb1;" horiz-adv-x="600" 
d="M496 0h-400.999c-12 0 -20.833 2.16699 -26.5 6.5s-8.5 10.833 -8.5 19.5v59c0 10.667 3.16699 18.167 9.5 22.5s17.5 6.5 33.5 6.5l391 1c18.667 -0.666992 31.167 -3.5 37.5 -8.5s9.5 -14.5 9.5 -28.5v-50c0 -12 -2.83301 -19.667 -8.5 -23s-17.834 -5 -36.501 -5v0z
M103.001 456l104.999 0.00292969c10 -0.666992 16.667 -0.666992 20 0s6 1.66699 8 3l1.5 1.5l0.5 0.5l0.5 0.5l1.5 1.5c1.33301 2 2.16602 4.66699 2.49902 8s0.5 10 0.5 20v107c0 11.333 2.33301 19.833 7 25.5s11.334 8.5 20.001 8.5l61 1
c9.33301 -0.666992 16.166 -3.83398 20.499 -9.50098s6.5 -14.5 6.5 -26.5v-105c0 -11.333 0.166992 -18.833 0.5 -22.5s1.5 -6.16699 3.5 -7.5c0 -0.666992 0.166992 -1 0.5 -1h0.5l0.5 -0.5l1.5 -1.5c2 -1.33301 4.66699 -2.33301 8 -3s10 -1 20 -1l104 1
c16.667 -0.666992 28.167 -3 34.5 -7s9.5 -11.667 9.5 -23v-55c0 -11.333 -3.16699 -19.166 -9.5 -23.499s-17.833 -6.5 -34.5 -6.5l-104 1c-10 -0.666992 -16.667 -1.33398 -20 -2.00098s-6 -1.66699 -8 -3l-1.5 -1.5l-0.5 -0.5l-0.5 -0.5l-1.5 -1.5
c-1.33301 -2 -2.16602 -4.66699 -2.49902 -8s-0.5 -10 -0.5 -20v-105c0 -12 -2.16699 -21 -6.5 -27s-11.166 -9 -20.499 -9l-61 1c-8.66699 -0.666992 -15.334 2 -20.001 8s-7 14.667 -7 26v107c0 10.667 -0.166992 17.5 -0.5 20.5s-1.5 5.5 -3.5 7.5l-0.5 0.5l-0.5 0.5
l-1.5 1.5l-1.5 1.5c-2 1.33301 -4.66699 2.16602 -8 2.49902s-9.66602 0.5 -18.999 0.5l-105 1c-16 -0.666992 -27.167 1.16602 -33.5 5.49902s-9.5 11.833 -9.5 22.5v57c0 10.667 3.16699 18 9.5 22s17.5 6 33.5 6v1z" />
    <glyph glyph-name="twosuperior" unicode="&#xb2;" 
 />
    <glyph glyph-name="threesuperior" unicode="&#xb3;" 
 />
    <glyph glyph-name="acute" unicode="&#xb4;" horiz-adv-x="500" 
d="M147 607c2.66699 1.33301 5.16602 2.82812 7.49902 4.49512l7.5 5.5l7.5 5.5l7.5 5.5c2.66699 1.33301 5 3.33301 7 6s3.33301 5.66699 4 9c0.666992 0.666992 1 1.33398 1 2.00098v2c0 2 -0.333008 3.83301 -1 5.5s-1.66699 3.5 -3 5.5
c-0.666992 1.33301 -1.5 2.83301 -2.5 4.5s-1.5 3.5 -1.5 5.5c0 8.66699 7.33301 15.667 22 21s33.667 8 57 8c34 0 62 -5.16699 84 -15.5s33 -23.5 33 -39.5c0 -5.33301 -2.5 -11.666 -7.5 -18.999s-11.833 -14.666 -20.5 -21.999c-2 -2 -4.16699 -4 -6.5 -6
s-4.83301 -4 -7.5 -6c-22.667 -18 -48.167 -32 -76.5 -42s-57.166 -15 -86.499 -15c-16.667 0 -29.167 2.83301 -37.5 8.5s-12.5 14.834 -12.5 27.501c0 9.33301 2.5 16.833 7.5 22.5s10.833 10.834 17.5 15.501v1z" />
    <glyph glyph-name="mu" unicode="&#xb5;" horiz-adv-x="548" 
d="M462 453l0.000976562 -313.997c0 -33.333 2 -55 6 -65s12.333 -15 25 -15h3.5h2.5c4 0.666992 8 1.66699 12 3s10 3.66602 18 6.99902v-36l-114 -45c-0.666992 0 -1.66699 -0.166992 -3 -0.5s-2.33301 -0.5 -3 -0.5c-1.33301 -0.666992 -2.5 -1 -3.5 -1h-3.5
c-12.667 0 -24 5.83301 -34 17.5s-16.667 26.834 -20 45.501c-16 -21.333 -34 -37.333 -54 -48s-41.333 -16 -64 -16c-26 0 -46.167 3.66699 -60.5 11s-27.5 22 -39.5 44c-2 3.33301 -4 7 -6 11s-4 8.33301 -6 13c0 -20 2.16699 -38.5 6.5 -55.5s9.5 -33.833 15.5 -50.5
c5.33301 -16 10.166 -31.667 14.499 -47s6.5 -30.333 6.5 -45c0 -16 -5.66699 -29 -17 -39s-26 -15 -44 -15s-32.167 5.16699 -42.5 15.5s-15.5 24.5 -15.5 42.5c0 6 1 14.667 3 26s4.33301 23.666 7 36.999c8.66699 37.333 15.5 75.166 20.5 113.499
s8.5 77.166 10.5 116.499c0 9.33301 0.166992 18.833 0.5 28.5s0.5 19.5 0.5 29.5v232h120v-285c0 -43.333 4 -72.5 12 -87.5s24.333 -22.5 49 -22.5c4 0 7.66699 0.166992 11 0.5s6.66602 0.833008 9.99902 1.5c8 2 16.333 5.5 25 10.5s19.334 12.5 32.001 22.5v360h119v0z
" />
    <glyph glyph-name="paragraph" unicode="&#xb6;" horiz-adv-x="600" 
d="M416 665c6 -0.666992 12.1582 -1.00195 18.4912 -1.00195s12.833 0.333008 19.5 1h19.5h18.5c22 0 38.667 -3.66699 50 -11s17 -17.666 17 -30.999c0 -9.33301 -3.5 -17.5 -10.5 -24.5s-17.833 -12.167 -32.5 -15.5c-1.33301 -0.666992 -2.66602 -1.16699 -3.99902 -1.5
s-2.66602 -0.5 -3.99902 -0.5c-16 -5.33301 -26 -12.333 -30 -21s-6 -27.334 -6 -56.001v-667c0 -7.33301 -0.166992 -12.333 -0.5 -15s-1.16602 -5 -2.49902 -7l-0.5 -0.5l-0.5 -0.5l-0.5 -0.5l-0.5 -0.5c-2 -1.33301 -4.16699 -2.16602 -6.5 -2.49902
s-7.16602 -0.5 -14.499 -0.5h-29c-8 0 -13.333 0.166992 -16 0.5s-4.66699 1.5 -6 3.5l-0.5 0.5l-0.5 0.5c-1.33301 2 -2.33301 4.33301 -3 7s-1 7.66699 -1 15v699c0 6.66699 -0.166992 11.334 -0.5 14.001s-1.16602 5 -2.49902 7l-0.5 0.5l-0.5 0.5l-0.5 0.5l-0.5 0.5
c-2 1.33301 -4.16699 2.16602 -6.5 2.49902s-7.16602 0.5 -14.499 0.5l-23 1c-7.33301 -0.666992 -12.333 -1.16699 -15 -1.5s-5 -1.16602 -7 -2.49902l-0.5 -0.5l-0.5 -0.5l-0.5 -0.5l-0.5 -0.5c-1.33301 -2 -2.16602 -4.33301 -2.49902 -7s-0.5 -7.66699 -0.5 -15v-698
c0 -7.33301 -0.166992 -12.333 -0.5 -15s-1.16602 -5 -2.49902 -7l-0.5 -0.5l-0.5 -0.5l-0.5 -0.5l-0.5 -0.5c-2 -1.33301 -4.33301 -2.16602 -7 -2.49902s-7.66699 -0.5 -15 -0.5h-29c-7.33301 0 -12.333 0.166992 -15 0.5s-5 1.16602 -7 2.49902l-0.5 0.5l-0.5 0.5
l-0.5 0.5l-0.5 0.5c-1.33301 2 -2.16602 4.33301 -2.49902 7s-0.5 7.66699 -0.5 15v408c0 12.667 -1.5 20.5 -4.5 23.5s-12.167 4.83301 -27.5 5.5c-46.667 2.66699 -84.667 22.667 -114 60s-44 85.333 -44 144c0 59.333 16.5 107.166 49.5 143.499s76.5 54.5 130.5 54.5
c5.33301 0 11.5 -0.166992 18.5 -0.5s14.167 -1.16602 21.5 -2.49902l39 -4c12.667 -1.33301 25.667 -2.33301 39 -3c12.667 -0.666992 25.5 -1.16699 38.5 -1.5s25.833 -0.5 38.5 -0.5v1z" />
    <glyph glyph-name="middot" unicode="&#xb7;" 
 />
    <glyph glyph-name="cedilla" unicode="&#xb8;" horiz-adv-x="500" 
d="M291 0l60.999 -120.001c5.33301 -10.667 9.16602 -19.5 11.499 -26.5s3.5 -13.167 3.5 -18.5c0 -20 -9.66699 -35.667 -29 -47s-45.666 -17 -78.999 -17c-39.333 0 -70 5 -92 15s-33 23.667 -33 41c0 18 6 29.833 18 35.5s25.333 9.16699 40 10.5
c2 0 3.83301 0.166992 5.5 0.5s3.16699 0.5 4.5 0.5c12.667 1.33301 23.834 3.33301 33.501 6s14.5 9.33398 14.5 20.001c0 6 -1.5 13.5 -4.5 22.5s-6.5 18.167 -10.5 27.5c-0.666992 2.66699 -1.66699 5.16699 -3 7.5s-2.33301 4.5 -3 6.5l-9.5 20
c-3 6 -5.5 11.333 -7.5 16h79v0z" />
    <glyph glyph-name="onesuperior" unicode="&#xb9;" 
 />
    <glyph glyph-name="ordmasculine" unicode="&#xba;" horiz-adv-x="400" 
d="M162 337h132.003c4 -0.666992 8.16699 -1 12.5 -1s8.83301 0.333008 13.5 1h13.5h12.5c6 0 10.667 -1 14 -3s5 -4.66699 5 -8c0 -2.66699 -0.166992 -5.5 -0.5 -8.5s-0.833008 -5.83301 -1.5 -8.5c-0.666992 -2 -1.16699 -3.83301 -1.5 -5.5
s-0.833008 -3.16699 -1.5 -4.5s-1.16699 -2.5 -1.5 -3.5s-0.5 -2.16699 -0.5 -3.5c-0.666992 -6 -3.66699 -10.667 -9 -14s-12 -5 -20 -5c-6 0 -11.833 0.166992 -17.5 0.5s-11.167 0.5 -16.5 0.5c-2 0 -3.83301 0.166992 -5.5 0.5s-3.5 0.5 -5.5 0.5
c-4 0 -7.83301 0.166992 -11.5 0.5s-7.5 0.5 -11.5 0.5l-107 1c-8 -0.666992 -16 -1 -24 -1h-23c-8 -0.666992 -16 -1 -24 -1h-24c-7.33301 0 -13.166 1 -17.499 3s-6.5 4.66699 -6.5 8c0 1.33301 0.166992 3 0.5 5s0.833008 3.66699 1.5 5l4 8
c1.33301 2.66699 2.66602 4.66699 3.99902 6l3.5 9c1 2.66699 2.16699 5 3.5 7c2.66699 5.33301 5.66699 8.83301 9 10.5s8 2.5 14 2.5c7.33301 0 14.666 -0.166992 21.999 -0.5s14.666 -0.5 21.999 -0.5c6.66699 -0.666992 13.667 -1.16699 21 -1.5
s14.666 -0.5 21.999 -0.5v1zM205.003 673c38.667 -0.666992 73 -13.498 103 -38.498s45 -57.833 45 -98.5s-16.333 -74.834 -49 -102.501s-72.667 -41.5 -120 -41.5c-38.667 0 -71 12 -97 36s-39 54.333 -39 91c0 44 14.5 80.167 43.5 108.5s66.833 43.166 113.5 44.499v1z
M188.003 607.002c-6.66699 -1.33301 -11.8311 -4.50195 -15.498 -9.50195s-5.5 -12.167 -5.5 -21.5c0 -4.66699 0.5 -12.167 1.5 -22.5s2.83301 -21.166 5.5 -32.499c3.33301 -15.333 8 -29.166 14 -41.499s13.667 -18.5 23 -18.5c7.33301 0 12.666 2.66699 15.999 8
s5 13.333 5 24c0 29.333 -4.33301 55.5 -13 78.5s-18.334 34.5 -29.001 34.5l-2 1v0z" />
    <glyph glyph-name="guillemotright" unicode="&#xbb;" horiz-adv-x="534" 
d="M278 114c4.66699 6 9.99902 13.3389 15.999 22.0059l19 27c3.33301 4.66699 6.33301 9.16699 9 13.5s5.66699 8.83301 9 13.5c7.33301 12.667 13.833 25.167 19.5 37.5s8.5 23.166 8.5 32.499c0 15.333 -4.5 30.166 -13.5 44.499s-18.833 28.5 -29.5 42.5
c-11.333 14.667 -21.5 28.834 -30.5 42.501s-13.5 27.5 -13.5 41.5l-1 2c0 10.667 4.66699 20.167 14 28.5s20.333 12.5 33 12.5c10 0 23.5 -5.66699 40.5 -17s34.833 -25.666 53.5 -42.999c9.33301 -8.66699 18.5 -17.834 27.5 -27.501l26.5 -29.5
c16 -18.667 29.167 -36.834 39.5 -54.501s15.5 -31.834 15.5 -42.501c0 -11.333 -5.16699 -25.833 -15.5 -43.5s-23.5 -35.834 -39.5 -54.501c-8.66699 -10.667 -18 -21.334 -28 -32.001s-20.333 -20.667 -31 -30c-18.667 -16.667 -36.667 -30.667 -54 -42
s-31.333 -17 -42 -17h-2.5h-2.5c-9.33301 2 -17.833 7 -25.5 15s-11.5 16.667 -11.5 26c0 5.33301 0.833008 10.666 2.5 15.999s3.83398 10.333 6.50098 15v1zM21.999 115.006c4 6 9.33105 13.3369 15.998 22.0039s13.334 18.334 20.001 29.001l8 12l8 12
c8 13.333 14.833 26.166 20.5 38.499s8.5 23.166 8.5 32.499c0 14.667 -4.5 29.334 -13.5 44.001s-18.833 29.334 -29.5 44.001c-11.333 14 -21.5 28 -30.5 42s-13.5 27.333 -13.5 40v3c0 10.667 4.66699 20 14 28s20.333 12 33 12c10 0 23.5 -5.83301 40.5 -17.5
s34.833 -26.167 53.5 -43.5c9.33301 -8.66699 18.333 -17.667 27 -27l26 -29c15.333 -18.667 28.333 -36.834 39 -54.501s16 -31.834 16 -42.501c0 -11.333 -5.33301 -25.833 -16 -43.5s-24 -36.167 -40 -55.5c-8.66699 -10.667 -18.167 -21.334 -28.5 -32.001
s-20.833 -20.667 -31.5 -30c-18 -16.667 -35.5 -30.334 -52.5 -41.001s-30.833 -16 -41.5 -16h-2.5h-2.5c-9.33301 2 -17.833 7 -25.5 15s-11.5 16.667 -11.5 26c0 5.33301 0.833008 10.666 2.5 15.999s3.83398 10.333 6.50098 15v1z" />
    <glyph glyph-name="onequarter" unicode="&#xbc;" 
 />
    <glyph glyph-name="onehalf" unicode="&#xbd;" 
 />
    <glyph glyph-name="threequarters" unicode="&#xbe;" 
 />
    <glyph glyph-name="questiondown" unicode="&#xbf;" horiz-adv-x="482" 
d="M83 102l45.001 22c10 4.66699 18.333 10 25 16s12.334 12 17.001 18c3.33301 5.33301 6.33301 10.5 9 15.5s5 9.83301 7 14.5c6 10.667 13 19.667 21 27s22.667 11 44 11c19.333 0 34.833 -5.83301 46.5 -17.5s17.5 -27.167 17.5 -46.5c0 -20 -4.33301 -38.167 -13 -54.5
s-18 -32.166 -28 -47.499c-10.667 -16 -20.334 -32 -29.001 -48s-13 -34 -13 -54c0 -14.667 3.16699 -26.5 9.5 -35.5s14.5 -13.5 24.5 -13.5s17 4.33301 21 13s7.33301 19 10 31c0.666992 4.66699 1.66699 9.5 3 14.5l4 15.5c5.33301 18 14.666 34.667 27.999 50
s37.333 23 72 23c20.667 0 37.667 -6.66699 51 -20s20 -29.333 20 -48c0 -50 -22.333 -92.667 -67 -128s-98.667 -53 -162 -53c-64.667 0 -120.167 18.167 -166.5 54.5s-69.5 80.166 -69.5 131.499c0 21.333 6.66699 42 20 62s31 35.333 53 46v1zM260.001 275
c-30.667 -0.666992 -56.333 9.16797 -77 29.501s-31 45.166 -31 74.499s10.5 54.333 31.5 75s46.5 31 76.5 31c27.333 0 51.5 -10 72.5 -30s31.5 -43.667 31.5 -71c0 -30.667 -10 -56.667 -30 -78s-44.667 -32 -74 -32v1z" />
    <glyph glyph-name="Agrave" unicode="&#xc0;" horiz-adv-x="827" 
d="M650 338l93 -198.001l8.5 -18.5c2.33301 -5 4.83301 -9.16699 7.5 -12.5c4 -6 8.5 -10.167 13.5 -12.5s11.167 -4.16602 18.5 -5.49902c11.333 -1.33301 20.166 -5 26.499 -11s9.5 -13.667 9.5 -23c0 -24.667 -14.167 -42 -42.5 -52s-75.166 -15 -140.499 -15h-7.5h-7.5
c-30 0 -58.833 1 -86.5 3s-48.834 4 -63.501 6c-15.333 2.66699 -28 8.33398 -38 17.001s-15 18.667 -15 30c0 10 1.66699 17.333 5 22s9.66602 9 18.999 13c2 1.33301 4 2.33301 6 3l6 2c7.33301 2.66699 13 6.16699 17 10.5s6 9.16602 6 14.499
c0 13.333 -4.16699 23.333 -12.5 30s-21.833 10.334 -40.5 11.001c-16.667 1.33301 -33.167 2.5 -49.5 3.5s-32.833 1.5 -49.5 1.5c-45.333 0 -74 -3 -86 -9s-18 -20.333 -18 -43c0 -6 2.33301 -10.5 7 -13.5s10.334 -5.5 17.001 -7.5
c0.666992 -0.666992 1.66699 -1.16699 3 -1.5s2.66602 -0.833008 3.99902 -1.5c7.33301 -2.66699 14.166 -6.33398 20.499 -11.001s9.5 -12.334 9.5 -23.001c0 -19.333 -11.667 -33.666 -35 -42.999s-58.666 -14 -105.999 -14c-54.667 0 -93.167 4 -115.5 12
s-33.5 22 -33.5 42c0 10 2 17.667 6 23s11.667 10.333 23 15c0.666992 0 1.5 0.166992 2.5 0.5s2.16699 0.833008 3.5 1.5c10.667 3.33301 19.834 7.33301 27.501 12s14.834 11.667 21.501 21c6.66699 8 13.5 18.833 20.5 32.5s15.167 31.167 24.5 52.5l69 152
c22 46.667 37.667 83.167 47 109.5s15 50.5 17 72.5c0 4 0.166992 7.66699 0.5 11s0.5 7 0.5 11c0.666992 42 9.83398 73.167 27.501 93.5s44.5 30.5 80.5 30.5c26 0 50.333 -6.66699 73 -20s43 -32.666 61 -57.999c19.333 -26.667 41.166 -62.334 65.499 -107.001
s50.833 -98 79.5 -160v1zM310 275.999l96.002 0.00195312c9.33301 -0.666992 16 -0.166992 20 1.5s6 4.5 6 8.5c0 6 -2.33301 14.5 -7 25.5s-10.334 22.833 -17.001 35.5c-2.66699 5.33301 -5.66699 10.666 -9 15.999s-6.66602 10.333 -9.99902 15
c-7.33301 10.667 -14.166 19.334 -20.499 26.001s-11.5 10 -15.5 10c-5.33301 0 -10 -1.66699 -14 -5s-8 -9 -12 -17c-0.666992 -2 -1.33398 -3.83301 -2.00098 -5.5s-1.33398 -3.5 -2.00098 -5.5c-2 -3.33301 -4.33301 -7.83301 -7 -13.5
s-5.33398 -11.834 -8.00098 -18.501l-4 -8c-1.33301 -2.66699 -2.33301 -5.33398 -3 -8.00098c-4 -8.66699 -7.16699 -17 -9.5 -25s-3.5 -14.667 -3.5 -20c0 -4.66699 1.5 -8 4.5 -10s8.83301 -3 17.5 -3v1zM466.002 801.001c1.33301 -2 2.83203 -3.50098 4.49902 -4.50098
s3.16699 -2.16699 4.5 -3.5c6.66699 -4.66699 12.667 -10 18 -16s8 -13.333 8 -22c0 -12.667 -4.16699 -21.834 -12.5 -27.501s-21.166 -8.5 -38.499 -8.5c-28.667 0 -57 4.83301 -85 14.5s-54 23.834 -78 42.501c-12.667 10 -22.667 19.667 -30 29s-11 17.333 -11 24
c0 15.333 10.833 28.333 32.5 39s48.5 16 80.5 16c25.333 0 45.5 -2.66699 60.5 -8s22.5 -12.333 22.5 -21c0 -2 -0.333008 -3.83301 -1 -5.5s-1.66699 -3.16699 -3 -4.5c-0.666992 -2 -1.5 -3.83301 -2.5 -5.5s-1.5 -3.5 -1.5 -5.5c0 -5.33301 2 -10.166 6 -14.499
s8.33301 -7.83301 13 -10.5c2.66699 -2 5 -3.66699 7 -5l6 -4v1z" />
    <glyph glyph-name="Aacute" unicode="&#xc1;" horiz-adv-x="827" 
d="M650 338l93 -198.001l8.5 -18.5c2.33301 -5 4.83301 -9.16699 7.5 -12.5c4 -6 8.5 -10.167 13.5 -12.5s11.167 -4.16602 18.5 -5.49902c11.333 -1.33301 20.166 -5 26.499 -11s9.5 -13.667 9.5 -23c0 -24.667 -14.167 -42 -42.5 -52s-75.166 -15 -140.499 -15h-7.5h-7.5
c-30 0 -58.833 1 -86.5 3s-48.834 4 -63.501 6c-15.333 2.66699 -28 8.33398 -38 17.001s-15 18.667 -15 30c0 10 1.66699 17.333 5 22s9.66602 9 18.999 13c2 1.33301 4 2.33301 6 3l6 2c7.33301 2.66699 13 6.16699 17 10.5s6 9.16602 6 14.499
c0 13.333 -4.16699 23.333 -12.5 30s-21.833 10.334 -40.5 11.001c-16.667 1.33301 -33.167 2.5 -49.5 3.5s-32.833 1.5 -49.5 1.5c-45.333 0 -74 -3 -86 -9s-18 -20.333 -18 -43c0 -6 2.33301 -10.5 7 -13.5s10.334 -5.5 17.001 -7.5
c0.666992 -0.666992 1.66699 -1.16699 3 -1.5s2.66602 -0.833008 3.99902 -1.5c7.33301 -2.66699 14.166 -6.33398 20.499 -11.001s9.5 -12.334 9.5 -23.001c0 -19.333 -11.667 -33.666 -35 -42.999s-58.666 -14 -105.999 -14c-54.667 0 -93.167 4 -115.5 12
s-33.5 22 -33.5 42c0 10 2 17.667 6 23s11.667 10.333 23 15c0.666992 0 1.5 0.166992 2.5 0.5s2.16699 0.833008 3.5 1.5c10.667 3.33301 19.834 7.33301 27.501 12s14.834 11.667 21.501 21c6.66699 8 13.5 18.833 20.5 32.5s15.167 31.167 24.5 52.5l69 152
c22 46.667 37.667 83.167 47 109.5s15 50.5 17 72.5c0 4 0.166992 7.66699 0.5 11s0.5 7 0.5 11c0.666992 42 9.83398 73.167 27.501 93.5s44.5 30.5 80.5 30.5c26 0 50.333 -6.66699 73 -20s43 -32.666 61 -57.999c19.333 -26.667 41.166 -62.334 65.499 -107.001
s50.833 -98 79.5 -160v1zM310 275.999l96.002 0.00195312c9.33301 -0.666992 16 -0.166992 20 1.5s6 4.5 6 8.5c0 6 -2.33301 14.5 -7 25.5s-10.334 22.833 -17.001 35.5c-2.66699 5.33301 -5.66699 10.666 -9 15.999s-6.66602 10.333 -9.99902 15
c-7.33301 10.667 -14.166 19.334 -20.499 26.001s-11.5 10 -15.5 10c-5.33301 0 -10 -1.66699 -14 -5s-8 -9 -12 -17c-0.666992 -2 -1.33398 -3.83301 -2.00098 -5.5s-1.33398 -3.5 -2.00098 -5.5c-2 -3.33301 -4.33301 -7.83301 -7 -13.5
s-5.33398 -11.834 -8.00098 -18.501l-4 -8c-1.33301 -2.66699 -2.33301 -5.33398 -3 -8.00098c-4 -8.66699 -7.16699 -17 -9.5 -25s-3.5 -14.667 -3.5 -20c0 -4.66699 1.5 -8 4.5 -10s8.83301 -3 17.5 -3v1zM311.002 794.001
c2.66699 1.33301 5.16602 2.82812 7.49902 4.49512l7.5 5.5l7.5 5.5l7.5 5.5c2.66699 1.33301 5 3.33301 7 6s3.33301 5.66699 4 9c0.666992 0.666992 1 1.33398 1 2.00098v2c0 2 -0.333008 3.83301 -1 5.5s-1.66699 3.5 -3 5.5c-0.666992 1.33301 -1.5 2.83301 -2.5 4.5
s-1.5 3.5 -1.5 5.5c0 8.66699 7.33301 15.667 22 21s33.667 8 57 8c34 0 62 -5.16699 84 -15.5s33 -23.5 33 -39.5c0 -5.33301 -2.5 -11.666 -7.5 -18.999s-11.833 -14.666 -20.5 -21.999c-2 -2 -4.16699 -4 -6.5 -6s-4.83301 -4 -7.5 -6c-22.667 -18 -48.167 -32 -76.5 -42
s-57.166 -15 -86.499 -15c-16.667 0 -29.167 2.83301 -37.5 8.5s-12.5 14.834 -12.5 27.501c0 9.33301 2.5 16.833 7.5 22.5s10.833 10.834 17.5 15.501v1z" />
    <glyph glyph-name="Acircumflex" unicode="&#xc2;" horiz-adv-x="827" 
d="M650 338l93 -198.001l8.5 -18.5c2.33301 -5 4.83301 -9.16699 7.5 -12.5c4 -6 8.5 -10.167 13.5 -12.5s11.167 -4.16602 18.5 -5.49902c11.333 -1.33301 20.166 -5 26.499 -11s9.5 -13.667 9.5 -23c0 -24.667 -14.167 -42 -42.5 -52s-75.166 -15 -140.499 -15h-7.5h-7.5
c-30 0 -58.833 1 -86.5 3s-48.834 4 -63.501 6c-15.333 2.66699 -28 8.33398 -38 17.001s-15 18.667 -15 30c0 10 1.66699 17.333 5 22s9.66602 9 18.999 13c2 1.33301 4 2.33301 6 3l6 2c7.33301 2.66699 13 6.16699 17 10.5s6 9.16602 6 14.499
c0 13.333 -4.16699 23.333 -12.5 30s-21.833 10.334 -40.5 11.001c-16.667 1.33301 -33.167 2.5 -49.5 3.5s-32.833 1.5 -49.5 1.5c-45.333 0 -74 -3 -86 -9s-18 -20.333 -18 -43c0 -6 2.33301 -10.5 7 -13.5s10.334 -5.5 17.001 -7.5
c0.666992 -0.666992 1.66699 -1.16699 3 -1.5s2.66602 -0.833008 3.99902 -1.5c7.33301 -2.66699 14.166 -6.33398 20.499 -11.001s9.5 -12.334 9.5 -23.001c0 -19.333 -11.667 -33.666 -35 -42.999s-58.666 -14 -105.999 -14c-54.667 0 -93.167 4 -115.5 12
s-33.5 22 -33.5 42c0 10 2 17.667 6 23s11.667 10.333 23 15c0.666992 0 1.5 0.166992 2.5 0.5s2.16699 0.833008 3.5 1.5c10.667 3.33301 19.834 7.33301 27.501 12s14.834 11.667 21.501 21c6.66699 8 13.5 18.833 20.5 32.5s15.167 31.167 24.5 52.5l69 152
c22 46.667 37.667 83.167 47 109.5s15 50.5 17 72.5c0 4 0.166992 7.66699 0.5 11s0.5 7 0.5 11c0.666992 42 9.83398 73.167 27.501 93.5s44.5 30.5 80.5 30.5c26 0 50.333 -6.66699 73 -20s43 -32.666 61 -57.999c19.333 -26.667 41.166 -62.334 65.499 -107.001
s50.833 -98 79.5 -160v1zM310 275.999l96.002 0.00195312c9.33301 -0.666992 16 -0.166992 20 1.5s6 4.5 6 8.5c0 6 -2.33301 14.5 -7 25.5s-10.334 22.833 -17.001 35.5c-2.66699 5.33301 -5.66699 10.666 -9 15.999s-6.66602 10.333 -9.99902 15
c-7.33301 10.667 -14.166 19.334 -20.499 26.001s-11.5 10 -15.5 10c-5.33301 0 -10 -1.66699 -14 -5s-8 -9 -12 -17c-0.666992 -2 -1.33398 -3.83301 -2.00098 -5.5s-1.33398 -3.5 -2.00098 -5.5c-2 -3.33301 -4.33301 -7.83301 -7 -13.5
s-5.33398 -11.834 -8.00098 -18.501l-4 -8c-1.33301 -2.66699 -2.33301 -5.33398 -3 -8.00098c-4 -8.66699 -7.16699 -17 -9.5 -25s-3.5 -14.667 -3.5 -20c0 -4.66699 1.5 -8 4.5 -10s8.83301 -3 17.5 -3v1zM352.002 762.001
c-4.66699 -3.33301 -9.67188 -6.50488 -15.0049 -9.50488s-10.666 -6.16699 -15.999 -9.5c-4.66699 -2.66699 -9.66699 -5.33398 -15 -8.00098s-10.666 -5 -15.999 -7c-6.66699 -3.33301 -13.5 -6 -20.5 -8s-13.833 -3 -20.5 -3c-12 0 -21.667 3.66699 -29 11
s-11 16.333 -11 27c0 6.66699 1.83301 13.5 5.5 20.5s8.5 13.833 14.5 20.5c8.66699 10.667 19.334 20.834 32.001 30.501s25.667 18.834 39 27.501c20 12.667 38.667 23.167 56 31.5s28.333 12.5 33 12.5c8.66699 0 21.167 -4 37.5 -12s33.5 -17.667 51.5 -29
c8.66699 -6 17.334 -12.333 26.001 -19l25 -19c14 -12 25.5 -23.667 34.5 -35s13.5 -20.666 13.5 -27.999c0 -10.667 -3.66699 -19.667 -11 -27s-16 -11 -26 -11c-11.333 0 -22.666 2.33301 -33.999 7s-22.333 9.66699 -33 15c-1.33301 0.666992 -2.5 1.33398 -3.5 2.00098
s-2.16699 1.33398 -3.5 2.00098c-12 6.66699 -24.167 12.667 -36.5 18s-25.166 8 -38.499 8c-6.66699 0 -13.334 -0.666992 -20.001 -2s-13 -3.66602 -19 -6.99902v1z" />
    <glyph glyph-name="Atilde" unicode="&#xc3;" horiz-adv-x="827" 
d="M650 338l93 -198.001l8.5 -18.5c2.33301 -5 4.83301 -9.16699 7.5 -12.5c4 -6 8.5 -10.167 13.5 -12.5s11.167 -4.16602 18.5 -5.49902c11.333 -1.33301 20.166 -5 26.499 -11s9.5 -13.667 9.5 -23c0 -24.667 -14.167 -42 -42.5 -52s-75.166 -15 -140.499 -15h-7.5h-7.5
c-30 0 -58.833 1 -86.5 3s-48.834 4 -63.501 6c-15.333 2.66699 -28 8.33398 -38 17.001s-15 18.667 -15 30c0 10 1.66699 17.333 5 22s9.66602 9 18.999 13c2 1.33301 4 2.33301 6 3l6 2c7.33301 2.66699 13 6.16699 17 10.5s6 9.16602 6 14.499
c0 13.333 -4.16699 23.333 -12.5 30s-21.833 10.334 -40.5 11.001c-16.667 1.33301 -33.167 2.5 -49.5 3.5s-32.833 1.5 -49.5 1.5c-45.333 0 -74 -3 -86 -9s-18 -20.333 -18 -43c0 -6 2.33301 -10.5 7 -13.5s10.334 -5.5 17.001 -7.5
c0.666992 -0.666992 1.66699 -1.16699 3 -1.5s2.66602 -0.833008 3.99902 -1.5c7.33301 -2.66699 14.166 -6.33398 20.499 -11.001s9.5 -12.334 9.5 -23.001c0 -19.333 -11.667 -33.666 -35 -42.999s-58.666 -14 -105.999 -14c-54.667 0 -93.167 4 -115.5 12
s-33.5 22 -33.5 42c0 10 2 17.667 6 23s11.667 10.333 23 15c0.666992 0 1.5 0.166992 2.5 0.5s2.16699 0.833008 3.5 1.5c10.667 3.33301 19.834 7.33301 27.501 12s14.834 11.667 21.501 21c6.66699 8 13.5 18.833 20.5 32.5s15.167 31.167 24.5 52.5l69 152
c22 46.667 37.667 83.167 47 109.5s15 50.5 17 72.5c0 4 0.166992 7.66699 0.5 11s0.5 7 0.5 11c0.666992 42 9.83398 73.167 27.501 93.5s44.5 30.5 80.5 30.5c26 0 50.333 -6.66699 73 -20s43 -32.666 61 -57.999c19.333 -26.667 41.166 -62.334 65.499 -107.001
s50.833 -98 79.5 -160v1zM310 275.999l96.002 0.00195312c9.33301 -0.666992 16 -0.166992 20 1.5s6 4.5 6 8.5c0 6 -2.33301 14.5 -7 25.5s-10.334 22.833 -17.001 35.5c-2.66699 5.33301 -5.66699 10.666 -9 15.999s-6.66602 10.333 -9.99902 15
c-7.33301 10.667 -14.166 19.334 -20.499 26.001s-11.5 10 -15.5 10c-5.33301 0 -10 -1.66699 -14 -5s-8 -9 -12 -17c-0.666992 -2 -1.33398 -3.83301 -2.00098 -5.5s-1.33398 -3.5 -2.00098 -5.5c-2 -3.33301 -4.33301 -7.83301 -7 -13.5
s-5.33398 -11.834 -8.00098 -18.501l-4 -8c-1.33301 -2.66699 -2.33301 -5.33398 -3 -8.00098c-4 -8.66699 -7.16699 -17 -9.5 -25s-3.5 -14.667 -3.5 -20c0 -4.66699 1.5 -8 4.5 -10s8.83301 -3 17.5 -3v1zM383.002 857.001l14.502 -6.50391
c5 -2.33301 10.5 -4.5 16.5 -6.5c2.66699 -1.33301 5.5 -2.66602 8.5 -3.99902s6.16699 -2.33301 9.5 -3c7.33301 -2.66699 14.833 -5 22.5 -7s14.5 -3 20.5 -3c2.66699 0 4.83398 1.33301 6.50098 4s3.16699 5.66699 4.5 9c0.666992 2 1.33398 4.33301 2.00098 7
s1.66699 5.33398 3 8.00098c2.66699 6.66699 7 12.834 13 18.501s15.667 8.5 29 8.5c25.333 0 45.5 -4.83301 60.5 -14.5s22.5 -22.5 22.5 -38.5c0 -26 -10.167 -48.5 -30.5 -67.5s-44.5 -28.5 -72.5 -28.5c-17.333 0 -33.666 2.33301 -48.999 7s-30.666 10 -45.999 16
c-0.666992 0 -1.33398 0.166992 -2.00098 0.5s-1.33398 0.5 -2.00098 0.5l-32.5 12c-11 4 -22.167 7 -33.5 9c-2.66699 0.666992 -5.33398 1.5 -8.00098 2.5l-9 3.5c-2 0.666992 -4.33301 1.33398 -7 2.00098s-5.33398 1.66699 -8.00098 3
c-2.66699 0.666992 -5.33398 1.16699 -8.00098 1.5s-5.33398 0.5 -8.00098 0.5c-3.33301 0 -6 -1.16699 -8 -3.5s-3 -5.16602 -3 -8.49902v-9c0 -13.333 -3.83301 -22.833 -11.5 -28.5s-19.167 -8.5 -34.5 -8.5c-24.667 0 -43 4 -55 12s-18 19.667 -18 35
c0 27.333 10.167 50.833 30.5 70.5s44.5 29.5 72.5 29.5h2h2c14 0 29 -1.83301 45 -5.5s36.333 -9.83398 61 -18.501v1z" />
    <glyph glyph-name="Adieresis" unicode="&#xc4;" horiz-adv-x="827" 
d="M650 338l93 -198.001l8.5 -18.5c2.33301 -5 4.83301 -9.16699 7.5 -12.5c4 -6 8.5 -10.167 13.5 -12.5s11.167 -4.16602 18.5 -5.49902c11.333 -1.33301 20.166 -5 26.499 -11s9.5 -13.667 9.5 -23c0 -24.667 -14.167 -42 -42.5 -52s-75.166 -15 -140.499 -15h-7.5h-7.5
c-30 0 -58.833 1 -86.5 3s-48.834 4 -63.501 6c-15.333 2.66699 -28 8.33398 -38 17.001s-15 18.667 -15 30c0 10 1.66699 17.333 5 22s9.66602 9 18.999 13c2 1.33301 4 2.33301 6 3l6 2c7.33301 2.66699 13 6.16699 17 10.5s6 9.16602 6 14.499
c0 13.333 -4.16699 23.333 -12.5 30s-21.833 10.334 -40.5 11.001c-16.667 1.33301 -33.167 2.5 -49.5 3.5s-32.833 1.5 -49.5 1.5c-45.333 0 -74 -3 -86 -9s-18 -20.333 -18 -43c0 -6 2.33301 -10.5 7 -13.5s10.334 -5.5 17.001 -7.5
c0.666992 -0.666992 1.66699 -1.16699 3 -1.5s2.66602 -0.833008 3.99902 -1.5c7.33301 -2.66699 14.166 -6.33398 20.499 -11.001s9.5 -12.334 9.5 -23.001c0 -19.333 -11.667 -33.666 -35 -42.999s-58.666 -14 -105.999 -14c-54.667 0 -93.167 4 -115.5 12
s-33.5 22 -33.5 42c0 10 2 17.667 6 23s11.667 10.333 23 15c0.666992 0 1.5 0.166992 2.5 0.5s2.16699 0.833008 3.5 1.5c10.667 3.33301 19.834 7.33301 27.501 12s14.834 11.667 21.501 21c6.66699 8 13.5 18.833 20.5 32.5s15.167 31.167 24.5 52.5l69 152
c22 46.667 37.667 83.167 47 109.5s15 50.5 17 72.5c0 4 0.166992 7.66699 0.5 11s0.5 7 0.5 11c0.666992 42 9.83398 73.167 27.501 93.5s44.5 30.5 80.5 30.5c26 0 50.333 -6.66699 73 -20s43 -32.666 61 -57.999c19.333 -26.667 41.166 -62.334 65.499 -107.001
s50.833 -98 79.5 -160v1zM310 275.999l96.002 0.00195312c9.33301 -0.666992 16 -0.166992 20 1.5s6 4.5 6 8.5c0 6 -2.33301 14.5 -7 25.5s-10.334 22.833 -17.001 35.5c-2.66699 5.33301 -5.66699 10.666 -9 15.999s-6.66602 10.333 -9.99902 15
c-7.33301 10.667 -14.166 19.334 -20.499 26.001s-11.5 10 -15.5 10c-5.33301 0 -10 -1.66699 -14 -5s-8 -9 -12 -17c-0.666992 -2 -1.33398 -3.83301 -2.00098 -5.5s-1.33398 -3.5 -2.00098 -5.5c-2 -3.33301 -4.33301 -7.83301 -7 -13.5
s-5.33398 -11.834 -8.00098 -18.501l-4 -8c-1.33301 -2.66699 -2.33301 -5.33398 -3 -8.00098c-4 -8.66699 -7.16699 -17 -9.5 -25s-3.5 -14.667 -3.5 -20c0 -4.66699 1.5 -8 4.5 -10s8.83301 -3 17.5 -3v1zM291.002 878.001
c31.333 -0.666992 55.999 -6.33105 73.999 -16.998s27 -25.334 27 -44.001c0 -22.667 -15 -41.834 -45 -57.501s-67.333 -23.5 -112 -23.5c-26 0 -47.667 5.66699 -65 17s-26 25.333 -26 42c0 26.667 12.833 47 38.5 61s61.834 21 108.501 21v1zM580.001 878.004
c31.333 -0.666992 55.999 -6.33105 73.999 -16.998s27 -25.334 27 -44.001c0 -22.667 -15 -41.834 -45 -57.501s-67.333 -23.5 -112 -23.5c-26 0 -47.667 5.66699 -65 17s-26 25.333 -26 42c0 26.667 12.833 47 38.5 61s61.834 21 108.501 21v1z" />
    <glyph glyph-name="Aring" unicode="&#xc5;" horiz-adv-x="827" 
d="M650 338l93 -198.001l8.5 -18.5c2.33301 -5 4.83301 -9.16699 7.5 -12.5c4 -6 8.5 -10.167 13.5 -12.5s11.167 -4.16602 18.5 -5.49902c11.333 -1.33301 20.166 -5 26.499 -11s9.5 -13.667 9.5 -23c0 -24.667 -14.167 -42 -42.5 -52s-75.166 -15 -140.499 -15h-7.5h-7.5
c-30 0 -58.833 1 -86.5 3s-48.834 4 -63.501 6c-15.333 2.66699 -28 8.33398 -38 17.001s-15 18.667 -15 30c0 10 1.66699 17.333 5 22s9.66602 9 18.999 13c2 1.33301 4 2.33301 6 3l6 2c7.33301 2.66699 13 6.16699 17 10.5s6 9.16602 6 14.499
c0 13.333 -4.16699 23.333 -12.5 30s-21.833 10.334 -40.5 11.001c-16.667 1.33301 -33.167 2.5 -49.5 3.5s-32.833 1.5 -49.5 1.5c-45.333 0 -74 -3 -86 -9s-18 -20.333 -18 -43c0 -6 2.33301 -10.5 7 -13.5s10.334 -5.5 17.001 -7.5
c0.666992 -0.666992 1.66699 -1.16699 3 -1.5s2.66602 -0.833008 3.99902 -1.5c7.33301 -2.66699 14.166 -6.33398 20.499 -11.001s9.5 -12.334 9.5 -23.001c0 -19.333 -11.667 -33.666 -35 -42.999s-58.666 -14 -105.999 -14c-54.667 0 -93.167 4 -115.5 12
s-33.5 22 -33.5 42c0 10 2 17.667 6 23s11.667 10.333 23 15c0.666992 0 1.5 0.166992 2.5 0.5s2.16699 0.833008 3.5 1.5c10.667 3.33301 19.834 7.33301 27.501 12s14.834 11.667 21.501 21c6.66699 8 13.5 18.833 20.5 32.5s15.167 31.167 24.5 52.5l69 152
c22 46.667 37.667 83.167 47 109.5s15 50.5 17 72.5c0 4 0.166992 7.66699 0.5 11s0.5 7 0.5 11c0.666992 42 9.83398 73.167 27.501 93.5s44.5 30.5 80.5 30.5c26 0 50.333 -6.66699 73 -20s43 -32.666 61 -57.999c19.333 -26.667 41.166 -62.334 65.499 -107.001
s50.833 -98 79.5 -160v1zM310 275.999l96.002 0.00195312c9.33301 -0.666992 16 -0.166992 20 1.5s6 4.5 6 8.5c0 6 -2.33301 14.5 -7 25.5s-10.334 22.833 -17.001 35.5c-2.66699 5.33301 -5.66699 10.666 -9 15.999s-6.66602 10.333 -9.99902 15
c-7.33301 10.667 -14.166 19.334 -20.499 26.001s-11.5 10 -15.5 10c-5.33301 0 -10 -1.66699 -14 -5s-8 -9 -12 -17c-0.666992 -2 -1.33398 -3.83301 -2.00098 -5.5s-1.33398 -3.5 -2.00098 -5.5c-2 -3.33301 -4.33301 -7.83301 -7 -13.5
s-5.33398 -11.834 -8.00098 -18.501l-4 -8c-1.33301 -2.66699 -2.33301 -5.33398 -3 -8.00098c-4 -8.66699 -7.16699 -17 -9.5 -25s-3.5 -14.667 -3.5 -20c0 -4.66699 1.5 -8 4.5 -10s8.83301 -3 17.5 -3v1zM389.002 918.001c47.333 -0.666992 84.168 -9.33301 110.501 -26
s39.5 -40 39.5 -70c0 -32.667 -12.333 -58 -37 -76s-59.334 -27 -104.001 -27c-50.667 0 -88.5 8 -113.5 24s-37.5 40.333 -37.5 73c0 31.333 12.5 56 37.5 74s59.833 27 104.5 27v1zM394.004 873.002c-15.333 -0.666992 -27.333 -6 -36 -16s-13 -23.667 -13 -41
c0 -16 4.16699 -28.833 12.5 -38.5s19.5 -14.5 33.5 -14.5c15.333 0 27.5 5.16699 36.5 15.5s13.5 23.833 13.5 40.5s-4.16699 29.667 -12.5 39s-19.833 14 -34.5 14v1z" />
    <glyph glyph-name="AE" unicode="&#xc6;" horiz-adv-x="1035" 
d="M468 668l324.997 -0.00195312c18 -0.666992 32.833 -0.333984 44.5 0.999023s22.834 3.33301 33.501 6c1.33301 0.666992 2.83301 1.16699 4.5 1.5s3.5 0.833008 5.5 1.5c8 3.33301 13.667 5.33301 17 6s6.33301 1 9 1c22 0 40.833 -13.333 56.5 -40
s23.5 -58.667 23.5 -96c0 -20 -4.66699 -36.5 -14 -49.5s-21.666 -19.5 -36.999 -19.5c-9.33301 0 -16.5 2 -21.5 6s-9.83301 9 -14.5 15c-3.33301 4 -6.5 8.16699 -9.5 12.5s-6.5 8.83301 -10.5 13.5c-10 11.333 -25.5 21.833 -46.5 31.5s-54.167 14.5 -99.5 14.5
c-36.667 0 -60 -3.83301 -70 -11.5s-15 -26.167 -15 -55.5v-76c0 -17.333 2.16699 -28.166 6.5 -32.499s13.833 -7.16602 28.5 -8.49902h29c16.667 -0.666992 27.167 4.33301 31.5 15s7.5 22.667 9.5 36c2 12.667 5.16699 24.5 9.5 35.5s15.166 16.5 32.499 16.5
c19.333 0 33.833 -12.667 43.5 -38s14.5 -63.666 14.5 -114.999c0 -44 -5.83301 -79.333 -17.5 -106s-27.167 -40 -46.5 -40c-9.33301 0 -16.5 3.16699 -21.5 9.5s-8.5 16.833 -10.5 31.5c-2.66699 22.667 -8.5 38.334 -17.5 47.001s-23.5 13 -43.5 13
c-14.667 0 -25.167 -3.83301 -31.5 -11.5s-9.5 -21.5 -9.5 -41.5c0 -64 4 -103.833 12 -119.5s27.667 -24.167 59 -25.5h47c39.333 -0.666992 71.333 5.83301 96 19.5s45.334 38.167 62.001 73.5c1.33301 2.66699 2.66602 5.16699 3.99902 7.5s2.66602 4.83301 3.99902 7.5
c5.33301 9.33301 11 16 17 20s13.333 6 22 6c15.333 0 27.333 -6 36 -18s13 -27.667 13 -47c0 -10.667 -1.33301 -22.667 -4 -36s-6.66699 -26.666 -12 -39.999c-4.66699 -14.667 -10.5 -28.834 -17.5 -42.501s-14.5 -25.834 -22.5 -36.501
c-1.33301 -2 -2.66602 -3.83301 -3.99902 -5.5s-2.66602 -3.16699 -3.99902 -4.5c-4.66699 -4 -9.33398 -6.66699 -14.001 -8s-10.667 -2 -18 -2c-4.66699 0 -9.16699 0.166992 -13.5 0.5s-8.83301 0.833008 -13.5 1.5c-2 0.666992 -4.16699 1.16699 -6.5 1.5
s-4.5 0.5 -6.5 0.5c-6.66699 1.33301 -13.334 2.5 -20.001 3.5s-13.667 1.5 -21 1.5l-436 -2c-18.667 0 -32.667 3.33301 -42 10s-14 16.667 -14 30c0 10.667 2.83301 19.5 8.5 26.5s14.834 13.167 27.501 18.5c2.66699 1.33301 5.16699 2.5 7.5 3.5
s4.16602 2.16699 5.49902 3.5c5.33301 2.66699 9.16602 5.83398 11.499 9.50098s3.5 7.83398 3.5 12.501c0 11.333 -4.16699 19 -12.5 23s-23.166 6.33301 -44.499 7h-16.5c-5.66699 0 -11.167 0.333008 -16.5 1h-17.5h-16.5c-24.667 0 -41.667 -2 -51 -6
s-14 -11.667 -14 -23c0 -6.66699 2.33301 -12.167 7 -16.5s10.334 -8.16602 17.001 -11.499c0.666992 -0.666992 1.5 -1.33398 2.5 -2.00098s1.83301 -1.33398 2.5 -2.00098c8 -4 15 -9 21 -15s9 -14 9 -24c0 -17.333 -12 -30.333 -36 -39s-60.333 -13 -109 -13
s-85.5 4.5 -110.5 13.5s-37.5 22.833 -37.5 41.5c0 13.333 2.66699 22.666 8 27.999s12 9.66602 20 12.999c5.33301 2.66699 11.333 5.5 18 8.5s13.334 7.16699 20.001 12.5c3.33301 2.66699 6.5 5.66699 9.5 9s6.16699 7.33301 9.5 12l32.5 50l30.5 47
c6 9.33301 11.667 18.833 17 28.5s11 19.167 17 28.5c6 10 11.833 20.333 17.5 31l17.5 32l104 190c6.66699 11.333 11.334 21 14.001 29s4 15 4 21l-1 25c0 22.667 8.5 37.834 25.5 45.501s51.833 11.5 104.5 11.5v1zM437.997 334.998l-0.00195312 68.999
c0 17.333 -1.5 29.166 -4.5 35.499s-8.16699 9.5 -15.5 9.5c-2.66699 0 -5 -0.333008 -7 -1s-4 -1.66699 -6 -3c-3.33301 -2 -6.66602 -5.66699 -9.99902 -11s-7.66602 -12.666 -12.999 -21.999l-12.5 -20.5c-5 -8.33301 -10.167 -17.5 -15.5 -27.5l-4.5 -7l-4.5 -7
c-6 -12 -11.5 -23.667 -16.5 -35s-7.5 -20.333 -7.5 -27c0 -11.333 4.83301 -19.166 14.5 -23.499s27.834 -6.5 54.501 -6.5c19.333 0 32.166 5 38.499 15s9.5 30.333 9.5 61v1z" />
    <glyph glyph-name="Ccedilla" unicode="&#xc7;" horiz-adv-x="720" 
d="M352 -75c-0.666992 1.33301 -1.33984 2.82715 -2.00684 4.49414s-1.33398 3.5 -2.00098 5.5s-1.16699 3.83301 -1.5 5.5s-0.833008 3.5 -1.5 5.5c-4 12 -8.66699 22.833 -14 32.5s-13.666 16.167 -24.999 19.5c-78.667 18.667 -145.5 57.834 -200.5 117.501
s-82.5 131.834 -82.5 216.501c0 92.667 35.667 173.667 107 243s154.666 104 249.999 104c26 0 49.167 -2.33301 69.5 -7s38.5 -10 54.5 -16l40 -16c11.333 -4.66699 21 -7 29 -7c3.33301 0 6.83301 0.333008 10.5 1s7.16699 1.66699 10.5 3l10.5 2
c3.66699 0.666992 7.16699 1 10.5 1c24 0 45.333 -16.667 64 -50s28 -71.666 28 -114.999c0 -30 -8.33301 -54.333 -25 -73s-38.667 -28 -66 -28c-18 0 -32.667 5.5 -44 16.5s-21.666 24.5 -30.999 40.5c-3.33301 4 -6.33301 8.33301 -9 13s-5.66699 9.33398 -9 14.001
c-13.333 21.333 -30.166 40.833 -50.499 58.5s-50.166 26.5 -89.499 26.5c-35.333 0 -62.833 -12 -82.5 -36s-29.5 -58 -29.5 -102v-1.5v-1.5c0.666992 -60 19 -115 55 -165s86.667 -75 152 -75c26.667 0 49.5 3.33301 68.5 10s35.167 14 48.5 22
c12.667 8 23.167 15.333 31.5 22s15.166 10 20.499 10c11.333 0 21 -5.16699 29 -15.5s12 -23.166 12 -38.499c0 -33.333 -9.16699 -62.333 -27.5 -87s-42.166 -39.667 -71.499 -45c-11.333 -2.66699 -22.666 -6 -33.999 -10s-22.666 -8.33301 -33.999 -13h-0.5h-1.5
c-15.333 -6 -30.666 -11.5 -45.999 -16.5s-31.333 -8.5 -48 -10.5h-3h-4c-2 -0.666992 -4 -1.5 -6 -2.5s-3 -2.5 -3 -4.5v-0.5v-0.5c0 -0.666992 0.333008 -1.5 1 -2.5s1.33398 -2.5 2.00098 -4.5l48 -95c5.33301 -10 9.16602 -18.167 11.499 -24.5s3.5 -12.166 3.5 -17.499
v-1.5v-1.5c0 -20 -9.66699 -35.667 -29 -47s-45.666 -17 -78.999 -17c-39.333 0 -70 5 -92 15s-33 23.667 -33 41c0 18 6 29.833 18 35.5s25.333 9.16699 40 10.5c2 0 3.83301 0.166992 5.5 0.5s3.16699 0.5 4.5 0.5c12.667 1.33301 23.834 3.33301 33.501 6
s14.5 9.33398 14.5 20.001c0 3.33301 -0.5 7.16602 -1.5 11.499s-2.5 8.83301 -4.5 13.5v0z" />
    </font>
</defs>
</svg>
